<?xml version="1.0" standalone="no"?>
<!DOCTYPE svg PUBLIC "-//W3C//DTD SVG 1.1//EN" "http://www.w3.org/Graphics/SVG/1.1/DTD/svg11.dtd" >
<svg>
<metadata>
Created by FontForge 20090622 at Wed Oct 15 15:42:21 2014
 By ywft
Copyright (c) 2008 by YouWorkForThem. All rights reserved.
</metadata>
<defs>
<font id="YWFTHannahNarrow-SemiBold" horiz-adv-x="485" >
  <font-face 
    font-family="YWFT Hannah Narrow"
    font-weight="600"
    font-stretch="condensed"
    units-per-em="2048"
    panose-1="2 0 5 8 4 0 0 2 0 4"
    ascent="1638"
    descent="-410"
    x-height="1433.5"
    cap-height="1434"
    bbox="-35 -604.25 1577 1718.13"
    underline-thickness="0"
    underline-position="0"
    unicode-range="U+000D-U+FB02"
  />
<missing-glyph horiz-adv-x="385" 
 />
    <glyph glyph-name=".notdef" horiz-adv-x="385" 
 />
    <glyph glyph-name="glyph1" horiz-adv-x="0" 
 />
    <glyph glyph-name="glyph2" horiz-adv-x="681" 
 />
    <glyph glyph-name="glyph3" horiz-adv-x="563" 
d="M410 438v8l-2 5l-2 28l-9 96v7q-2 8 -2 26l-8 90q-2 20 -3 31l-9 94q-6 18 -6 47q-9 31 -15 93v10l-6 41q0 16 -8 84q0 39 -6 63l-2 23q0 16 -4 45l-11 74q-4 -25 -4 -39l-6 -52l-2 -22q-4 -20 -4 -29l-8 -41q-6 -25 -8 -50l-15 -97l-6 -43v-10q-13 -86 -14 -89l-4 -22
q-4 -29 -7 -36t-7.5 -28.5t-9.5 -58.5t-7 -47l-6 -49l-23 -131l-6 -25l96 4h134zM88 -6h-22q-25 0 -21 29l10 53l8 37q5 33 9 44t4 17l2 2v6l12 72q0 8 4 33l6 26l2 4v17q3 36 19 115q0 18 6 30v4q8 49 12 97v2l4 18l7 51q4 40 15 100t16 103t12 66q8 94 20 144t12 71l13 65
q8 24 8 39l8 45q2 16 10 66l12 55l7 25q6 6 34.5 8t34.5 -2q14 -40 18 -60t4 -22l6 -36q3 -16 7 -63q12 -70 27 -227l24 -151q4 -18 8 -68v-8q6 -25 7 -76l2 -29l2 -12v-12q0 -36 6 -68l6 -92l8 -68l6 -86q0 -24 4 -44q3 -20 5 -44t3 -56t8 -66t11 -78l6 -50q0 -23 -14 -26
h-35q-16 0 -16 16q1 16 -7 42t-8 63q-14 103 -14 147v14q-4 25 -8 93v6l-10 2l-168 -2q-28 0 -56 -4q-8 -4 -14 -4l-8 -74v-25l-2 -14q0 -39 -6 -57q0 -10 -4 -27l-19 -88l-8 -43q-5 -13 -9 -29t-26 -16z" />
    <glyph glyph-name="glyph3" horiz-adv-x="563" 
d="M410 438v8l-2 5l-2 28l-9 96v7q-2 8 -2 26l-8 90q-2 20 -3 31l-9 94q-6 18 -6 47q-9 31 -15 93v10l-6 41q0 16 -8 84q0 39 -6 63l-2 23q0 16 -4 45l-11 74q-4 -25 -4 -39l-6 -52l-2 -22q-4 -20 -4 -29l-8 -41q-6 -25 -8 -50l-15 -97l-6 -43v-10q-13 -86 -14 -89l-4 -22
q-4 -29 -7 -36t-7.5 -28.5t-9.5 -58.5t-7 -47l-6 -49l-23 -131l-6 -25l96 4h134zM88 -6h-22q-25 0 -21 29l10 53l8 37q5 33 9 44t4 17l2 2v6l12 72q0 8 4 33l6 26l2 4v17q3 36 19 115q0 18 6 30v4q8 49 12 97v2l4 18l7 51q4 40 15 100t16 103t12 66q8 94 20 144t12 71l13 65
q8 24 8 39l8 45q2 16 10 66l12 55l7 25q6 6 34.5 8t34.5 -2q14 -40 18 -60t4 -22l6 -36q3 -16 7 -63q12 -70 27 -227l24 -151q4 -18 8 -68v-8q6 -25 7 -76l2 -29l2 -12v-12q0 -36 6 -68l6 -92l8 -68l6 -86q0 -24 4 -44q3 -20 5 -44t3 -56t8 -66t11 -78l6 -50q0 -23 -14 -26
h-35q-16 0 -16 16q1 16 -7 42t-8 63q-14 103 -14 147v14q-4 25 -8 93v6l-10 2l-168 -2q-28 0 -56 -4q-8 -4 -14 -4l-8 -74v-25l-2 -14q0 -39 -6 -57q0 -10 -4 -27l-19 -88l-8 -43q-5 -13 -9 -29t-26 -16z" />
    <glyph glyph-name="uni000D" unicode="&#xd;" horiz-adv-x="385" 
 />
    <glyph glyph-name="space" unicode=" " horiz-adv-x="385" 
 />
    <glyph glyph-name="exclam" unicode="!" horiz-adv-x="243" 
d="M152 1423v-163l-2 -50q2 -29 2 -104l2 -35v-33q2 -25 2 -81t2 -78v-91l-2 -28v-66q-2 -31 -2 -108v-94l-2 -17v-61l2 -4v-7q6 -29 -8 -37t-37 -8q-23 10 -23 56v8q0 41 4 143v2q-2 2 -2 4v451q-2 41 -2 143v226l-2 10l2 18q35 35 66 4zM160 61q0 -59 -16 -59q-6 0 -19 -2
q-12 -2 -33 18q-6 25 -3 62t3 90q-4 18 1 37t57 6q10 -19 8 -39v-18l2 -37v-58z" />
    <glyph glyph-name="quotedbl" unicode="&#x22;" horiz-adv-x="370" 
d="M150 1178q0 16 10 32l8 23q0 8 5 18.5t10 28.5t12 25h-2l73 153q9 17 21 17l12 2q23 6 33 -13h-2q8 -8 -2 -26q-10 -31 -17 -48q-8 -16 -20 -49l-31 -69q-6 -6 -6 -17l-35 -79q-7 -45 -38 -29.5t-31 31.5zM37 1171q0 13 12 37l19 43l14 41l12 31l27 88q4 16 16.5 38
t20.5 24h2q53 6 55 -23q-1 -16 -8 -27q-6 -12 -6 -14l2 2l-11 -23q-7 -14 -10 -26l-10 -21q-2 -6 -8 -18l-29 -84v-2l-8 -20q0 -2 -7 -12.5t-9 -14.5l2 2l-15 -25q-2 -14 -16 -20q-45 -4 -45 24z" />
    <glyph glyph-name="numbersign" unicode="#" horiz-adv-x="657" 
d="M375 942q0 6 6 37v12l3 36q3 36 34 42q14 0 24.5 -6.5t8.5 -18.5t-3 -16l-3 -37q-3 -33 -5 -48t-5 -49t-5 -50q12 -4 75 3q61 7 79 -1t8 -47q-4 -10 -94 -11h-23q-37 0 -55 -2q-2 -8 -2 -43l-2 -26h4q16 -4 26 -4h76q54 -1 58 -9q11 -20 -3 -39q-13 -19 -32 -17t-25 3
l-4 1l-35 -1h-14l-18 2h-21q-8 2 -22 2q-2 -6 -3 -18v-10l-6 -29q-2 -40 -14 -109t-14 -112q-14 -12 -35 -11t-31 13l10 82l6 35q10 52 19 163l-43 -2h-6q-2 -12 -2 -22l-8 -45l-19 -98l-6 -23l-10 -66q0 -25 -19 -37t-47 11q-2 23 4 53l15 90l4 12l6 66q2 4 2 6l8 55
q-27 0 -37 -2h-12q-61 -4 -86 0q-25 14 -25 50q0 12 3 12h22l4 2h139l13 57v4h-23l-27 2h-24q-43 0 -68 2q-12 6 -12 31v10q14 16 43 11q25 4 80 4h16q14 0 29 2q14 63 14 139l4 39q0 31 10 41t31 6t21 -16v-11q-4 -20 -4 -65q-4 -29 -4 -41l-11 -88q0 -2 2 -4h9q6 0 21 -3
t17 -1q9 36 9 67l2 19v4q2 6 2 12zM297 715q2 0 35 4h14q8 33 8 69h-45q-12 -48 -12 -73z" />
    <glyph glyph-name="dollar" unicode="$" horiz-adv-x="573" 
d="M322 1335v-18l-3 -2v-39l-2 -33q-2 -25 -2 -68q0 -131 -6 -161l-2 -49l-6 -101q10 -20 16 -26l17 -23q18 -43 49 -86l16 -24v2q12 -18 39 -72q11 -14 21 -45l30 -62v2l17 -36q8 -20 8 -36t6 -38q6 -23 6 -114t-45 -177q-8 -12 -43 -47h2q-13 -27 -50 -43t-68 -16h-27v-52
q0 -25 -12 -45q-3 0 -7 -2h-14q-23 4 -26 51l-3 56q-4 2 -31 12t-42 23q-14 12 -34 24t-28 29l-8 10q-18 37 -18 77t4 52t6 23t8 28q14 20 44 5t24 -36t-13 -36q-8 -71 5 -84l14 -21q0 -2 8 -6q31 -27 59 -33q7 64 0 129q-6 64 -6 127l2 49v52q-4 76 -2 112l4 58l4 26v17
q2 8 3 18v111l-3 30v25q-6 8 -17 26.5t-13 20.5l-10 16l2 -2q-55 81 -59 100t-11 36q-2 16 -8 20q-23 63 -17 115q6 53 6 63t9 27l-2 -2q2 4 2 12v4q2 4 5 16t29 47q25 36 72 52l4 2h8q12 4 19 4q2 10 2 27v24q0 23 2 31v8q0 25 6 35q4 4 27.5 4t34.5 -4q8 -14 4 -53v-8
l-2 -11q0 -35 -2 -51h4l45 -14q37 -12 57 -43q27 -33 27 -81t-15 -61q-27 -2 -33 1.5t-6 17.5l-2 37q-4 28 -4 34t-8 15q-16 33 -45 33l-20 4q-2 -6 -2 -19zM295 166q0 -52 -2 -84h16q18 0 45 18l23 13l24 24q3 2 5 7t7 13.5t7 11.5t6 10t6 8t2 5.5t2 4.5l-2 -2q17 39 17 59
q6 18 6 47v64l-2 18l-2 23v10q-7 14 -7 22l-18 72q-8 35 -18 45l-88 158q-4 6 -12.5 21.5t-10.5 17.5v-13l-6 -123v-18l-2 -23q-8 -219 2 -319v-20q2 -18 2 -70zM250 1317v4q4 8 4 20v13q-36 -12 -44.5 -24.5t-8.5 -14.5l-6 2q0 -10 -15 -43v2q0 2 -2 -4q-2 -8 -2 -11
t-10 -28q-9 -54 -1.5 -85.5t7.5 -37.5l4 -25v-2q12 -12 12 -26l13 -27q8 -16 14 -31l25 -47l2 92q0 94 4 140v53q4 49 4 80z" />
    <glyph glyph-name="percent" unicode="%" horiz-adv-x="778" 
d="M754 285v-2q2 -4 2 -7v-10q6 -111 -35 -180v2q-20 -40 -33 -48q-12 -8 -22 -18t-29 -14q-18 -4 -25 -10q-25 -10 -71 -10q-94 2 -154 108q-20 35 -27 113v49l2 14q0 2 3 7v10q4 37 4 49l8 20q11 32 37 62l32 31q8 8 20.5 14t15.5 8t16 2t20 3q6 3 35 3q12 -6 33 -6
q4 -4 32 -10t66 -45l16 -19q0 -2 6 -9l15 -15q14 -14 20 -27l9 -31q4 -25 4 -34zM240 1012h-58q-2 2 -4 2h-10q-6 2 -22 4t-24 6l-20 10l-28 19l2 -2q-27 7 -47 61q-26 112 -4 168q0 20 4 28t9 22t17 30t18 28l11 22q4 8 33 24t85 16t117 -45q66 -55 66 -139v-11
q0 -120 -33 -172v2q-18 -31 -63 -53q-7 0 -15 -8zM512 1037q0 -19 -6 -25l-43 -123q-4 -4 -4 -5l-2 -14l-17 -34q-3 -9 -10 -23l-2 -8q-4 -4 -4 -10q-6 -5 -22 -61l-22 -80q-8 -29 -23 -60q-15 -30 -15 -39l-8 -27q-2 -4 -2 -6l-6 -16l-25 -62l-2 -6q-1 -4 -25 -84t-53 -159
l-31 -97q-2 -2 -4 -13t-10 -30.5t-8 -21.5l-16 -29q-18 -8 -42 -2t-30 23q0 29 18 55l15 31q18 63 25 79l10 24q10 24 12 30l45 129l24 78q8 31 16 47q9 16 9 20v6q2 4 2 8l14 39q21 66 31 84q10 19 33 84q0 14 16 49t17.5 42.5t29.5 88.5t33.5 98t11.5 31l31 76q0 11 4 16
t8 15t7 14l12 31q2 12 21 68t35 92t18 53q0 17 14 23t33.5 0.5t23.5 -19.5v-2q2 -17 -8 -43l-15 -41l-27 -67t-26 -72l-6 -21q-3 -16 -10 -27t-14 -32v2q-4 -4 -4 -12q1 -8 -13 -28q-14 -18 -14 -37zM684 198v15l2 2v64q-2 10 -14 34q4 12 4 17l-10 -2q-25 49 -67 69t-81 15
l-20 -9l-23 -22q-11 -11 -14 -19q-20 -29 -29 -102q-6 -98 27 -143l26 -33l11 -10q33 -33 81 -21t82 66l13 28q12 31 12 51zM291 1325q-45 61 -101 61q-20 0 -23 -2t-15 -8q-30 -16 -46 -72t-16 -120l12 -49q8 -23 12.5 -26t6.5 -5l18 -14q56 -24 101 -11l4 -10q32 10 32 13
t-20 3l-4 -2q7 7 11 12t16 13l24 57l8 47l-2 -4q8 56 1 74t-21 43h2z" />
    <glyph glyph-name="ampersand" unicode="&#x26;" horiz-adv-x="702" 
d="M549 487q0 48 31 58q45 4 53 -25q-2 -25 -6 -36t-6.5 -19t-4.5 -12l-6 -23q-4 -16 -4 -46t-14 -62q-14 -34 -14 -62l77 -188q0 -2 4 -6t9 -13l10 -18h-2q10 -14 10 -33q-6 -23 -45 -22q-19 6 -25 36l-4 9v-2l-14 32l-14 23l-15 28l-10 25q-6 6 -7 12t-4 10.5t-6 9.5t-5 7
q0 -2 -5 -6q2 0 -2 -7t-16 -36q-18 -27 -22 -38t-28 -35t-30 -25q-48 -48 -131 -43q-19 0 -61 12l-23 6q-2 2 -10 6l-19 10q-20 19 -24 21l2 -2q-10 4 -21 18l-34 47q-5 5 -13 23l-14 31q-27 66 -27 166t26 185t52 150q22 42 42 86q20 43 36 68l-2 -2q0 2 6 13t8 13l19 29
l30 39q2 2 9.5 11.5t9.5 11.5q4 4 6 8q0 41 -6 47v2l-6 57l-2 4q0 33 -6 82q-6 48 -2 80l2 21v18q0 12 4 25q10 82 47 131t96 49h14q25 0 25 -4t2 -4q4 0 14 -6l-2 2q18 -12 27 -21q53 -43 49 -149l-6 -47q-16 -81 -59 -146q0 -2 -3 -2l-3 -9q-3 -10 -15 -21t-12 -13t-3 -5
t-7 -11l2 2l-78 -111q14 -113 73 -278l19 -54l12 -30q0 -3 8 -19l21 -59q2 -19 10 -34t16 -38l7 33l6 37q2 6 2 10l2 10v8zM254 57q48 -16 65 -16q40 0 101 51q53 65 80 172q-2 14 -12 39t-9 47v2v-2v2q-4 12 -12 29l-21 45q0 16 -12 43t-21 53t-14 35v-2q-4 6 -6 14.5
t-4 10.5l-35 116q-4 12 -9 24t-9 26q-4 12 -4 18t-2 8l-8 45q-1 11 -5 17t-4 8q-16 -20 -26 -43l-13 -25q-18 -22 -20 -29l-57 -139q-7 -14 -23 -61q-23 -45 -22 -51v-13q-2 -4 -2 -8l-5 -27q0 -12 -4 -28l-4 -27q-10 -42 -4 -125q7 -83 39 -128q31 -44 39 -54q2 0 9 -7
t7 -16l6 7l21 -13v2zM373 1323v-2q-2 -2 -2 -4l-4 -17q-27 -78 -24 -148t17 -148q2 2 5 4l2 4v-2l4 8q0 6 6 10t16 20t26 32q15 16 39 72q44 105 23 179q-22 73 -71 43q-37 -26 -37 -51z" />
    <glyph glyph-name="quotesingle" unicode="'" horiz-adv-x="231" 
d="M147 1346q0 -7 -18 -53q-18 -45 -24 -67t-21 -24q-49 -4 -49 25l2 18l41 101q10 31 25 87t38 62h2q53 6 56 -22q-2 -26 -8.5 -32.5t-6.5 -8.5l2 2l-11 -23q-7 -15 -9 -27l-10 -20q-2 -6 -9 -18z" />
    <glyph glyph-name="parenleft" unicode="(" 
d="M84 604q0 14 2 19l-2 26v113l2 4v12q-2 4 -2 6l6 76v39q0 21 1 29l5 55q0 12 2 16v13q0 30 8 50t8.5 26t2.5 8l6 22q4 8 4 9.5t8 21.5q0 9 1 13t10 24t16 41l18 45q24 48 42 68t22 28l20 27q11 11 22 26q11 14 23 21l10 10q20 10 42 2t24 -31q-2 -37 -53 -67
q-17 -7 -39 -35q-17 -15 -23 -37t-26 -53q-30 -30 -49 -109l-9 -26q-2 -4 -2 -9l-10 -65q-4 -12 -4 -35l-4 -51l-2 -23v-16q-16 -284 -3 -408q14 -124 17 -133l8 -41q6 -27 10 -35t7 -18q2 -10 8 -22t10 -30t15 -28l26 -47q5 -10 17 -26q20 -37 30 -46l51 -53l-2 -2
q26 -8 43 -26q14 -10 27 -11q41 0 45 -28l-10 -31q-10 -4 -42 -4t-75 43q-16 12 -24 17t-12.5 10.5t-28.5 24.5t-63 77q-40 59 -56 100l-41 125q-8 8 -8 21q-25 72 -25 163v76q-4 25 -4 39z" />
    <glyph glyph-name="parenright" unicode=")" 
d="M397 590l2 -19l-6 -77v-39q0 -20 -1 -29l-5 -55q0 -12 -2 -15v-12q0 -21 -8 -45q-8 -25 -8 -31t-2 -10l-7 -22q-4 -8 -4 -11l-8 -20q0 -8 -1 -10t-4 -10.5t-9 -22.5t-12 -35l-19 -43q-25 -54 -42 -72t-21 -26l-21 -27l-6 -6l-14 -19q-12 -16 -25 -22l-10 -10
q-20 -10 -42 -2.5t-24 30.5q2 37 54 68q18 7 38 35q18 18 24 44t32 52q22 31 43 102l8 27q2 4 2 8l10 68q4 12 4 33l4 51l2 22v17q14 320 1 426q-12 107 -15 116l-8 41q-7 30 -10.5 38.5t-3.5 11.5l-17 45q-8 29 -18 36l-27 48q-2 4 -3 7l-24 36q-12 20 -20 30l-51 51
l-27 19q-20 20 -51 20t-35 29l10 31q10 4 42 4t75 -43l29 -21q4 -2 38 -32t36 -35q67 -98 82 -137q14 -40 24 -76l7 -24q7 -25 9.5 -27t4.5 -10.5t4 -10.5q25 -74 24 -166v-73q4 -26 4 -54l-2 -2v-4l2 -26v-111z" />
    <glyph glyph-name="asterisk" unicode="*" horiz-adv-x="507" 
d="M113 1257v3q-26 7 -27.5 16.5t-1.5 19.5q4 25 45 21h12q6 0 39 2h8q-14 4 -18 14q-12 7 -26 21t-34 28q-18 14 -16 31q2 18 23.5 24.5t29.5 -3.5l17 -17q25 -20 49 -49v8l-2 15l-2 39q0 8 17.5 11t35 -2t17.5 -14v-63q14 14 20 22l14 21l29 25q6 6 26 8t29 -18
q10 -20 -20 -46q-6 -10 -19 -19t-21 -17q-7 -7 -11 -7q14 0 26 4q57 10 70 -20q13 -23 -12 -37h2q-10 -6 -47 -6h-31l-4 2h-6l24 -25l23 -20l14 -15q43 -30 26 -60t-57 -3q-12 10 -51 51l-14 23h2l-8 14q-2 0 -2 2v-6q4 -20 -2 -39v-16q1 -39 -15 -43t-37.5 6t-21.5 28l2 13
v12q0 6 4 25v2l-39 -47h2q-14 -25 -27 -25q-20 -6 -36.5 3.5t-16.5 21.5t17 28l18 19q11 12 25 22t20 17l-20 -5h-41z" />
    <glyph glyph-name="plus" unicode="+" horiz-adv-x="325" 
d="M80 653h61v9l2 14l-2 -4q-4 66 2 96q20 14 44 2t16 -86v-35q8 -2 20 -2h8l21 -2l-6 2q31 8 41 -10q2 -4 -1 -21.5t-7 -19.5q-33 -12 -80 -4q0 -16 2 -23v-22q3 -39 -11 -46t-34 -3q-14 8 -14 32t-3 41v17l-2 10h-35q-55 -4 -61 6q-12 25 0 41h-2q8 13 35 10h2q2 -2 4 -2z
" />
    <glyph glyph-name="comma" unicode="," horiz-adv-x="253" 
d="M197 59q0 -17 -3 -21q-18 -23 -40 -77l-25 -49q-10 -31 -12 -33t-8.5 -21t-20.5 -24q-35 -2 -44 14t5 35l12 27q0 7 5 14l30 64q4 8 11.5 21.5t9.5 21.5l20 41q2 8 13 14q47 0 47 -27z" />
    <glyph glyph-name="hyphen" unicode="-" horiz-adv-x="503" 
d="M59 647l74 -4l227 6q29 0 64 -4t39 -33q2 -23 -11.5 -27.5t-43.5 -4.5l-21 2h-283l-12 2h-12q-23 -2 -41 22q-7 31 18 41h2z" />
    <glyph glyph-name="period" unicode="." horiz-adv-x="186" 
d="M152 35q0 -3 -5 -10q1 -13 -23 -25t-38 -8t-39 18q-4 4 -4 6l-14 19q-6 27 -4 39t18.5 28.5t34.5 17.5q58 3 69 -22q25 -43 5 -63z" />
    <glyph glyph-name="slash" unicode="/" horiz-adv-x="679" 
d="M543 1440q0 4 7 17t11 13q24 9 53 -14q12 -10 -10 -63l-12 -29q-9 -38 -14 -45.5t-6 -11.5t-13 -35l-31 -92q-16 -45 -22 -68l-27 -80l-22 -57q-16 -41 -29 -80q0 -26 -39 -104q-2 -12 -8 -26t-10 -40l-9 -25l-26 -100l-57 -199q-53 -170 -109 -276q-4 -9 -12 -35l-8 -24
q-7 -25 -7 -27l-18 -49q-13 -39 -25 -33q-8 4 -14 4q-33 4 -33 21q10 10 10 32q3 10 15 58t24 71q2 21 10 35t14 29q5 15 11 22l29 62q20 49 37 115q18 51 33 112t37 121l30 82q2 8 8 27l13 45q12 33 26 81l15 37l20 64q7 29 25 73t36 115q37 110 58 178l12 31q4 16 11 30
t8 23q4 8 8 13v2z" />
    <glyph glyph-name="zero" unicode="0" horiz-adv-x="475" 
d="M203 1448l45 -2l4 -2q32 0 40.5 -9.5t13.5 -11.5q4 -2 10 -10l16 -21q10 -14 16 -40l10 -60l2 -2v-14q0 -10 4 -27q6 -28 5 -69v-25l4 -43l2 -29q-6 -29 6 -112v-64q0 -39 4 -43v-8q2 -4 2 -6v-37l-2 -16q5 -51 2 -64v-10q-4 -45 2 -86v-68l-2 -12v-14q2 -14 -2 -35v-33
q-2 -10 -2 -33v-20q2 -12 -2 -37v-18l-2 -68l-2 -2v-23q0 -20 -2 -28v-17q0 -24 -7 -45q-7 -20 -12 -41l-4 -30l-16 -56q-3 -19 -10 -24.5t-9 -7.5q-31 -47 -67 -47t-57 10q-88 46 -91 176q0 27 -4 44q-8 34 -8 290v55l-4 92v70l-2 24q-2 35 2 93t4 81l-2 58l6 39v45
q4 41 6 133t19 162q6 41 28 73v-2q6 16 31 23zM145 293q0 -54 9 -103v-34l8 -33q2 -3 2 -6v-8q0 -7 14 -35l19 -27q25 -32 67 -10q25 23 33 82l4 22l16 68l2 6q0 14 5 27v4q4 8 4 86l2 26v27q0 63 4 186v76l-2 49v45l-2 54l-2 36q0 37 2 39l-6 148q0 70 -5 104v25
q-8 106 -14 153l-6 17l-6 29l-9 19q-10 20 -38 28q-27 8 -37 5t-25 -32q-20 -59 -24 -100v-9q-4 -32 -4 -96l-2 -33v-14l2 -12v-10q0 -20 -4 -62l-2 -29q-4 -25 -5 -34v-25l2 -8v-31l-2 -20v-41l-4 -84v-17l2 -4v-16l-2 -33v-86q2 -25 2 -90v-29l2 -43v-55l2 -29v-22l-2 -33
v-8z" />
    <glyph glyph-name="one" unicode="1" horiz-adv-x="270" 
d="M80 1434q88 9 88 -27v-10q-9 -18 -4 -58l-2 -16v-211q-2 -12 -2 -43v-57q-2 0 0 -43v-258l2 -52v-24l-2 -66v-51l2 -14v-12l2 -25v-131l-6 -162v-43l-2 -14v-23l2 -22l2 -15v-51q0 -14 -33 -14q-40 0 -33 39v3l4 29v46l-2 26v12q0 39 2 58l2 22q2 27 2 81t2 79v121l-2 22
v26l-2 106v10l2 16v189l-2 4q0 33 2 39v16q0 42 -3 68t1 57l2 39v78l-2 43v157q0 2 -37 2l-16 -2q-16 0 -26 4q-9 4 -7 24t5.5 24t11.5 4h49z" />
    <glyph glyph-name="two" unicode="2" horiz-adv-x="559" 
d="M535 55q24 0 24 -8l-2 -41q-8 -8 -31 -8l-18 2h-14q-29 -2 -97 -2h-47l-61 2h-76l-20 2h-17l-22 -2h-29l-51 4q-6 -4 -11 -4h-26q-12 0 -12 20t10 39v-2q2 0 13 44t46 102l-2 -2l21 47l12 31q2 10 16 38l13 29q2 6 17 36t19 46l25 53q25 53 98 297l19 66q20 27 20 57
l15 55q35 126 35 220t-29 124q-14 27 -39 54q-80 61 -189 10l-14 -6q-2 -2 -7.5 -5t-13.5 -11t-11 -11.5t-11 -11.5t-14 -17.5t-17 -9.5q-12 0 -26.5 9.5t-14.5 17.5t17 24l14 15q2 2 6.5 7.5t13.5 11.5q9 7 13 12q53 53 160 53q51 0 77.5 -10t56.5 -34t38 -36t13 -28
t21 -46t17 -112v-13l-2 -24v-17q-1 -79 -31 -168t-58 -189.5t-46 -152.5t-90 -225.5t-86 -202.5l-13 -26q-2 -4 -8.5 -20.5t-17.5 -33.5q-12 -18 -13 -49q10 0 15 -2h10l16 2l70 -4l51 2h72l4 -2h12l27 4l51 -4q12 -2 41 2t43 4l12 -2h13z" />
    <glyph glyph-name="three" unicode="3" 
d="M92 1323q-20 -20 -25 -20t-17.5 9t-14.5 17l2 -2q-7 10 3 20q9 9 11 9t2 1t10 11q1 12 27 31q26 20 60 31h2q2 2 22 8t51 4q32 -3 41 -11q10 -8 20 -9t27 -9h-2l23 -16l39 -39q18 -18 28 -45l5 -15q6 -16 9 -27t3 -61v-34l-2 -35v-15l-2 -20q3 -46 0 -52l-23 -51
q-6 -13 -6 -18l-8 -18v-2q-2 -2 -2 -4l-8 -21q-1 -3 -12 -23t-11 -26l-4 -8q0 -13 -18 -31l-17 -25l2 2q-6 -11 -17 -18.5t-11 -9.5l-27 -21h4l18 -6q6 -4 20 -7t22 -13t14 -16.5t6 -9.5t23 -30t41 -101q18 -75 18 -101v-11l2 -22q4 -49 2 -70v-2q-2 -2 -2 -4v-16
q0 -5 -4 -29q0 -75 -33 -172q0 -6 -27 -72v-2q-2 -2 -4 -9l-20 -30q-49 -59 -137 -59l-13 -2h-30q-49 0 -101 51q-19 19 -28 41l-5 4q-8 18 -2 25q20 18 45 14q13 -12 13 -14l10 -15l12 -12l6 -12l25 -17q16 -10 59 -10t86 31q2 2 15 14t30 56q21 56 33 131l2 4v14
q0 18 4 35t4 72v18l-10 127l-2 2v2q-23 86 -43 109q-4 4 -19 28q-15 23 -67 37h-8l-18 2q-39 -6 -47 1t-9 30q-6 27 17 27q14 0 22 4l-2 -2q63 45 94 79q4 6 43 84l35 99q4 16 8 24l6 27l2 12v45l-4 51q-4 37 -8 60l-12 35q-2 10 -19 28l-10 6l-14 13q-4 2 -9 4t-20 12
q-58 19 -78 10l-2 -2h-4l-18 -6l-41 -20l-14 -15l-13 -8q-4 -4 -4 -8z" />
    <glyph glyph-name="four" unicode="4" horiz-adv-x="561" 
d="M451 1411v-143q0 -45 3 -80t-1 -80v-39q-2 -20 -2 -61v-60q-2 -35 -2 -129v-35l2 -39v-65q-2 -76 -2 -244l2 -18v-47l-2 -17v-309q0 -35 -9 -41q-25 -16 -39 -6t-14 20v156q2 84 2 260v23l-2 22v41l2 33v31q4 47 0 92h-22q-35 4 -121 4l-21 2h-80q-47 -4 -59 14h2
q-6 10 -2 39v6q2 4 2 7v262q0 45 -2 67v25l-2 28v93l2 22v35l-2 4v31l2 22v19l-2 33v14q0 29 14 33q4 2 41 0q6 -6 6 -37l-2 -19v-28l-2 -35l2 -27v-43l2 -24v-105l2 -14v-2l3 -6v-269q-2 -8 -3 -39v-10l3 -16l-3 -6v-17q7 -2 29 -2t29 -2h57l43 -2q70 0 82 2v58
q4 201 8 284v45l-2 45q-4 47 0 93v67l-2 12q0 14 -3 44t1 36q6 6 25.5 8.5t27.5 -3.5t9 -13z" />
    <glyph glyph-name="five" unicode="5" horiz-adv-x="667" 
d="M608 606l-4 -51v-35l-6 -37q0 -41 -6 -59q0 -35 -6 -47l-2 -9l-9 -49l-24 -98q-18 -77 -30.5 -98t-16.5 -29t-6 -10t-6.5 -9t-6.5 -9l-26 -29q-8 -12 -23 -19l-24 -14l-50 -8h-8q-8 -2 -14 -2h-25q-63 -2 -121 32q-8 4 -10 7l-8 4l-8 8q-4 0 -14 10l-25 21q-28 28 -37 41
l-14 18q-10 14 -10 29l-2 2q0 2 -2 7t4 30q4 8 34 8l2 -2h2q18 0 19 -19v-8l4 -10q6 -6 6 -14h-2q2 -2 8 -13t9 -14l18 -16l10 -6l23 -19l10 -4q15 -15 55 -35l-2 2q8 -4 33 -4h45q61 0 98 51q31 31 82 265q6 12 6 28q23 160 17 303v15l-2 12q-4 76 -15 127l-14 49
q-1 5 -6 16l-8 19q-20 57 -41 78l-15 18q-34 34 -58 46q-23 12 -38 22t-61 10h-25q-72 0 -108 -18q-8 0 -19 -11q-9 -4 -27 -3t-28 22l-2 78l-4 38v48q4 8 -1 40t-5 58v12q-10 37 8 60q25 4 55 0l4 -2h90l35 2l6 -2h6q18 -4 35 -2t78 4h115q14 0 23 -13t6 -31t-27 -18h-27
q-12 0 -42 4t-48 2l-53 -6l-39 2h-31l-14 -2q-16 0 -33 -4h-29q-27 -4 -51 0h-2q-4 -29 4 -57q7 -64 4 -94q-2 -31 2 -68q4 2 17 2q30 10 114 10h23l43 -2q4 -2 9 -3t38 -14q33 -14 68 -48q55 -33 98 -134q18 -49 37 -127q8 -63 8 -77l10 -90v-58zM201 23q0 -2 2 -3z" />
    <glyph glyph-name="six" unicode="6" horiz-adv-x="616" 
d="M573 414v-37q-2 -4 -2 -32t-14 -64t-14 -39l-6 -37l-5 -12q-4 -4 -4 -9l-18 -53l-16 -22q-8 -8 -34 -41t-50 -48l2 3q-37 -25 -70 -27h-25q-56 0 -84 20q-2 2 -14 9l2 -2q-29 10 -55 55h2l-29 47q-29 29 -47 174q-6 47 -6 152v32l-2 31v68q0 94 12 274l4 33q0 20 4 41
l5 57l8 68v18q0 14 2 19v2l2 4l2 18v4q2 4 2 8l20 78q0 8 5 21q12 57 49 114v-2q10 25 47 62l18 16q31 19 72 19t41 -23q0 -18 -4 -22.5t-15 -4.5l-30 -2l-17 -6l-10 -10l-20 -16l-15 -15q-24 -36 -28 -49q-6 -6 -6 -8t-15 -33q0 -10 -2 -14v2q0 -2 -2 -2l-25 -111
q2 -4 2 -9t-4 -24t-8 -35t-7 -52t-5 -48l-6 -67q-2 -14 -2 -45v-13l-2 -16q0 -33 -4 -49q2 -25 -2 -53q2 2 7 12t15 20l18 21q18 18 41 27q61 16 134 6l28 -9l2 -2h4l21 -8q8 -4 22 -9t31 -21l37 -37q4 -7 8 -11t10 -16h-2l9 -8l8 -19l8 -28q22 -61 22 -215zM162 622
q0 -10 -4 -14t-6 -24t-4 -34t-3 -24v-92l2 -37v-18l3 -17v-16l8 -76l2 -22q6 -24 6 -31l8 -33q2 -8 16 -32l15 -23l6 -14q2 0 2 -7t16 -20q1 -10 19 -16t22 -11l17 -8q4 -4 6 -4t4 -2h16l11 2h6q90 35 126 115q2 6 7 10q0 7 10 29q2 20 8 30q0 17 8 35q29 67 29 162
q0 96 -16 156v-2q-2 4 -4 26t-17 47l-16 25q-6 6 -10 15q-5 9 -23 17t-20 10q-2 1 -11 5t-22 6q-25 12 -64 13h-8q-23 0 -34 -6t-16 -5q-5 0 -7 -2l-31 -24l-10 -6q0 -2 -21 -29q-10 -19 -18 -32t-8 -22z" />
    <glyph glyph-name="seven" unicode="7" horiz-adv-x="798" 
d="M137 143l-22 -37l-6 -12q-6 -6 -9 -18q-10 -10 -10 -21l-8 -16q-4 -4 -8 -14q-6 -27 -26 -27t-36 15t-4 34l-2 -2l12 18l6 11q5 12 7 13t4 6t4 5l6 15q12 16 29 45l26 43q2 4 6.5 10t4.5 8l25 48q9 11 16.5 25.5t11.5 20.5l14 21q2 2 2 4l6 18l82 144l13 22h-2
q23 39 44 84l63 132q27 54 36 66l47 73v-3q0 2 4 11q0 10 10 20v2q3 3 9 13h-3l9 12l43 92l15 32q16 31 34 62t38 80q20 50 28 66l34 61q8 27 16 36t9 11h-23q-51 2 -155 2l-52 2h-53q-76 2 -231 2h-13q-50 -8 -65 -2q-14 2 -14 25v12q0 18 26 19h78l43 2h35l41 2
q31 0 100 -4h135l6 2h56l18 -2l86 2l33 2q25 0 31 -29q2 -14 -6 -31l-60 -100q-6 -10 -33 -68l-2 -2q0 -2 -18 -45t-35 -71l-45 -84q-10 -16 -17 -34t-16.5 -34t-13.5 -25l-117 -231q0 -2 -2 -2l-2 -4q0 -2 -10 -16.5t-14 -24.5l-35 -68l2 2q-2 -4 -8.5 -14t-8.5 -14
l-149 -273q-8 -8 -21 -16h9l-19 -43q-4 -4 -4 -8l-14 -23q-1 -1 -21 -35z" />
    <glyph glyph-name="eight" unicode="8" horiz-adv-x="661" 
d="M82 436q0 70 4 139v11q8 92 23 127q0 6 4 10v4l14 33l6 16q0 14 29 43l20 21q12 12 21 16l-2 -2l12 6h2q-14 8 -18 17q-15 13 -23 25q-8 11 -15 17.5t-12 14.5t-8 10q-5 5 -16 23l-19 37q-8 25 -8 30l-4 58l6 71q0 39 18 78t25 62q27 55 86 104q5 5 19 12q20 16 43 21h10
q14 4 40 4t36 -7t39 -20q30 -13 49 -51l10 -12v2q44 -77 51 -174v-2q2 -4 2 -6v-95q0 -23 -15 -69t-32 -64h2l-26 -28q-23 -27 -43 -41l-19 -11q-4 -2 -8 -2q4 -2 10 -2l45 -26q4 0 11 -7l75 -86q23 -23 33 -47t10 -28t2 -6l7 -23q22 -99 22 -166l-6 -104q-4 -51 -12 -74
l-15 -49q-4 -12 -4 -17l-6 -32q-4 -12 -10 -27l-19 -31l-10 -20q-30 -50 -51 -74q-61 -70 -156 -55q-51 8 -77 21t-66 59q-38 46 -58 102q-20 54 -24 124t-4 140zM356 40q0 1 7 2l30 9h-2q18 10 41 37q4 8 6 10t2 4l17 23q5 15 16 33l-2 -2q4 8 10 24.5t11 24.5v-2q0 2 2 2
l2 4q0 4 6 14l-2 -2q4 12 4 19v4q2 4 2 11t4 11v6q4 8 4 15q27 106 27 229q-5 70 -27 128q-23 59 -33 68t-10 11t-2 4l-29 33q-23 29 -61 49q-37 12 -52 13t-22 5h-2q-4 2 -8 2l-41 -8q-25 -8 -27 -12l-14 -18l-2 -5q-2 -2 -7 -8q-15 -18 -18 -41l-14 -30v-2l-2 -5
q-8 -16 -6 -14l2 2l-16 -78v-18q0 -29 -3 -41l-4 -51v-37l-2 -12q0 -50 4 -78v-15l2 -26q10 -145 67 -221q3 -4 9 -17q17 -20 23 -22q8 -2 14 -8q41 -35 94 -25q2 0 2 1zM338 1389h-10q-7 -5 -22 -6t-36 -17q-37 -19 -75 -96q-23 -40 -36 -106t-3 -111t45 -92l10 -17
q10 -10 13 -18q3 -9 51.5 -35t119.5 45l33 37l10 20q19 41 25 94v35q4 39 0 60v4q-4 8 -4 33l-4 20q0 17 -6 23l-7 24v2q-2 2 -8 25t-33 47q-20 10 -28 18l-6 2q-7 7 -29 9z" />
    <glyph glyph-name="nine" unicode="9" horiz-adv-x="727" 
d="M39 932v65l2 4v9q0 38 11 68t16 34v4q6 25 12 34t7 13t2 10.5t3 10.5l14 33q59 104 140 165q25 23 37 28t14 7h2q8 4 16 4h2q5 6 17 6t28 5l-2 -2q4 4 30 7t65 -5l2 -2h2q37 -8 49 -17v2q33 -21 42 -28q9 -6 40 -37l16 -19q8 -16 9 -15t7 -7t13 -21l6 -20q18 -40 18 -86
l5 -39v-107l-2 -57l-9 -25q-2 -6 -2 -28t-6 -35v2q-6 -18 -6 -47l-23 -107v-8l-2 -4v-6q-16 -85 -26 -109t-12 -28l-13 -39q-2 -2 -2 -13.5t-10 -29.5l-19 -51q-2 -6 -8 -21.5t-7 -21.5t-23 -46t-60 -131l-10 -12q-10 -12 -10 -14l-21 -25l-12 -18l2 2q-7 -14 -31 -43
l-18 -23q-5 0 -21 -28q-14 -15 -14 -17l-12 -12q-13 -22 -45 -43q-41 0 -47 12v2q-2 17 10 29l16 16l6 4l17 19l2 2q2 4 7 9t9 13l12 17l31 35q14 20 14 22l21 25l18 24q2 4 7.5 12.5t7.5 12.5l22 33l-2 -2l41 79l15 37q6 12 8 17l2 2q1 2 7 30t11 33v4l6 21q4 16 9 24
q12 48 28 92t25 80l-23 -22q-4 -2 -16 -10t-17 -11h-2q-21 -10 -72 -14t-80 -1l-39 4t-24 7h2q-6 2 -16 2l-27 5l-14 6l-16 10l-21 10q-65 42 -85 78q-27 50 -37 74l-13 53q-6 9 -6 39zM213 739q44 -22 82 -26h12q16 -4 21 -4h14l27 -2q23 0 39 -3q26 -4 88 31l20 21
q20 21 35 49l10 20l8 19l4 24q29 152 25 209v66l-4 49l-4 4v6q-10 43 -35 88h2q-29 37 -97 76q-18 10 -48 10t-71 -14q-40 -14 -50 -25q-62 -62 -80 -90l2 2q-6 -11 -16 -18q-14 -16 -21 -33q-78 -154 -70 -272q8 -63 50 -131h-2q-1 0 16 -17q18 -23 45 -41zM432 227
q0 2 2 4z" />
    <glyph glyph-name="colon" unicode=":" horiz-adv-x="196" 
d="M131 231v-26q4 -45 4 -80v-66q15 -29 -10 -57q-25 -12 -39 -3t-14 28v41l-2 30q-4 98 -4 168q4 18 40 15l5 -5h14q6 -18 6 -45zM57 997v2l2 5q0 18 11 24q39 4 47 -8h-2q12 -12 8 -41v-74q0 -45 2 -61v-8q4 -61 -4 -84l-60 8q-4 131 -4 237z" />
    <glyph glyph-name="semicolon" unicode=";" horiz-adv-x="247" 
d="M123 143v17q14 12 34.5 11t30.5 -13l-4 -39q-8 -41 -20 -69t-21 -55q-8 -26 -12 -30v-4l-20 -45v-2l-2 -4q-2 -18 -21 -43q-35 -10 -53 10q0 32 11 53t12 25q4 16 10 22q27 68 34 99l19 51v14zM106 891q1 49 2 66q2 17 -2 39t7 34q31 16 57 -14v-256q4 -31 -10 -47
q-27 -8 -54 18l9 8q-8 8 -9 25v127z" />
    <glyph glyph-name="less" unicode="&#x3c;" horiz-adv-x="790" 
d="M641 836h-10q-2 -1 -11 -4l-77 -25q-69 -28 -101 -35l-84 -29q-2 -2 -11 -5t-16 -6t-15 -5t-19 -6l-107 -39l-75 -23q12 -4 28.5 -9t77.5 -28.5t137 -39.5q12 -6 72 -22t65 -18l39 -12q20 -6 85 -22t79 -23l-28 -57q-20 10 -35 10l-25 6q-8 0 -13 3t-56 14q-53 10 -77 18
l-22 7q-22 8 -54 17t-48 15l-78 21q-113 31 -147 45q-12 0 -23 6q-14 0 -22 8h-2q-43 4 -52 29l2 -2q-8 12 0 28q-7 15 -2 29q18 23 140 55q10 4 23 7t24.5 7.5t16.5 5.5t38 15l45 16q16 8 32.5 13.5t20.5 7.5l52 20q88 25 129 41q72 28 88 23l-7 6q29 10 55 17.5t32 -39.5
q3 -21 -24 -27q-9 -2 -17 -6l-15 -4l-4 -2q-2 -2 -4 -2z" />
    <glyph glyph-name="equal" unicode="=" horiz-adv-x="1077" 
d="M938 520q-84 0 -161 -3t-133 -1t-142 2t-118 -2t-93 2l-23 2h-88l-33 2h-36q-27 25 -21 45q2 11 22 12t80 1t95 -2h24l23 -3h57l27 3h57l27 -3h53q12 4 29 5h59l21 -2h114q74 -4 162 6q47 0 49 -35q0 -29 -28 -33q-16 -4 -23 6v-2zM615 739q43 0 75 2t94 -2l23 -2h45
l25 -2h84q10 0 19 -15t3 -30v2q0 -4 -85.5 -12t-102.5 -4q-18 4 -54 4h-28l-29 -2h-55l-94 -6q-19 -4 -31 0t-15 4h-57l-20 2h-54l-53 4h-26q-53 0 -86 2h-9l-10 -2q-88 -10 -88 23t29 36q41 4 141 -2h16l68 -2h41l55 -2q36 -2 86 1t93 3z" />
    <glyph glyph-name="greater" unicode="&#x3e;" horiz-adv-x="796" 
d="M106 461h15q2 0 4 2h2q12 6 20 6l29 10q8 2 15 5l61 20q63 26 100 35l84 26q2 2 11.5 5t16.5 6.5t14 5.5l20 6q8 2 12 4l56 17q22 7 38 14l72 26q-30 8 -112 39t-128 39q-51 20 -133 41l-45 12q-12 6 -27 6q-121 33 -135 39l29 56q13 0 35 -11l24 -6l21 -4q31 -12 71 -18
t58 -12t28.5 -8.5t45.5 -13.5l47 -15h-2l41 -11l36 -12q113 -31 150 -45l25 -8q12 -4 14 -4q74 -19 55 -60v-24q2 -6 2 -8q-24 -16 -66 -26.5t-47 -12.5t-39 -12t-46 -17l-140 -51q-4 -2 -14 -6t-19 -9.5t-36 -11.5t-162 -55q-49 -23 -89 -18.5t-32 51.5q4 8 20 8z" />
    <glyph glyph-name="question" unicode="?" horiz-adv-x="505" 
d="M156 713q4 8 4 23t22 46l-2 -2q0 9 10 29l15 35q3 11 13 24q11 13 15 21l23 31l-2 -2q0 4 4 8t6 8l17 24q6 12 18 29t20 39l9 25l12 41q8 39 8 101t-14 97l-4 4q-6 2 -11 16t-45 44l2 -2q-55 25 -106 8q-29 -14 -49 -35q0 -2 -2 -6l-15 -31q-8 -12 -27.5 -15t-32.5 10
t-1 30q11 28 18 37l15 14q2 2 8 14t24 26t26 13q7 0 13 6q10 2 41 9q103 8 174 -74l27 -39l6 -10l13 -31l-13 -2l27 -74q0 -61 -25 -139q0 -6 -4 -14q0 -12 -7 -26t-12 -29q-10 -31 -67 -111h2l-20 -33v2q-4 -8 -13.5 -23.5t-15.5 -27.5t-11 -24.5t-7 -15.5t-6 -11l-9 -21
l-18 -74l-6 -30q-17 -69 -19 -217v-86l-2 -33l2 -8v-9q4 -29 -4 -41l2 2q-23 -39 -47 -21t-20 73q2 10 2 24v13q0 25 2 34v41q0 113 6 170l12 78q4 23 19 66v2zM193 86v-16q4 -35 -7 -58q-12 -10 -37.5 -8t-29.5 12q-8 25 -4 56v10l2 24l-2 5q0 3 -2 19t4 26q14 27 47 22
q27 0 29 -53v-29l-3 -8z" />
    <glyph glyph-name="at" unicode="@" horiz-adv-x="1105" 
d="M80 686q0 42 6 78q0 29 6 37l-2 4v6l8 16v7q4 33 13 51v16q-2 4 -2 6q12 16 14 25l6 22q6 20 8 23l6 24v7q12 23 13 34q14 33 16 52q11 22 14 22h-4q0 2 8 12t12 19q3 8 21 33v4l4 10l19 23l6 14q0 3 14 26q0 13 19 23h4q2 2 8 10t10 12t6 9l17 22q16 33 49 49l14 9
l-2 -2l15 6l32 16l11 6q8 0 12 4l33 11q2 0 26 12q10 0 31 4l33 4l12 2h43q14 0 26 5t68 -7l4 -2h4q67 -11 111 -66q4 -6 6 -8l51 -51l4 -10l15 -19q43 -49 43 -59l6 -18v-11q0 -4 9 -16t9 -44t4 -46q5 -14 7 -42t6 -52l4 -31q4 -53 -4 -109q0 -31 -4 -55v-12l-13 -70
l-14 -57q-2 -27 -10 -37t-10 -10l-17 -29q-2 0 -14 -25q0 -10 -8 -18t-9 -11q-1 -2 -15 -20q-13 -18 -16.5 -25t-7.5 -11t-22 -26q-18 -24 -54 -27t-54 4t-37 24h-9l-18 22q-8 8 -12 35h-2l-27 -22q-64 -51 -147 -31q-34 10 -50 18t-61 54l-4 2h-4q-8 6 -11 9l-49 52l-2 4
q-55 73 -8 219l14 33q0 4 5 8v4l14 21q0 8 10 18l2 6q16 26 58 64q23 29 57 41h4l4 2q4 0 8 4q6 0 22 9t64 5h4q4 -2 6 -2h11l24 -4q70 -10 88 -28l25 -19q10 -6 16 -16t13 -17l2 -12v-8q10 -64 3 -85t-7 -36l4 -43v-33q-2 -8 -2 -16v-14q0 -9 -6 -44t-4 -55t-1 -24v-2
l-2 -4q0 -6 2 -13v-4q2 -6 1 -10t2 -10t4 -13q4 -4 6 -12t20 -18h-2q18 -6 49 32q31 26 64 110q33 85 41 101q16 57 20 179v16l-2 14l-2 37q0 55 -7 75t-9 48q-6 20 -11 80l-12 24q-6 6 -6 19l-2 4q-10 0 -10 14q-2 2 -7.5 8.5t-7.5 8.5l-6 12l2 -2q-2 4 -16 18l-25 25
l-18 20l-25 19q-32 32 -71 39q-39 8 -107 -8l-14 -2q-19 0 -33 -7l-29 -10q-41 -12 -45 -16l-30 -10l-13 -5h2q-6 -6 -10 -6l-20 -14q-2 -2 -8.5 -8t-8.5 -10l2 2q-6 -14 -22 -23t-21 -22q-10 -12 -22 -37l-13 -23l-14 -22q-10 -16 -13 -20q-3 -5 -13.5 -18.5t-14.5 -31.5
l-10 -14v2q0 -2 -2 -2l-2 -4q0 -25 -6 -32t-6 -30v-4q-2 -2 -5 -22t-26 -74l-12 -29q-27 -74 -35 -119l-4 -30q-2 -8 -2 -35t-6 -42t-5 -34v-4q-2 -2 -2 -9t-2 -12v-2q-2 -2 -2 -4v-53q4 -63 10 -96q0 -25 9 -62l6 -32l8 -27v-12q6 -16 10 -43q4 -5 6 -15t4 -14l17 -37
q0 -4 4 -8q-2 0 -2 -5.5t6 -21.5l10 6l13 -20q12 -16 20 -25v-4q4 0 8 -3t8.5 -6t6.5 -5h-2q6 -6 14 -10l16 -15q5 0 21 -13t67 -32q90 -16 138 -22t114 16q4 8 8 4q4 4 19 11q14 6 16 6t6 2t17 8l10 8q12 6 19 13t12 8q6 6 14 10q18 18 24 19t15 14q16 14 36.5 21t31.5 -1
q37 -35 -37 -84v2q-14 -14 -17 -12q-12 -10 -18 -11t-11 -7t-15 -11l-29 -24q-27 -14 -52 -21q-10 -8 -24 -14q-2 -4 -8 -4q-27 -27 -50 -15q-16 0 -18 -2h-57l-43 6l-21 2q-107 16 -121 23h-4l-35 14l-25 12t-36 28q-14 17 -23 22q-12 14 -53 55l-18 19q-15 23 -19 49l-4 6
v-2l-18 45l-2 8v2q-2 2 -6 24t-10 28q-5 5 -11 18l-14 84q-4 30 -4 46t-2 28t-5 28q-3 14 0 32t3 46q0 27 6 61l4 23v10zM356 725q0 -10 -4 -14q4 -39 20 -71t36 -42q14 -10 14 -12l4 -6l25 -19q4 -4 21 -14t28 -10h6q43 -6 52 -3t24 13l20 10q12 10 16 12q4 4 12.5 16.5
t10.5 14.5l10 29q2 4 2 13q-1 9 7 18t8 28v12q-10 8 -2 22t8 26q0 14 4 63q0 76 -12 109q0 8 -11 28q-8 4 -14 4l-16 6l-9 5q-13 18 -55 18q-29 6 -84 -27h2q-45 -31 -80 -86v2q-25 -50 -27 -76t-7 -30v-4l-9 -27v-8zM213 207l-2 2zM215 205q-2 0 -2 2z" />
    <glyph glyph-name="A" unicode="A" horiz-adv-x="563" 
d="M92 324l17 90q0 25 5 47l6 29q7 30 7 40l12 52l4 28l7 29q7 22 12 68q4 45 16 102l55 338l21 102q9 26 16 115v29q0 27 13 43q41 12 61 -6l6 -35q-5 -56 6 -78v-14q0 -36 9 -66q10 -74 30 -162l19 -135l6 -72q0 -16 10 -61q12 -111 31 -213l12 -109l14 -106
q12 -72 27 -199l6 -43q0 -21 3 -32t5 -24t5 -25t4 -50q0 -4 -21.5 -9t-32.5 -1q-16 8 -16 34t-26 197q-26 172 -46 365q-16 4 -68 4t-106 -6h-10l-8 -2l-8 -33q-2 -8 -4.5 -15.5t-1.5 -10.5t-3 -10t-6 -40l-8 -55l-6 -49l-10 -60q-8 -37 -15 -82l-10 -53l-12 -43l-9 -35
q-8 -34 -9 -41.5t-3 -13.5l-6 -20q-11 -33 -37 -33q-12 0 -23 9t-7 28l12 43l3 12l7 34q2 9 3 14l11 42q9 31 13 49l6 29q12 48 12 70zM215 645l80 8h94q-8 68 -14 90q-8 76 -29 197q-16 163 -24 188q-7 25 -15 68l-3 -21l-23 -126q-8 -45 -17 -121q-14 -53 -14 -66
l-27 -151q-2 -12 -5 -28t-3 -38z" />
    <glyph glyph-name="B" unicode="B" horiz-adv-x="522" 
d="M461 395q0 -68 -8 -92q0 -11 -3 -25t-4 -30l-12 -37q0 -1 -18 -44t-35 -63l-49 -49q-8 -8 -22 -17q-14 -8 -26 -12t-36 -16h-29l2 -12l-28 -6q-20 -6 -47 -6t-37 22v-2q-7 12 -3 44t0 65v18l-2 21q0 29 5 65v197q4 45 4 67l-2 41v160l-5 238v145l3 16v33l-3 33v235
q0 64 23 64h35q104 0 186 -82l20 -20q19 -19 28.5 -27t11.5 -12l20 -35h-2q25 -33 35 -80q23 -66 12 -176v-8q-8 -37 -16 -60l-13 -37q-6 -27 -16 -39v2l-10 -18q-2 0 -2 -1.5v-2.5l-19 -29q-29 -43 -90 -92q-29 -18 -55 -29q12 -4 22 -11t19 -11v2q2 0 10 -6l27 -19l-2 2
q18 -10 47 -38l31 -37l20 -39q14 -14 25 -64l8 -61v-25zM416 1106q0 25 -2 39v6q-2 4 -2 8l-4 12l-7 25q-4 12 -6 21l-8 16v-4q-2 4 -7 15.5t-15 23.5l-37 45q-29 37 -52 45q-55 31 -114 35l2 -74v-100q0 -47 2 -66l2 -47v-51l2 -33v-264l2 -4v-9q20 -2 66 17q65 33 65 43
q42 21 72 90l10 27q10 26 22 54t9 116v14zM336 150q63 113 63 256q0 142 -98 206q-66 45 -131 58v-162q0 -41 -2 -57l-2 -70l-2 -12v-9q2 -31 2 -200v-109q23 -12 90 27q43 18 82 74z" />
    <glyph glyph-name="C" unicode="C" horiz-adv-x="595" 
d="M96 977v10q0 121 47 248q0 2 2 7t3.5 10t3.5 8l30 61q50 86 125 115q43 16 88 16t99 -29l-2 2q12 -6 18 -12l22 -22q43 -47 43 -103q0 -18 -4 -22l-39 -4q-14 6 -14 30q-14 45 -35 70q-6 4 -11 6l-34 18q-83 23 -143 -26t-59 -64q-20 -41 -24 -53l-8 -25q-7 -26 -9 -36
q-14 -29 -23 -101l-2 -6l-8 -45q-2 -18 -2 -69v-23l-2 -25v-53q-8 -55 -8 -141l2 -74v-82l-2 -24v-54l2 -57v-86l2 -16v-97q2 -35 18 -77q33 -59 72 -78q25 -14 73 -29q91 -19 147 21q32 22 36 30q14 30 17 54t7 30t24 7t25 -6t3 -47q-4 -72 -66 -111q-34 -21 -62 -31
t-74 -10t-94 13t-74 31q-63 44 -87 91l-10 18q-23 53 -23 146l2 30v31l2 41v41q-2 20 -2 74v37l-2 34q-8 120 1 239q9 118 9 169z" />
    <glyph glyph-name="D" unicode="D" horiz-adv-x="651" 
d="M109 1382q0 27 4 35q27 27 67 15q6 -2 26 -2t42 -10t37 -16q16 -5 43 -32l30 -19q29 -19 37 -32q25 -20 41 -41l17 -16l18 -25q2 -2 8 -12t31 -41t41 -68l14 -43q1 -2 15 -41t26 -116l4 -29v-2q4 -4 11 -72v-27q1 -80 -9 -128t-14.5 -86t-24.5 -103q-20 -66 -47 -109
l-18 -30v2q-57 -97 -77 -120q-21 -23 -40.5 -47t-38.5 -39q-20 -15 -26 -22l-15 -14q-17 -23 -29 -30t-20 -15t-33 -27q-14 -6 -63 -18l-33 -6l-10 -2q-15 0 -17 32t2 97t5 96v43l-2 43v64l-2 65v51l2 21q0 14 -2 33v168l-3 4v155l3 33q4 131 2 193v75l-2 35v180zM172 487
v-323l-2 -27v-59h6q23 4 25 6l28 22q14 8 27 21l33 33q20 10 30 30l17 17q28 21 54 63l20 33q20 33 24 37l33 47l29 55q18 35 27 105t21 99q13 30 10 126t-13 139l-6 41q0 4 -5 9q0 20 -34 122q-20 41 -78 119l-37 51q-4 4 -9.5 12.5t-13.5 15.5t-67 42q-53 53 -113 53
q-4 -23 0 -43l-8 -168v-26l2 -35q0 -23 4 -60v-94l-2 -65v-312q-2 -29 -2 -86zM530 963v-2v2z" />
    <glyph glyph-name="E" unicode="E" horiz-adv-x="417" 
d="M172 911q18 -6 61 -6t62 1q18 1 18 -11v-10l-4 -35q-23 -10 -51 -6h-18l-13 2h-55q-2 -4 -2 -21v-18l-2 -21l4 -534l-2 -51v-76l2 -33l-2 -20v-13q22 -4 57 2h95q43 6 50 -4t4 -33.5t-9 -23.5l-35 -2h-37q-88 -4 -135 4l-21 -2q-27 -4 -29 11t-1 104v16l-3 23v110
q6 39 0 53v52q0 248 3 364v180l-3 33v101q8 161 0 339q0 34 12 44t46 6h20q18 -2 60 -2h73q33 4 45 -13t7 -37q-2 -8 -34 -11t-54 1q-21 4 -45 0l-15 2h-33q-14 0 -20 -2l-4 -106l2 -158q6 -154 6 -199z" />
    <glyph glyph-name="F" unicode="F" horiz-adv-x="442" 
d="M371 1432q31 0 35 -4.5t6 -30t-6 -33.5v2q-8 -6 -44 -6h-2l-4 2h-34l-37 2h-109q-6 -68 -6 -142t2 -100v-69q-4 -53 -2 -82v-45l2 -25v-20q-4 -41 -4 -209q12 -2 80 -2h37l14 -2h39q37 0 41 -19v-39q-8 -8 -88 -2h-98q-8 2 -27 2v-180l2 -22v-91l-2 -22v-19q6 -48 6 -102
v-47q-4 -27 -2 -51v-21q4 -33 0 -51q-2 -6 -15.5 -9t-29.5 3q-19 10 -19 42t3 42l2 27v18q4 23 -2 53v264q4 72 0 121v33l-3 53l3 23v82q-8 47 0 92v98l2 74l-2 194l2 17v147q0 45 4 49.5t28 4.5h19q53 0 88 2h4q2 -2 4 -2h41l14 2l23 -2h35z" />
    <glyph glyph-name="G" unicode="G" horiz-adv-x="659" 
d="M156 455q0 -98 10 -175t32.5 -123t24.5 -48v2q21 -36 52.5 -50t35.5 -16q36 -4 61 8q26 12 68 70q27 47 52 131q0 16 6 40t6 50l2 45v64q4 25 4 81t-2 84v3h-92q-38 1 -82 -3t-80 3q-14 2 -15 25.5t5 33.5t37 6h20q14 2 51 2h17l57 2h55q16 -2 41 2h37q16 0 16 -35v-84
l3 -41q0 -39 -3 -38v-80q0 -90 -3 -104q-3 -15 -6 -36.5t-7 -44.5l-24 -69q-18 -49 -33 -70v2q-6 -14 -34 -46t-48 -43t-70 -15h-57q-88 16 -143 106q-14 20 -41 131q0 28 -15 88v13q-6 42 -6 75v31l-2 29q-4 74 -4 122t4 138l2 35v32q0 33 2 48l4 57q2 18 6 96t13 109v12
q8 63 14 82l18 59q12 36 23 58l18 37q49 78 111 88q25 6 65 6t92 -26t76 -85q10 -23 11 -53l2 -25v-10q0 -25 -15 -35q-31 -14 -59 15q-4 4 -4 30v45q-2 20 -23 52q-44 30 -76 30t-64 -16t-43 -34t-19 -36l-23 -41q-12 -16 -12 -47q-4 -8 -7 -24l-8 -43q-2 -19 -9 -49
t-15 -97l-2 -33q-2 -33 -2 -39l-6 -108l-4 -231q0 -16 4 -62v-63z" />
    <glyph glyph-name="H" unicode="H" horiz-adv-x="483" 
d="M174 666h139q-2 27 -2 57v405q-2 25 -2 75t2 67v108q-2 8 -2 28t16.5 26t34 -0.5t17.5 -18.5v-88l-4 -176q0 -78 2 -119l2 -57v-60q0 -41 -4 -110l4 -82v-35l-2 -37v-100l2 -39v-70l-2 -41q-2 -31 -2 -80v-19l2 -105v-136q0 -16 1 -27t-1 -18q-25 -31 -62 -14q-6 6 -6 35
l-2 24v9l1 10l1 72q0 61 2 86l-2 34v33q-4 49 0 96v64l4 131h-4q-26 0 -55 3t-80 -1q-2 -14 -2 -47v-14q2 -41 2 -156v-66q0 -125 -2 -161t1 -52t3 -43q6 -43 -2 -53v2q-8 -16 -34.5 -10t-26.5 22l-5 91l3 26v111l-1 8l1 59v619q1 51 -3 88t-1 72t4 88v206l2 31q0 7 11 17
t48 -9q2 -6 2 -24v-658l2 -12v-65z" />
    <glyph glyph-name="I" unicode="I" horiz-adv-x="290" 
d="M176 119v-99q0 -18 -9 -22t-34 -4h-12q-12 0 -12 39v37l2 28v138q-6 57 -5 83l5 72v299l2 39v37q0 31 -4 92v47l-3 35v78l3 127q2 29 2 90v156q-2 2 -2 4q0 35 16 39h-2q39 12 49 -13q10 -51 6 -151l-2 -60q-2 -23 -2 -73v-121l2 -53v-23l2 -104v-58v-10l-2 -240
q0 -49 -2 -71v-80l-2 -41v-137l2 -21v-20q2 -10 2 -39z" />
    <glyph glyph-name="J" unicode="J" horiz-adv-x="491" 
d="M319 526q0 60 5 70v20l-2 54q2 27 2 80v131q2 51 2 157v37l-2 12q2 45 2 139t-4 146v25q0 20 14 35q37 14 53 -7q2 -6 2 -34l-2 -31q2 -33 2 -103v-536l-2 -33v-61q-2 -43 -2 -125v-185q-2 -18 -2 -62t-20 -98t-31 -69v2q-8 -20 -31 -43q-13 -23 -38 -33t-33 -14t-43 -10
q-81 -14 -164 24q0 2 -9 6v-2q-16 10 -30 31q-21 24 -21 51q4 23 41 27q18 0 23 -16v-2q2 -2 2 -5q10 -10 10 -16q31 -37 78 -39t85 11q38 12 52 26t26 34q38 64 37 171v63l-2 6l2 21v145z" />
    <glyph glyph-name="K" unicode="K" horiz-adv-x="581" 
d="M199 711q34 -51 55 -72q0 -4 8 -11q8 -8 12 -16t10.5 -17t8.5 -13h-2q2 -4 7.5 -13.5t10.5 -21.5h-2l23 -37q2 -6 8 -13.5t6 -9.5l23 -49q2 -4 8 -15t8 -15l10 -21q4 -6 23 -37l59 -114h-2l16 -25l7 -10l8 -21l-2 2q20 -47 41 -69l12 -21l10 -35q10 -25 10 -40t-14 -17
l-43 -2q-16 0 -24 27l-2 2q0 7 -15 39l-14 32q-4 8 -4 17q-10 18 -17 26l-22 47l-4 13q-14 20 -15.5 25t-3.5 7l-18 31h2q-8 10 -16 27l-29 57q-2 2 -4 8.5t-13 19.5q-10 13 -13 23t-19 43l-15 30q-16 30 -21 38t-6 11q-4 12 -14 22l-10 24v4q0 7 -8 17t-18 20l-17 27
q-4 4 -4 6q0 -27 4 -47v-78l2 -33v-34q-2 -23 -2 -51t2 -40v-6q2 -6 2 -8v-84q-6 -30 0 -63v-60l-2 -16q0 -8 6 -40t-8 -77q-8 -16 -61 -2q-8 8 -4 33v86l-4 37v67q-2 14 2 43v39q-2 49 -2 178v170l2 29v221q2 27 2 93t-2 98v280l-2 25q0 23 16 33q31 8 45 -5.5t12 -42.5
l-2 -32l-2 -64q0 -27 4 -92v-51q-4 -37 -2 -60v-24l2 -14v-17l-2 -24v-37q4 -41 4 -75t-2 -52v-43q2 4 7 12t7 13t13 21.5t22 47.5l15 29l18 43q2 2 8.5 14t10.5 18l-2 -2q16 31 22 52l12 30l29 56q27 43 37 67t14 32t9.5 15.5t7.5 12.5v4l8 10l51 106l8 21q1 13 14 27
t36.5 9t29.5 -22q0 -13 -11 -33t-20 -40q-8 -20 -14 -30q-6 -9 -10 -17.5t-9.5 -17.5t-7.5 -16t-14 -32v2l-12 -25q-1 -12 -13 -32t-16 -29l-20 -41q-6 -6 -11.5 -19.5t-7.5 -15.5t-6 -10t-8 -14l2 2l-3 -9l-16 -32q-8 -16 -10 -23l-35 -74q-6 -6 -11 -20t-10 -21.5
t-7 -11.5t-8.5 -13t-8.5 -14l-22 -40l-29 -41q-14 -27 -22 -39z" />
    <glyph glyph-name="L" unicode="L" horiz-adv-x="360" 
d="M170 989v-219l2 -63v-150q0 -72 2 -108l2 -33v-68l-2 -35q0 -59 -2 -88v-110q-4 -37 -2 -43h10l23 -2q16 0 61 4h10l23 -2h45q27 0 25 -31t-11 -37q-2 -4 -22 -4h-164q-45 0 -49 4q-18 20 -15 55v131q0 70 3 107v590l-3 198v258l3 11v8l-3 22q-6 27 11 43q6 4 26.5 4.5
t24.5 -7.5t4 -29v-17q2 -31 -2 -86v-61l-2 -64l2 -30q2 -12 2 -50v-61z" />
    <glyph glyph-name="M" unicode="M" horiz-adv-x="763" 
d="M653 166q0 -45 2 -64l2 -28v-31q0 -43 -18 -43q-5 0 -21 -4t-24 6v-2q-8 4 -11 51t1 73t2 42l-2 55v25l-2 26v37l2 39v29l2 35v32l-2 33q-4 57 -4 183t4 184v24l-2 25v33q2 10 2 30v95q0 2 -1 6.5t-1 7.5l-4 -23q0 -6 -6 -28l-17 -72q-8 -33 -14 -70l-6 -36
q-8 -37 -11 -56l-10 -71l-6 -52q-5 -44 -21 -108l-8 -39q-6 -25 -7 -30l-4 -29q-5 -25 -9 -42t-4 -37t-6 -34l-27 -186q0 -18 -2 -25l-2 -57v-2l-2 -2v-4l-8 -39q-18 -39 -62 -11l-14 15q-6 14 -6 31q0 16 -3 26t-4 29l-6 37q-4 36 -11 76t-9 55.5t-4 23.5l-7 51
q-8 52 -10 64l-8 43l-4 43l-22 137q0 22 -5 29q-4 20 -5 30l-12 68q-9 59 -13 99t-8 75l-9 78q-2 23 -6 80v-90q0 -47 -4 -133v-33l-2 -33v-57q-4 -27 2 -66v-151l2 -41q4 -104 2 -156l2 -92l-2 -33q-4 -45 2 -84v-78q4 -31 0 -45q-6 -10 -35.5 -10t-33.5 7q-13 22 -4 46v-2
l2 2v58l2 14v35l-2 18v141q0 57 2 89v22l-2 21v86l-2 41v34l-3 35q0 35 5 101q0 68 -3 93t1 72v281q0 145 8 221q2 14 40 24.5t48 -44.5q12 -78 16 -115l4 -45q0 -27 6 -45l13 -88q18 -130 19 -172q1 -43 26 -195l24 -155q-6 4 -2 -12l8 -31q4 -16 7 -23l6 -31v-4l2 -4v-8
q8 -68 18 -113l4 -30q4 -18 8 -56t5.5 -44.5t1.5 -10.5l14 154l2 34q2 12 19 107l4 22q0 11 4 19q4 37 7 45t6 19.5t3 14.5l8 36q4 20 8 53l7 43q4 20 7 39.5t5 27.5l10 56q0 29 12 65l7 25q2 8 5 30.5t8 42.5t6 36t19 98l13 43q2 8 6.5 32t11.5 46q8 22 12 83q-4 35 27 56
q12 8 47 -8q12 -8 6 -66v-412l-2 -169q-2 -169 0 -189v-47l2 -143l-2 -64v-176z" />
    <glyph glyph-name="N" unicode="N" horiz-adv-x="667" 
d="M141 1149v-53l2 -160l4 -252v-113l3 -22v-111q0 -80 2 -119v-178q0 -59 4 -67v-13q6 -41 0 -57q-8 -14 -24 -14t-28 4q-31 20 -28 47v106q0 330 -4 484v43l4 284q0 305 -8 435l2 20q0 8 12 21h4q33 16 47 -11q0 -16 10 -26q27 -47 27 -82h4l55 -154q27 -81 43 -121
l37 -98q6 -16 25 -78q0 -20 27 -92t34 -105q8 -32 9.5 -32t5.5 -19t11 -42t13 -56l21 -80q2 -10 5 -18l19 -70l3 -12l6 -36q1 -6 1 -15q2 0 3 -2v69q-3 60 0 242l-3 102v107q0 41 -2 73t2 121q4 88 0 180t3 210v16q0 20 12 33q27 6 43 -4q12 -23 8 -60v-16l2 -12v-15
q-4 -70 0 -108v-305l-4 -72q8 -195 4 -248v-31l-2 -32v-62l-2 -20v-301q-3 -18 2 -52q0 -27 2 -43v-8q4 -47 -16 -47l-19 -2q-4 0 -15 -3t-15 11l-15 58l-14 71q0 10 -14 56l-17 61q-14 74 -26 118l-31 111v-2q-2 8 -7.5 26.5t-7.5 29.5l-30 106q-2 25 -13 47l-14 53
q-12 35 -14 49q-1 14 -11 34q-10 22 -14 34t-16 52t-21 59l-18 55l-19 51q-2 4 -5 12.5t-12 30.5t-19 60q-10 39 -19 55q6 -24 6 -86z" />
    <glyph glyph-name="O" unicode="O" horiz-adv-x="655" 
d="M88 942q0 53 6 98q6 44 12 126t50 165l18 37q18 35 94 68l2 2h10q9 0 21 6q39 16 102 -8q23 -8 52 -35t47 -61t33 -103q16 -57 20 -154q4 -96 6 -112l6 -64l6 -164l-2 -26v-25q-6 -80 -6 -119v-124q4 -27 0 -50q0 -25 -4 -53l-2 -59l-6 -60l-6 -30q0 -12 -2 -19l-6 -26
q0 -10 -7 -23q-14 -14 -14 -29q-8 -23 -20 -39l-15 -16q-4 -4 -12 -16t-39 -25h-2l-4 -2h2q-6 -6 -42 -14t-84 4t-61 20t-26 25l-20 22l-13 17q-12 14 -32 45q-43 88 -62 270q0 20 -2 33l-2 29v16q-4 98 -4 178v53l2 60q0 123 6 168v14zM154 956v-26q-2 -6 -2 -12v-199
l-2 -27q-2 -43 1 -94t3 -64l6 -147q9 -122 24 -168q0 -6 4 -14l13 -29q4 -6 13 -28t26 -37q16 -20 34 -33q45 -37 84 -37q59 10 73.5 35.5t14.5 27.5l17 33q16 16 16 49l2 43q4 20 4 27l2 20l7 39q0 20 5 50t1 116l-2 64q0 76 2 114v197l-2 43v35q0 16 -4 45v8l-5 27v61
q0 35 -2 49l-10 74q-18 104 -51 141l-8 13q-12 12 -32 23t-21 11q-103 24 -142 -71q-29 -59 -40 -90t-13 -73t-3 -71t-7 -45t-6 -80z" />
    <glyph glyph-name="P" unicode="P" horiz-adv-x="446" 
d="M170 290q0 -74 2 -110v-65l2 -74v-31l-16 -12q-10 -8 -41 4q-10 8 -8 26t2 23l-2 4v68q0 51 2 70v563q0 43 2 59v47l-2 19v274q-4 41 0 78v192q16 12 45 13h12q70 0 134 -64t87 -121q37 -80 37 -180q0 -33 -8 -78l-6 -41q-4 -29 -9 -34l-8 -17q-2 -2 -18 -26h2
q-17 -28 -33.5 -36.5t-30.5 -20.5q-15 -13 -23 -17l-50 -25l-52 -20l-16 -4q0 -82 -4 -254v-39l2 -8v-9q4 -29 1 -55q-3 -25 -3 -99zM174 815q12 0 29 10q15 9 37 17l14 10q4 0 10 6l12 6q17 14 31 32q15 20 25 32q34 41 24 178v12q-4 60 -10 74t-8 19.5t-7 20.5t-9 19
t-10.5 13.5t-10.5 19.5t-10 15t-10 10l-11 8q-16 23 -45 39t-51 18v-69l-6 -119l6 -160v-82l2 -31l-4 -53l2 -26v-19z" />
    <glyph glyph-name="Q" unicode="Q" horiz-adv-x="567" 
d="M94 180q-8 16 -8 76v14q-4 8 -4 49t2 64v104q0 94 2 138l4 49v82q2 25 2 81t-2 83v49l2 18v180q0 49 12 97q4 37 15 69v4q2 4 2 6l16 39q43 62 156 62h29q23 0 65 -25l31 -30q20 -19 27 -43q7 -23 9 -32q1 -9 15 -52q0 -12 8 -41t19 -115v-125l-2 -45v-43q0 -88 -3 -129
t-4 -59l-2 -29v-107l2 -14v-10l-12 -215q0 -41 -2 -58l-2 -36v-35q-6 -28 2 -74q6 -6 18.5 -14.5t21.5 -17.5t13 -11l39 -33q10 -10 1 -27.5t-21 -25.5h-2q-10 -4 -29 12v-2q-10 6 -53 49q-6 10 -10 11q-1 -6 -9 -24t-26 -28l-19 -8l2 2q-20 -12 -55 -12h-18l-21 -2h-24
l-41 2q-37 0 -42 4l-36 35q-6 13 -22 27t-27 55l-15 49l-4 14v-2zM156 537q-6 -62 -6 -105v-20q0 -45 -3 -58q0 -79 4 -93q3 -13 3 -24t4 -22l12 -43q2 -16 8 -29t6 -18l17 -31q13 -25 45 -37q52 -6 102 4q4 5 17 7t18 7t14 42q-12 18 -16 18t-4 2l-4 2l-49 39q-14 7 -18 13
q-5 6 -7 6l-33 32q-4 4 -13 11.5t-14 12.5t5 19.5t24 22.5q27 0 41 -27q11 -10 27 -22l24 -18q8 -5 18 -18t25 -24q2 16 7 115l6 98q4 70 4 105l2 59l6 246v43q2 39 2 115v41l2 45q0 48 -12 137t-33 133l2 -2l-8 14v-2q-8 16 -12 23t-35 26l-35 9q-80 -4 -103 -31t-28 -88
v-12q-8 -60 -8 -76l-2 -39q-4 -57 -4 -86l2 -45v-47l2 -56v-55l-4 -125z" />
    <glyph glyph-name="R" unicode="R" horiz-adv-x="538" 
d="M483 57q-8 16 -8 23l-12 24l-6 15q-14 49 -41 106l-13 31q-4 16 -11 28t-7 20q0 9 -3 13t-9 19.5t-8.5 19.5t-12.5 28t-13 32l-10 26l-17 42q-10 24 -38 106q-10 10 -14 37l-2 2v2q-16 33 -23 57t-14 39l-6 25q-8 39 -14 47l-25 -8v-562q-2 -12 -2 -36l2 -3v-14
q2 -23 2 -90l-2 -70q0 -18 -38 -18t-27 72v227l2 37v33q-2 61 -2 243t-5 289v37q2 17 0 141l3 35v135q0 59 -3 86v51q0 31 12 41q33 29 103 -22q21 -10 21 -12v2q36 -19 46 -29t25 -20q22 -16 49 -54h-2q11 -13 18 -29t16.5 -31.5t21.5 -84.5l4 -31q13 -79 2 -102l-6 -47
q-16 -49 -56 -85t-65 -46l2 2l-23 -11l-24 -8q2 -2 8 -14l37 -96l13 -40q5 -16 20 -46l75 -195l37 -88l35 -96l4 -13q0 -4 4 -12l17 -31q0 -10 9 -26t11 -29q12 -18 17 -31v-4l26 -55q4 -31 2 -35q-14 -14 -47 -8q-23 18 -35 57v2zM172 1272v-62q0 -40 2 -102t-1 -90t1 -62
v-59q-4 -25 0 -53q29 4 76 30l37 19q30 28 55 61h-2q29 43 25 121v19q-10 41 -11 61q-4 8 -4 16t-10 33v-2l-6 12q-2 12 -9 24l-12 19q-2 0 -20 29q-8 8 -15 16t-42 29l-19 12l-2 3h-4l-39 26l-2 2v-41q2 -18 2 -61z" />
    <glyph glyph-name="S" unicode="S" horiz-adv-x="440" 
d="M303 1225q0 8 -4 24l-6 33q-14 70 -57 98l2 -2q-39 18 -68 0l-9 -6l-32 -20q-5 -8 -21 -25t-16 -78v-84q10 -30 10 -47.5t37 -89.5l17 -37q2 -2 8 -14l10 -21q4 -8 5 -12t46 -72h-2q31 -40 51 -90l21 -55q7 -23 19 -46l24 -46q4 -12 19 -48t40 -124l9 -31l6 -33l4 -26
q8 -39 8 -95t-2 -106q-2 -51 -19 -82q-2 -18 -17 -34t-21 -23l-19 -21q-9 -9 -39 -20q-31 -12 -85 -4t-68 26q-47 41 -48 115q0 10 -4 31l-2 26v35l2 12v27q0 53 29 50t39 -13q2 -25 -3 -68t3 -61v-10l2 -13q0 -6 2 -12q8 -53 36 -79t71 -7q4 0 12 8l10 4l6 7l4 4q4 2 6 4
l19 24q12 14 16 64v26l2 13l2 55q2 82 -16 164q-16 94 -84 237l-14 29q-20 47 -33 68q-8 20 -10 24l-23 43q-12 18 -19 38t-20 32l-10 16l2 -2q0 2 -2 4l-16 27l2 -2q-2 4 -18 32.5t-36 76.5l-32 90q0 8 -4 16l-5 41v41q0 35 5 51l6 27q4 10 5 15t5 9l6 15q2 2 8 11t8 11
l13 16q18 29 38 38t23 10q37 18 94 10q20 0 27 -6v2q16 -10 31 -23l20 -20q63 -96 55 -207q-2 -32 -3 -36t-1 -7l-2 -6q0 -23 -18 -23q-4 0 -20 -3t-21 2q-4 5 -4 20v18l4 27v10q4 25 4 33z" />
    <glyph glyph-name="T" unicode="T" horiz-adv-x="438" 
d="M315 1370h-26l-33 2v-155q0 -61 2 -87v-83q4 -74 4 -252t-4 -267v-45l2 -20v-148l-2 -69v-183q0 -43 -2 -53q-6 -12 -41 -12h-8q-18 0 -14 18v25l-3 8v299l3 35v141q2 25 2 84v148l-2 61v57l-3 23v100q-2 12 -2 45v52l2 34q0 57 -2 86v72q0 55 -2 88h-12l-162 -2
q-12 -2 -15 7.5t-3 31.5v10q0 10 37 11h57l12 2h232l14 -2h35q41 5 49 2q6 -6 6 -13l2 -2v-3l2 -13q0 -23 -10 -27q-78 -6 -115 -6z" />
    <glyph glyph-name="U" unicode="U" horiz-adv-x="651" 
d="M217 14l-47 37h2l-8 12v3l-6 12q-21 21 -21 45q-4 13 -9 25t-9 33l-9 45t-14 71q-12 96 -12 264v215l2 74v221q-2 45 2 125v199q0 43 23 45q39 4 39 -31v-10l-3 -15v-45l3 -10v-12q0 -35 -3 -47q0 -139 3 -160l2 -47v-98l-2 -54v-127l-3 -20v-238q0 -15 5 -65v-70
q0 -31 2 -43l2 -22q5 -76 13 -93q9 -18 9 -23t6 -17v-3q9 -9 9 -24l10 -27q19 -53 43 -69q61 -33 95 -24t46 20l27 26l16 17l8 18l8 23v6l9 26l20 70q0 20 4 29v2q4 4 4 32t5 67t10 169v231q-4 55 -2 80l8 146v67l-4 144v34l-2 33v113q0 25 12 37q20 8 45 0q16 -16 10 -54
v-458q0 -20 -2 -27v-10l-2 -13v-18l2 -22v-242l-2 -43q0 -137 -6 -177t-6 -53v-22q-4 -35 -8 -49l-13 -51l-8 -25l-2 -4l-2 -2v-8q0 -6 -2 -8t-10 -17q-8 -14 -8 -17.5t-4 -7.5t-9 -16l-12 -22q-8 -16 -18 -25l-15 -16q-59 -59 -164 -35q-5 1 -57 20z" />
    <glyph glyph-name="V" unicode="V" horiz-adv-x="505" 
d="M414 1382q0 36 18 54h12q6 -4 21 -3t19 -5t5 -19l-26 -156q-10 -61 -14 -100l-11 -76l-6 -35q0 -13 -8 -61l-14 -127q-4 -44 -12 -100t-13 -109q-8 -45 -18 -125l-31 -184q-6 -43 -10 -60t-9 -55l-4 -22q-4 -12 -4 -33t-2 -33l-4 -23q-2 -12 -4 -16l-6 -43q-6 -18 -6 -24
t-4 -19q-18 -27 -58 -16q-18 16 -18 51l-37 231v9l-2 2q0 5 -1 11l-8 36q-7 30 -9 46t-15.5 85.5t-40.5 247.5l-8 55q-17 102 -22 160q-5 59 -9 88l-6 43q-4 37 -4 59v17q-12 84 -12 102q-6 29 -13 115v26l-2 4q-5 25 2 35q14 14 37 8q16 -2 19 -32q8 -8 9 -37t2 -40l12 -94
q3 -24 14 -133l10 -90q9 -114 51 -391l47 -239q8 -41 17 -107l10 -59v-17q2 35 10 68l4 24q2 8 2 21l31 164l8 63l6 62l17 110q8 76 14 121l4 33q4 16 7 53t21 187t27 188q0 27 9 55zM254 147q0 2 -2 3z" />
    <glyph glyph-name="W" unicode="W" horiz-adv-x="526" 
d="M397 500l6 196q0 50 5 86l4 58q0 39 6 90v16q4 53 4 78v6l6 94q4 37 4 56l10 219q-6 19 6 31t27 6q10 0 19 -4l16 -13l-10 -192l-23 -357l-8 -176l-2 -30v-29q-6 -76 -8 -196q-1 -120 -13 -213t-12 -141t-8 -69q-31 -31 -49 -16q-16 16 -17 39l-8 102q-4 16 -8 56v12
l-6 45l-19 182l-14 148q-8 32 -8 82l-2 30v13q-6 12 -8 50t-6 64l-13 135q-8 -132 -13 -162t-5 -36v-41q-6 -30 -6 -49l-6 -62l-2 -38q-3 -38 -7 -76t-8 -111l-6 -102q0 -23 -2 -33l-4 -58q0 -18 -4 -47q0 -35 -6 -65q0 -60 -16.5 -77t-35.5 -7q-20 18 -20 37t-3 45l-7 59
q0 8 -1 13l-7 55l-13 166q-6 111 -26 327l-9 76q-2 10 -8 72v12q0 48 -6 84l-4 82v18l-23 297v6q-2 8 -2 31l-2 25q-6 27 2 31q14 6 34 4t22 -15q8 -43 12 -137t10 -170l8 -100q4 -72 12 -140t13 -137v-12l7 -69q7 -69 11 -205v-19l3 -59q0 -39 4 -88l6 57l6 102q0 39 4 84
l2 29q0 27 4 55l4 52q4 74 8 108l11 102q10 76 10 146v16q6 57 6 99q0 93 6 114l2 25q0 25 2 33v108q0 14 13 21l-2 -2q29 14 55 -9q8 -18 6 -34v-31l2 -39q0 -29 4 -62l4 -63v-12l2 -21q0 -41 2 -53l6 -66q31 -240 37 -368q12 -82 22 -203t15 -166v6l2 107z" />
    <glyph glyph-name="X" unicode="X" horiz-adv-x="407" 
d="M276 1133v8q8 59 12 73t6.5 29.5t6.5 26.5l6 30q23 102 26 110t3 11l10 17q14 8 37 -6.5t14 -26.5h2q-4 -8 -10 -29l-4 -26q-8 -20 -10 -31l-6 -23l-4 -24l-13 -58q-2 -14 -8 -44t-12 -72t-17 -74q-4 -45 -14 -78l-6 -20q0 -6 -4 -16t-8 -36t-23 -92t-33 -129
q33 -147 47 -202l62 -267q4 -8 4 -20t6 -23l10 -32q0 -17 6 -29q0 -8 5 -21l8 -28q6 -23 -2 -31q-4 -2 -19 -2h-26q-21 0 -21 35l-26 100l-5 29l-20 86q-10 27 -14 48q-10 52 -14.5 66t-8.5 42.5t-18 70.5l-6 31l-7 -51v-4q-7 -15 -10 -54q-6 -14 -10 -39l-8 -59
q0 -12 -4 -25l-6 -24q-10 -43 -27 -128l-19 -95l-2 -19q-10 -14 -20 -14h-10q-20 0 -30 5t-4 27q7 22 7 33l10 47l2 5v6q6 20 8 43t16 88q13 64 16 75t9 42l9 41q6 53 12 59v4q12 74 35 184l-21 101q-16 78 -26 120l-15 64l-10 47l-6 40q-6 40 -10 54l-19 99l-18 79l-2 17
q0 23 -6 35l-13 59l-4 14v-2q-18 41 6 50q35 8 42.5 4t9.5 -18t7 -41t7 -41t6 -30t4 -20l39 -182q4 -14 5 -20l14 -66l17 -90t30 -135q14 53 23 99t18 73l2 2q0 1 9 37t11 55t6 33l6 24q2 14 2 19z" />
    <glyph glyph-name="Y" unicode="Y" horiz-adv-x="454" 
d="M385 1391l4 25q0 13 16.5 17.5t32.5 -4.5t19 -20q4 -10 -8 -35v2q-7 -7 -7 -14l-8 -21q-4 -8 -14 -53t-21 -67l-4 -21l-4 -16q-4 -6 -5 -16t-9 -25q-8 -16 -8 -35q-9 -21 -9 -22l-6 -27l-6 -21q-4 -36 -13 -53l-11 -22q-6 -43 -19 -60q0 -6 -6 -12l-8 -25q-4 -4 -4 -14
q-10 -12 -19 -35l8 -385v-53l-2 -57q-2 -39 -2 -113v-197q-27 -27 -47 -14q-16 16 -16 31v2q2 2 2 4v348q0 102 2 152v14l-2 16v33q0 47 -2 70v135l-14 41l-7 12l-14 33q0 4 -6 14l-10 19q-8 11 -17 37q-8 26 -20 59l-23 74q-8 33 -14 49l-18 61q0 16 -7 23q-31 90 -39 110
q-2 14 -12 29h2q-20 31 -10 59q8 10 26.5 9.5t26.5 -11.5h2q12 -16 33 -88l8 -24q2 -6 6 -19.5t7 -19.5l10 -51l10 -29q0 -9 7 -25t18 -49l2 -2v-6l12 -41l49 -123q3 -5 10 -31q4 0 4 -8l5 -8q2 4 2 6t4 6q0 4 7 14t27 89l7 22q2 6 5 21t7 28l12 41l1 6l8 36q8 30 9 33
t3.5 23t15.5 58l21 61q4 16 18 45v3z" />
    <glyph glyph-name="Z" unicode="Z" horiz-adv-x="387" 
d="M125 1380q-39 0 -39 13q0 35 8 39h-2q10 8 39 5t43 -3l6 -2h39l37 2h74q18 0 26.5 -2t15.5 -21t-4 -67l-14 -64q0 -9 -5 -26t-11 -44l-31 -147q0 -17 -8 -45l-10 -39l-4 -21q-6 -18 -8 -33q-1 -15 -5 -27t-5 -12.5t-1 -2.5l-6 -27l-2 -4v-4l-8 -39l-14 -59q0 -6 -5 -15
l-12 -43l-12 -78q-2 -4 -2 -12l-10 -43q0 -14 -7 -27q0 -14 -2 -18l-12 -43q0 -35 -4 -40q-12 -15 -18 -44q-17 -50 -17 -68v-2q-4 -12 -4 -34v-4q-2 -4 -2 -7l-6 -22q-2 -4 -2 -14.5t-4 -26.5l-6 -25v-18l-19 -76q-6 -6 -6 -29q41 -4 92 0l41 2h37q33 0 66 -4q23 -4 18 -39
q0 -18 -25 -18h-65l-19 -2h-96l-31 -2q-43 0 -65 6q-25 4 -25 28t11 64l6 23q2 2 8 26q12 82 33 166l6 45l6 21q4 16 4 24l31 125l26 138q0 16 2 20v2q7 7 7 23l8 30q4 25 10 33l-2 -2l12 49q2 9 6 23t5 18l6 33l10 29q-2 0 4 22v2l2 4l6 35v2l25 86q0 24 14 78q14 53 16 80
q4 13 10 39t12 44q7 18 13 64q-35 6 -90 2h-96z" />
    <glyph glyph-name="bracketleft" unicode="[" horiz-adv-x="440" 
d="M145 715q-2 39 -2 149t4 133v9l-2 20v61l2 35q0 49 3 68v12l2 15v36l2 45q0 51 -9 76v31q11 37 70 27h8l13 2h71q70 0 72 -21q0 -6 -6 -16l2 -4q0 -29 -58 -29h-81q-6 4 -17 -2q-4 -37 -4 -133l-6 -328v-35q-2 -20 -2 -74t2 -83v-390l-2 -38q-4 -119 -4 -172v-111l2 -29
v-123q8 -2 20 -2h25q14 2 53 2h10l11 2q72 4 75 -22q6 -39 -32 -39l-115 -4h-43q-6 0 -26 -6t-40 18l-16 19l8 34v13l-2 12q0 14 -1 32t1 21q2 4 2 6l2 43v148q0 72 2 108v13l2 51q4 86 4 125v295z" />
    <glyph glyph-name="backslash" unicode="\" horiz-adv-x="731" 
d="M573 -334l-8 52q0 20 -19 61t-41 115q-22 73 -22 77l-16 72l-16 59q-4 12 -27 93q-12 31 -37 122l-10 39q-16 63 -42 139t-32 109q-4 8 -6 10l-27 91q-18 57 -28 106l-15 55q-17 68 -33 111t-36 121l-41 155q-4 12 -13 46t-24 71l-6 23l-4 20q0 9 -7 14q-8 19 0 33l33 15
q20 4 29 -9q15 -47 19 -72t7 -32q3 -6 29 -100t39 -129q14 -35 37 -132l162 -563q10 -29 47 -153l10 -31v2q4 -6 6 -18l4 -29q27 -91 45 -137t27 -84q10 -38 13 -52t5 -20l27 -90l16 -62q4 -16 9 -28l10 -21q2 -2 2 -8l10 -29q0 -8 4 -16l9 -8q10 -23 6 -37q-12 -20 -45 -20
t-41 49l-7 18z" />
    <glyph glyph-name="bracketright" unicode="]" horiz-adv-x="370" 
d="M140 1370l-25 6h-47q-24 4 -31 31q-6 12 -2 21t21 7q16 -3 64 1t79 -4h8q23 0 26 -9q10 -29 11 -98l-2 -41v-147q4 -59 0 -105v-104l2 -33v-96l-6 -461v-129l2 -12v-361q8 -31 0 -35h2q-12 -18 -54 -18h-20l-62 -4h-10q-27 0 -39 20q-16 16 -8 31q2 10 25 10h59
q18 0 25 2q18 23 14 99v47l2 24v41l-2 39q-4 32 -4 203v260q2 39 2 127v18l2 35v47q-2 48 -2 156l2 172l-2 4v64l2 47q0 82 -6 141q-16 4 -26 4z" />
    <glyph glyph-name="asciicircum" unicode="^" horiz-adv-x="692" 
d="M311 1407v2q2 2 2 9t13 16q29 8 45 -2t16 -21v-8q0 -27 47 -103l37 -81q2 -2 7 -12.5t16 -30t24 -56.5q31 -61 39 -82l37 -100q2 -16 -24 -26.5t-44 -6.5l-65 178v-2q-4 8 -18.5 39t-18.5 39l-14 31v2l-15 31l2 -2q-10 20 -12 22l-12 23q-2 2 -15 32q-6 6 -7 14t-5 15
l-67 -133l2 2q0 -3 -9 -12q0 -6 -6 -18t-13 -30l-13 -32q-13 -31 -17 -39l-47 -117q0 -4 -4 -12q-10 -43 -45 -33q-49 23 -23 55q0 4 9 13q4 8 9 28t15 35l6 19l4 8l5 14l12 27q0 6 10 31l23 57q5 7 14 29q-2 -4 2 -5q4 2 14 15l-6 6l4 12l17 29h-2l39 78h12l-2 18l-2 -2
l14 25q10 10 10 12z" />
    <glyph glyph-name="underscore" unicode="_" horiz-adv-x="1093" 
d="M763 -207l-243 6h-86l-2 2l-18 -2h-72l-43 -2h-102q-41 0 -55 -3t-28 0t-20 3q-51 -10 -65 7t-8 36t20 27q12 4 43 4l8 -2h8l144 -4h86l28 -2h29l160 4q43 0 59 -2l25 -2h24q35 0 47 -2l91 4h88q33 2 131 2h12q52 7 48.5 -25t-13.5 -37h2q-27 -16 -85 -10t-96 4l-73 -4
q-37 -2 -44 -2z" />
    <glyph glyph-name="grave" unicode="`" horiz-adv-x="395" 
d="M94 1412q0 10 17 20q25 2 43 -17l28 -39q6 -8 17 -18l16 -21q31 -35 45 -53l25 -31q10 -12 14 -22v2q6 -10 -2 -23.5t-26 -15.5t-35 27h2l-15 14v6l-14 14l-10 17l-21 22q-10 15 -18 24l-27 28l-8 12l-10 4q-1 14 -11 27t-10 23z" />
    <glyph glyph-name="a" unicode="a" horiz-adv-x="563" 
d="M92 324l17 90q0 25 5 47l6 29q7 30 7 40l12 52l4 28l7 29q7 22 12 68q4 45 16 102l55 338l21 102q9 26 16 115v29q0 27 13 43q41 12 61 -6l6 -35q-5 -56 6 -78v-14q0 -36 9 -66q10 -74 30 -162l19 -135l6 -72q0 -16 10 -61q12 -111 31 -213l12 -109l14 -106
q12 -72 27 -199l6 -43q0 -21 3 -32t5 -24t5 -25t4 -50q0 -4 -21.5 -9t-32.5 -1q-16 8 -16 34t-26 197q-26 172 -46 365q-16 4 -68 4t-106 -6h-10l-8 -2l-8 -33q-2 -8 -4.5 -15.5t-1.5 -10.5t-3 -10t-6 -40l-8 -55l-6 -49l-10 -60q-8 -37 -15 -82l-10 -53l-12 -43l-9 -35
q-8 -34 -9 -41.5t-3 -13.5l-6 -20q-11 -33 -37 -33q-12 0 -23 9t-7 28l12 43l3 12l7 34q2 9 3 14l11 42q9 31 13 49l6 29q12 48 12 70zM215 645l80 8h94q-8 68 -14 90q-8 76 -29 197q-16 163 -24 188q-7 25 -15 68l-3 -21l-23 -126q-8 -45 -17 -121q-14 -53 -14 -66
l-27 -151q-2 -12 -5 -28t-3 -38z" />
    <glyph glyph-name="b" unicode="b" horiz-adv-x="522" 
d="M461 395q0 -68 -8 -92q0 -11 -3 -25t-4 -30l-12 -37q0 -1 -18 -44t-35 -63l-49 -49q-8 -8 -22 -17q-14 -8 -26 -12t-36 -16h-29l2 -12l-28 -6q-20 -6 -47 -6t-37 22v-2q-7 12 -3 44t0 65v18l-2 21q0 29 5 65v197q4 45 4 67l-2 41v160l-5 238v145l3 16v33l-3 33v235
q0 64 23 64h35q104 0 186 -82l20 -20q19 -19 28.5 -27t11.5 -12l20 -35h-2q25 -33 35 -80q23 -66 12 -176v-8q-8 -37 -16 -60l-13 -37q-6 -27 -16 -39v2l-10 -18q-2 0 -2 -1.5v-2.5l-19 -29q-29 -43 -90 -92q-29 -18 -55 -29q12 -4 22 -11t19 -11v2q2 0 10 -6l27 -19l-2 2
q18 -10 47 -38l31 -37l20 -39q14 -14 25 -64l8 -61v-25zM416 1106q0 25 -2 39v6q-2 4 -2 8l-4 12l-7 25q-4 12 -6 21l-8 16v-4q-2 4 -7 15.5t-15 23.5l-37 45q-29 37 -52 45q-55 31 -114 35l2 -74v-100q0 -47 2 -66l2 -47v-51l2 -33v-264l2 -4v-9q20 -2 66 17q65 33 65 43
q42 21 72 90l10 27q10 26 22 54t9 116v14zM336 150q63 113 63 256q0 142 -98 206q-66 45 -131 58v-162q0 -41 -2 -57l-2 -70l-2 -12v-9q2 -31 2 -200v-109q23 -12 90 27q43 18 82 74z" />
    <glyph glyph-name="c" unicode="c" horiz-adv-x="595" 
d="M96 977v10q0 121 47 248q0 2 2 7t3.5 10t3.5 8l30 61q50 86 125 115q43 16 88 16t99 -29l-2 2q12 -6 18 -12l22 -22q43 -47 43 -103q0 -18 -4 -22l-39 -4q-14 6 -14 30q-14 45 -35 70q-6 4 -11 6l-34 18q-83 23 -143 -26t-59 -64q-20 -41 -24 -53l-8 -25q-7 -26 -9 -36
q-14 -29 -23 -101l-2 -6l-8 -45q-2 -18 -2 -69v-23l-2 -25v-53q-8 -55 -8 -141l2 -74v-82l-2 -24v-54l2 -57v-86l2 -16v-97q2 -35 18 -77q33 -59 72 -78q25 -14 73 -29q91 -19 147 21q32 22 36 30q14 30 17 54t7 30t24 7t25 -6t3 -47q-4 -72 -66 -111q-34 -21 -62 -31
t-74 -10t-94 13t-74 31q-63 44 -87 91l-10 18q-23 53 -23 146l2 30v31l2 41v41q-2 20 -2 74v37l-2 34q-8 120 1 239q9 118 9 169z" />
    <glyph glyph-name="d" unicode="d" horiz-adv-x="651" 
d="M109 1382q0 27 4 35q27 27 67 15q6 -2 26 -2t42 -10t37 -16q16 -5 43 -32l30 -19q29 -19 37 -32q25 -20 41 -41l17 -16l18 -25q2 -2 8 -12t31 -41t41 -68l14 -43q1 -2 15 -41t26 -116l4 -29v-2q4 -4 11 -72v-27q1 -80 -9 -128t-14.5 -86t-24.5 -103q-20 -66 -47 -109
l-18 -30v2q-57 -97 -77 -120q-21 -23 -40.5 -47t-38.5 -39q-20 -15 -26 -22l-15 -14q-17 -23 -29 -30t-20 -15t-33 -27q-14 -6 -63 -18l-33 -6l-10 -2q-15 0 -17 32t2 97t5 96v43l-2 43v64l-2 65v51l2 21q0 14 -2 33v168l-3 4v155l3 33q4 131 2 193v75l-2 35v180zM172 487
v-323l-2 -27v-59h6q23 4 25 6l28 22q14 8 27 21l33 33q20 10 30 30l17 17q28 21 54 63l20 33q20 33 24 37l33 47l29 55q18 35 27 105t21 99q13 30 10 126t-13 139l-6 41q0 4 -5 9q0 20 -34 122q-20 41 -78 119l-37 51q-4 4 -9.5 12.5t-13.5 15.5t-67 42q-53 53 -113 53
q-4 -23 0 -43l-8 -168v-26l2 -35q0 -23 4 -60v-94l-2 -65v-312q-2 -29 -2 -86zM530 963v-2v2z" />
    <glyph glyph-name="e" unicode="e" horiz-adv-x="417" 
d="M176 674q18 -6 61 -6t62 1q18 1 18 -12v-10l-4 -35q-23 -10 -51 -6h-18l-13 2h-55q-2 -4 -2 -20v-19l-2 -20v-297l-2 -51v-76l2 -33l-2 -20v-13q22 -4 57 2h95q43 6 50 -4t4 -33.5t-9 -23.5l-35 -2h-37q-88 -4 -135 4l-21 -2q-27 -4 -29 11t-1 104v16l-3 23v110
q6 39 0 53v52q0 248 3 364v180l-3 33v101q8 161 0 339q0 34 12 44t46 6h20q18 -2 60 -2h73q33 4 45 -13t7 -37q-2 -8 -34 -11t-54 1q-21 4 -45 0l-15 2h-33q-14 0 -20 -2l-4 -106q0 -47 3 -118t0 -131t5 -188v-10q4 -102 4 -147z" />
    <glyph glyph-name="f" unicode="f" horiz-adv-x="442" 
d="M371 1432q31 0 35 -4.5t6 -30t-6 -33.5v2q-8 -6 -44 -6h-2l-4 2h-34l-37 2h-109q-6 -68 -6 -142t2 -100v-69q-4 -53 -2 -82v-45l2 -25v-20q-4 -41 -4 -209q12 -2 80 -2h37l14 -2h39q37 0 41 -19v-39q-8 -8 -88 -2h-98q-8 2 -27 2v-180l2 -22v-91l-2 -22v-19q6 -48 6 -102
v-47q-4 -27 -2 -51v-21q4 -33 0 -51q-2 -6 -15.5 -9t-29.5 3q-19 10 -19 42t3 42l2 27v18q4 23 -2 53v264q4 72 0 121v33l-3 53l3 23v82q-8 47 0 92v98l2 74l-2 194l2 17v147q0 45 4 49.5t28 4.5h19q53 0 88 2h4q2 -2 4 -2h41l14 2l23 -2h35z" />
    <glyph glyph-name="g" unicode="g" horiz-adv-x="659" 
d="M156 455q0 -98 10 -175t32.5 -123t24.5 -48v2q21 -36 52.5 -50t35.5 -16q36 -4 61 8q26 12 68 70q27 47 52 131q0 16 6 40t6 50l2 45v64q4 25 4 81t-2 84v3h-92q-38 1 -82 -3t-80 3q-14 2 -15 25.5t5 33.5t37 6h20q14 2 51 2h17l57 2h55q16 -2 41 2h37q16 0 16 -35v-84
l3 -41q0 -39 -3 -38v-80q0 -90 -3 -104q-3 -15 -6 -36.5t-7 -44.5l-24 -69q-18 -49 -33 -70v2q-6 -14 -34 -46t-48 -43t-70 -15h-57q-88 16 -143 106q-14 20 -41 131q0 28 -15 88v13q-6 42 -6 75v31l-2 29q-4 74 -4 122t4 138l2 35v32q0 33 2 48l4 57q2 18 6 96t13 109v12
q8 63 14 82l18 59q12 36 23 58l18 37q49 78 111 88q25 6 65 6t92 -26t76 -85q10 -23 11 -53l2 -25v-10q0 -25 -15 -35q-31 -14 -59 15q-4 4 -4 30v45q-2 20 -23 52q-44 30 -76 30t-64 -16t-43 -34t-19 -36l-23 -41q-12 -16 -12 -47q-4 -8 -7 -24l-8 -43q-2 -19 -9 -49
t-15 -97l-2 -33q-2 -33 -2 -39l-6 -108l-4 -231q0 -16 4 -62v-63z" />
    <glyph glyph-name="h" unicode="h" horiz-adv-x="483" 
d="M174 666h139q-2 27 -2 57v405q-2 25 -2 75t2 67v108q-2 8 -2 28t16.5 26t34 -0.5t17.5 -18.5v-88l-4 -176q0 -78 2 -119l2 -57v-60q0 -41 -4 -110l4 -82v-35l-2 -37v-100l2 -39v-70l-2 -41q-2 -31 -2 -80v-19l2 -105v-136q0 -16 1 -27t-1 -18q-25 -31 -62 -14q-6 6 -6 35
l-2 24v9l1 10l1 72q0 61 2 86l-2 34v33q-4 49 0 96v64l4 131h-4q-26 0 -55 3t-80 -1q-2 -14 -2 -47v-14q2 -41 2 -156v-66q0 -125 -2 -161t1 -52t3 -43q6 -43 -2 -53v2q-8 -16 -34.5 -10t-26.5 22l-5 91l3 26v111l-1 8l1 59v619q1 51 -3 88t-1 72t4 88v206l2 31q0 7 11 17
t48 -9q2 -6 2 -24v-658l2 -12v-65z" />
    <glyph glyph-name="i" unicode="i" horiz-adv-x="290" 
d="M176 119v-99q0 -18 -9 -22t-34 -4h-12q-12 0 -12 39v37l2 28v138q-6 57 -5 83l5 72v299l2 39v37q0 31 -4 92v47l-3 35v78l3 127q2 29 2 90v156q-2 2 -2 4q0 35 16 39h-2q39 12 49 -13q10 -51 6 -151l-2 -60q-2 -23 -2 -73v-121l2 -53v-23l2 -104v-58v-10l-2 -240
q0 -49 -2 -71v-80l-2 -41v-137l2 -21v-20q2 -10 2 -39z" />
    <glyph glyph-name="j" unicode="j" horiz-adv-x="491" 
d="M319 526q0 60 5 70v20l-2 54q2 27 2 80v131q2 51 2 157v37l-2 12q2 45 2 139t-4 146v25q0 20 14 35q37 14 53 -7q2 -6 2 -34l-2 -31q2 -33 2 -103v-536l-2 -33v-61q-2 -43 -2 -125v-185q-2 -18 -2 -62t-20 -98t-31 -69v2q-8 -20 -31 -43q-13 -23 -38 -33t-33 -14t-43 -10
q-81 -14 -164 24q0 2 -9 6v-2q-16 10 -30 31q-21 24 -21 51q4 23 41 27q18 0 23 -16v-2q2 -2 2 -5q10 -10 10 -16q31 -37 78 -39t85 11q38 12 52 26t26 34q38 64 37 171v63l-2 6l2 21v145z" />
    <glyph glyph-name="k" unicode="k" horiz-adv-x="581" 
d="M199 711q34 -51 55 -72q0 -4 8 -11q8 -8 12 -16t10.5 -17t8.5 -13h-2q2 -4 7.5 -13.5t10.5 -21.5h-2l23 -37q2 -6 8 -13.5t6 -9.5l23 -49q2 -4 8 -15t8 -15l10 -21q4 -6 23 -37l59 -114h-2l16 -25l7 -10l8 -21l-2 2q20 -47 41 -69l12 -21l10 -35q10 -25 10 -40t-14 -17
l-43 -2q-16 0 -24 27l-2 2q0 7 -15 39l-14 32q-4 8 -4 17q-10 18 -17 26l-22 47l-4 13q-14 20 -15.5 25t-3.5 7l-18 31h2q-8 10 -16 27l-29 57q-2 2 -4 8.5t-13 19.5q-10 13 -13 23t-19 43l-15 30q-16 30 -21 38t-6 11q-4 12 -14 22l-10 24v4q0 7 -8 17t-18 20l-17 27
q-4 4 -4 6q0 -27 4 -47v-78l2 -33v-34q-2 -23 -2 -51t2 -40v-6q2 -6 2 -8v-84q-6 -30 0 -63v-60l-2 -16q0 -8 6 -40t-8 -77q-8 -16 -61 -2q-8 8 -4 33v86l-4 37v67q-2 14 2 43v39q-2 49 -2 178v170l2 29v221q2 27 2 93t-2 98v280l-2 25q0 23 16 33q31 8 45 -5.5t12 -42.5
l-2 -32l-2 -64q0 -27 4 -92v-51q-4 -37 -2 -60v-24l2 -14v-17l-2 -24v-37q4 -41 4 -75t-2 -52v-43q2 4 7 12t7 13t13 21.5t22 47.5l15 29l18 43q2 2 8.5 14t10.5 18l-2 -2q16 31 22 52l12 30l29 56q27 43 37 67t14 32t9.5 15.5t7.5 12.5v4l8 10l51 106l8 21q1 13 14 27
t36.5 9t29.5 -22q0 -13 -11 -33t-20 -40q-8 -20 -14 -30q-6 -9 -10 -17.5t-9.5 -17.5t-7.5 -16t-14 -32v2l-12 -25q-1 -12 -13 -32t-16 -29l-20 -41q-6 -6 -11.5 -19.5t-7.5 -15.5t-6 -10t-8 -14l2 2l-3 -9l-16 -32q-8 -16 -10 -23l-35 -74q-6 -6 -11 -20t-10 -21.5
t-7 -11.5t-8.5 -13t-8.5 -14l-22 -40l-29 -41q-14 -27 -22 -39z" />
    <glyph glyph-name="l" unicode="l" horiz-adv-x="360" 
d="M170 989v-219l2 -63v-150q0 -72 2 -108l2 -33v-68l-2 -35q0 -59 -2 -88v-110q-4 -37 -2 -43h10l23 -2q16 0 61 4h10l23 -2h45q27 0 25 -31t-11 -37q-2 -4 -22 -4h-164q-45 0 -49 4q-18 20 -15 55v131q0 70 3 107v590l-3 198v258l3 11v8l-3 22q-6 27 11 43q6 4 26.5 4.5
t24.5 -7.5t4 -29v-17q2 -31 -2 -86v-61l-2 -64l2 -30q2 -12 2 -50v-61z" />
    <glyph glyph-name="m" unicode="m" horiz-adv-x="763" 
d="M653 166q0 -45 2 -64l2 -28v-31q0 -43 -18 -43q-5 0 -21 -4t-24 6v-2q-8 4 -11 51t1 73t2 42l-2 55v25l-2 26v37l2 39v29l2 35v32l-2 33q-4 57 -4 183t4 184v24l-2 25v33q2 10 2 30v95q0 2 -1 6.5t-1 7.5l-4 -23q0 -6 -6 -28l-17 -72q-8 -33 -14 -70l-6 -36
q-8 -37 -11 -56l-10 -71l-6 -52q-5 -44 -21 -108l-8 -39q-6 -25 -7 -30l-4 -29q-5 -25 -9 -42t-4 -37t-6 -34l-27 -186q0 -18 -2 -25l-2 -57v-2l-2 -2v-4l-8 -39q-18 -39 -62 -11l-14 15q-6 14 -6 31q0 16 -3 26t-4 29l-6 37q-4 36 -11 76t-9 55.5t-4 23.5l-7 51
q-8 52 -10 64l-8 43l-4 43l-22 137q0 22 -5 29q-4 20 -5 30l-12 68q-9 59 -13 99t-8 75l-9 78q-2 23 -6 80v-90q0 -47 -4 -133v-33l-2 -33v-57q-4 -27 2 -66v-151l2 -41q4 -104 2 -156l2 -92l-2 -33q-4 -45 2 -84v-78q4 -31 0 -45q-6 -10 -35.5 -10t-33.5 7q-13 22 -4 46v-2
l2 2v58l2 14v35l-2 18v141q0 57 2 89v22l-2 21v86l-2 41v34l-3 35q0 35 5 101q0 68 -3 93t1 72v281q0 145 8 221q2 14 40 24.5t48 -44.5q12 -78 16 -115l4 -45q0 -27 6 -45l13 -88q18 -130 19 -172q1 -43 26 -195l24 -155q-6 4 -2 -12l8 -31q4 -16 7 -23l6 -31v-4l2 -4v-8
q8 -68 18 -113l4 -30q4 -18 8 -56t5.5 -44.5t1.5 -10.5l14 154l2 34q2 12 19 107l4 22q0 11 4 19q4 37 7 45t6 19.5t3 14.5l8 36q4 20 8 53l7 43q4 20 7 39.5t5 27.5l10 56q0 29 12 65l7 25q2 8 5 30.5t8 42.5t6 36t19 98l13 43q2 8 6.5 32t11.5 46q8 22 12 83q-4 35 27 56
q12 8 47 -8q12 -8 6 -66v-412l-2 -169q-2 -169 0 -189v-47l2 -143l-2 -64v-176z" />
    <glyph glyph-name="n" unicode="n" horiz-adv-x="667" 
d="M141 1149v-53l2 -160l4 -252v-113l3 -22v-111q0 -80 2 -119v-178q0 -59 4 -67v-13q6 -41 0 -57q-8 -14 -24 -14t-28 4q-31 20 -28 47v106q0 330 -4 484v43l4 284q0 305 -8 435l2 20q0 8 12 21h4q33 16 47 -11q0 -16 10 -26q27 -47 27 -82h4l55 -154q27 -81 43 -121
l37 -98q6 -16 25 -78q0 -20 27 -92t34 -105q8 -32 9.5 -32t5.5 -19t11 -42t13 -56l21 -80q2 -10 5 -18l19 -70l3 -12l6 -36q1 -6 1 -15q2 0 3 -2v69q-3 60 0 242l-3 102v107q0 41 -2 73t2 121q4 88 0 180t3 210v16q0 20 12 33q27 6 43 -4q12 -23 8 -60v-16l2 -12v-15
q-4 -70 0 -108v-305l-4 -72q8 -195 4 -248v-31l-2 -32v-62l-2 -20v-301q-3 -18 2 -52q0 -27 2 -43v-8q4 -47 -16 -47l-19 -2q-4 0 -15 -3t-15 11l-15 58l-14 71q0 10 -14 56l-17 61q-14 74 -26 118l-31 111v-2q-2 8 -7.5 26.5t-7.5 29.5l-30 106q-2 25 -13 47l-14 53
q-12 35 -14 49q-1 14 -11 34q-10 22 -14 34t-16 52t-21 59l-18 55l-19 51q-2 4 -5 12.5t-12 30.5t-19 60q-10 39 -19 55q6 -24 6 -86z" />
    <glyph glyph-name="o" unicode="o" horiz-adv-x="655" 
d="M88 942q0 53 6 98q6 44 12 126t50 165l18 37q18 35 94 68l2 2h10q9 0 21 6q39 16 102 -8q23 -8 52 -35t47 -61t33 -103q16 -57 20 -154q4 -96 6 -112l6 -64l6 -164l-2 -26v-25q-6 -80 -6 -119v-124q4 -27 0 -50q0 -25 -4 -53l-2 -59l-6 -60l-6 -30q0 -12 -2 -19l-6 -26
q0 -10 -7 -23q-14 -14 -14 -29q-8 -23 -20 -39l-15 -16q-4 -4 -12 -16t-39 -25h-2l-4 -2h2q-6 -6 -42 -14t-84 4t-61 20t-26 25l-20 22l-13 17q-12 14 -32 45q-43 88 -62 270q0 20 -2 33l-2 29v16q-4 98 -4 178v53l2 60q0 123 6 168v14zM154 956v-26q-2 -6 -2 -12v-199
l-2 -27q-2 -43 1 -94t3 -64l6 -147q9 -122 24 -168q0 -6 4 -14l13 -29q4 -6 13 -28t26 -37q16 -20 34 -33q45 -37 84 -37q59 10 73.5 35.5t14.5 27.5l17 33q16 16 16 49l2 43q4 20 4 27l2 20l7 39q0 20 5 50t1 116l-2 64q0 76 2 114v197l-2 43v35q0 16 -4 45v8l-5 27v61
q0 35 -2 49l-10 74q-18 104 -51 141l-8 13q-12 12 -32 23t-21 11q-103 24 -142 -71q-29 -59 -40 -90t-13 -73t-3 -71t-7 -45t-6 -80z" />
    <glyph glyph-name="p" unicode="p" horiz-adv-x="446" 
d="M170 290q0 -74 2 -110v-65l2 -74v-31l-16 -12q-10 -8 -41 4q-10 8 -8 26t2 23l-2 4v68q0 51 2 70v563q0 43 2 59v47l-2 19v274q-4 41 0 78v192q16 12 45 13h12q70 0 134 -64t87 -121q37 -80 37 -180q0 -33 -8 -78l-6 -41q-4 -29 -9 -34l-8 -17q-2 -2 -18 -26h2
q-17 -28 -33.5 -36.5t-30.5 -20.5q-15 -13 -23 -17l-50 -25l-52 -20l-16 -4q0 -82 -4 -254v-39l2 -8v-9q4 -29 1 -55q-3 -25 -3 -99zM174 815q12 0 29 10q15 9 37 17l14 10q4 0 10 6l12 6q17 14 31 32q15 20 25 32q34 41 24 178v12q-4 60 -10 74t-8 19.5t-7 20.5t-9 19
t-10.5 13.5t-10.5 19.5t-10 15t-10 10l-11 8q-16 23 -45 39t-51 18v-69l-6 -119l6 -160v-82l2 -31l-4 -53l2 -26v-19z" />
    <glyph glyph-name="q" unicode="q" horiz-adv-x="567" 
d="M541 -2q-10 0 -27 12v-2q-10 6 -53 49q-6 10 -10 11q0 -33 -35 -52l-19 -8l2 2q-18 -12 -55 -12h-18l-21 -2h-31q-6 -2 -8 -2h-38q-37 0 -67 34t-48 91l-19 63v-2q-8 16 -8 76v12l-4 37q0 55 2 78v104l6 187v63v25v158v49l2 18v180q0 37 14.5 98.5t14.5 77.5l16 39
q41 61 156 62h29q23 0 65 -25l31 -30q20 -19 26 -46l5 -12q0 -3 10 -39l19 -70q18 -71 18 -116v-125l-2 -45v-43l-9 -217v-107l2 -14l-16 -319v-35l-2 -29l-1 -28q-1 -29 8 -34l50 -26l39 -33q5 -3 5 -21t-25 -32h-4zM428 809v43l2 115v41l2 45q0 137 -37 254l-8 16l2 -2
l-8 14v-2q-17 31 -25 35l-24 12q-23 11 -33 11q-80 -4 -103 -31t-28 -88v-12l-14 -201l2 -45v-47l2 -56v-55l-4 -125l2 -194q-6 -80 -6 -84v-41q0 -45 -3 -58q0 -79 3 -90q2 -10 3 -25.5t5 -23.5l12 -43q4 -27 14 -47l17 -31q12 -27 34 -33t46 -6l79 11q37 8 37 51
q-6 10 -24 22l-74 58l-33 32q-28 23 -28 34t30 32q13 0 22 -9l56 -46q12 -6 29.5 -26.5t27.5 -27.5q2 16 7 115l6 98q4 35 4 105l2 59q6 117 6 246z" />
    <glyph glyph-name="r" unicode="r" horiz-adv-x="538" 
d="M483 57q-8 16 -8 23l-12 24l-6 15q-14 49 -41 106l-13 31q-4 16 -11 28t-7 20q0 9 -3 13t-9 19.5t-8.5 19.5t-12.5 28t-13 32l-10 26l-17 42q-10 24 -38 106q-10 10 -14 37l-2 2v2q-16 33 -23 57t-14 39l-6 25q-8 39 -14 47l-25 -8v-562q-2 -12 -2 -36l2 -3v-14
q2 -23 2 -90l-2 -70q0 -18 -38 -18t-27 72v227l2 37v33q-2 61 -2 243t-5 289v37q2 17 0 141l3 35v135q0 59 -3 86v51q0 31 12 41q33 29 103 -22q21 -10 21 -12v2q36 -19 46 -29t25 -20q22 -16 49 -54h-2q11 -13 18 -29t16.5 -31.5t21.5 -84.5l4 -31q13 -79 2 -102l-6 -47
q-16 -49 -56 -85t-65 -46l2 2l-23 -11l-24 -8q2 -2 8 -14l37 -96l13 -40q5 -16 20 -46l75 -195l37 -88l35 -96l4 -13q0 -4 4 -12l17 -31q0 -10 9 -26t11 -29q12 -18 17 -31v-4l26 -55q4 -31 2 -35q-14 -14 -47 -8q-23 18 -35 57v2zM172 1272v-62q0 -40 2 -102t-1 -90t1 -62
v-59q-4 -25 0 -53q29 4 76 30l37 19q30 28 55 61h-2q29 43 25 121v19q-10 41 -11 61q-4 8 -4 16t-10 33v-2l-6 12q-2 12 -9 24l-12 19q-2 0 -20 29q-8 8 -15 16t-42 29l-19 12l-2 3h-4l-39 26l-2 2v-41q2 -18 2 -61z" />
    <glyph glyph-name="s" unicode="s" horiz-adv-x="440" 
d="M303 1225q0 8 -4 24l-6 33q-14 70 -57 98l2 -2q-39 18 -68 0l-9 -6l-32 -20q-5 -8 -21 -25t-16 -78v-84q10 -30 10 -47.5t37 -89.5l17 -37q2 -2 8 -14l10 -21q4 -8 5 -12t46 -72h-2q31 -40 51 -90l21 -55q7 -23 19 -46l24 -46q4 -12 19 -48t40 -124l9 -31l6 -33l4 -26
q8 -39 8 -95t-2 -106q-2 -51 -19 -82q-2 -18 -17 -34t-21 -23l-19 -21q-9 -9 -39 -20q-31 -12 -85 -4t-68 26q-47 41 -48 115q0 10 -4 31l-2 26v35l2 12v27q0 53 29 50t39 -13q2 -25 -3 -68t3 -61v-10l2 -13q0 -6 2 -12q8 -53 36 -79t71 -7q4 0 12 8l10 4l6 7l4 4q4 2 6 4
l19 24q12 14 16 64v26l2 13l2 55q2 82 -16 164q-16 94 -84 237l-14 29q-20 47 -33 68q-8 20 -10 24l-23 43q-12 18 -19 38t-20 32l-10 16l2 -2q0 2 -2 4l-16 27l2 -2q-2 4 -18 32.5t-36 76.5l-32 90q0 8 -4 16l-5 41v41q0 35 5 51l6 27q4 10 5 15t5 9l6 15q2 2 8 11t8 11
l13 16q18 29 38 38t23 10q37 18 94 10q20 0 27 -6v2q16 -10 31 -23l20 -20q63 -96 55 -207q-2 -32 -3 -36t-1 -7l-2 -6q0 -23 -18 -23q-4 0 -20 -3t-21 2q-4 5 -4 20v18l4 27v10q4 25 4 33z" />
    <glyph glyph-name="t" unicode="t" horiz-adv-x="438" 
d="M315 1370h-26l-33 2v-155q0 -61 2 -87v-83q4 -74 4 -252t-4 -267v-45l2 -20v-148l-2 -69v-183q0 -43 -2 -53q-6 -12 -41 -12h-8q-18 0 -14 18v25l-3 8v299l3 35v141q2 25 2 84v148l-2 61v57l-3 23v100q-2 12 -2 45v52l2 34q0 57 -2 86v72q0 55 -2 88h-12l-162 -2
q-12 -2 -15 7.5t-3 31.5v10q0 10 37 11h57l12 2h232l14 -2h35q41 5 49 2q6 -6 6 -13l2 -2v-3l2 -13q0 -23 -10 -27q-78 -6 -115 -6z" />
    <glyph glyph-name="u" unicode="u" horiz-adv-x="651" 
d="M217 14l-47 37h2l-8 12v3l-6 12q-21 21 -21 45q-4 13 -9 25t-9 33l-9 45t-14 71q-12 96 -12 264v215l2 74v221q-2 45 2 125v199q0 43 23 45q39 4 39 -31v-10l-3 -15v-45l3 -10v-12q0 -35 -3 -47q0 -139 3 -160l2 -47v-98l-2 -54v-127l-3 -20v-238q0 -15 5 -65v-70
q0 -31 2 -43l2 -22q5 -76 13 -93q9 -18 9 -23t6 -17v-3q9 -9 9 -24l10 -27q19 -53 43 -69q61 -33 95 -24t46 20l27 26l16 17l8 18l8 23v6l9 26l20 70q0 20 4 29v2q4 4 4 32t5 67t10 169v231q-4 55 -2 80l8 146v67l-4 144v34l-2 33v113q0 25 12 37q20 8 45 0q16 -16 10 -54
v-458q0 -20 -2 -27v-10l-2 -13v-18l2 -22v-242l-2 -43q0 -137 -6 -177t-6 -53v-22q-4 -35 -8 -49l-13 -51l-8 -25l-2 -4l-2 -2v-8q0 -6 -2 -8t-10 -17q-8 -14 -8 -17.5t-4 -7.5t-9 -16l-12 -22q-8 -16 -18 -25l-15 -16q-59 -59 -164 -35q-5 1 -57 20z" />
    <glyph glyph-name="v" unicode="v" horiz-adv-x="505" 
d="M414 1382q0 36 18 54h12q6 -4 21 -3t19 -5t5 -19l-26 -156q-10 -61 -14 -100l-11 -76l-6 -35q0 -13 -8 -61l-14 -127q-4 -44 -12 -100t-13 -109q-8 -45 -18 -125l-31 -184q-6 -43 -10 -60t-9 -55l-4 -22q-4 -12 -4 -33t-2 -33l-4 -23q-2 -12 -4 -16l-6 -43q-6 -18 -6 -24
t-4 -19q-18 -27 -58 -16q-18 16 -18 51l-37 231v9l-2 2q0 5 -1 11l-8 36q-7 30 -9 46t-15.5 85.5t-40.5 247.5l-8 55q-17 102 -22 160q-5 59 -9 88l-6 43q-4 37 -4 59v17q-12 84 -12 102q-6 29 -13 115v26l-2 4q-5 25 2 35q14 14 37 8q16 -2 19 -32q8 -8 9 -37t2 -40l12 -94
q3 -24 14 -133l10 -90q9 -114 51 -391l47 -239q8 -41 17 -107l10 -59v-17q2 35 10 68l4 24q2 8 2 21l31 164l8 63l6 62l17 110q8 76 14 121l4 33q4 16 7 53t21 187t27 188q0 27 9 55zM254 147q0 2 -2 3z" />
    <glyph glyph-name="w" unicode="w" horiz-adv-x="526" 
d="M397 500l6 196q0 50 5 86l4 58q0 39 6 90v16q4 53 4 78v6l6 94q4 37 4 56l10 219q-6 19 6 31t27 6q10 0 19 -4l16 -13l-10 -192l-23 -357l-8 -176l-2 -30v-29q-6 -76 -8 -196q-1 -120 -13 -213t-12 -141t-8 -69q-31 -31 -49 -16q-16 16 -17 39l-8 102q-4 16 -8 56v12
l-6 45l-19 182l-14 148q-8 32 -8 82l-2 30v13q-6 12 -8 50t-6 64l-13 135q-8 -132 -13 -162t-5 -36v-41q-6 -30 -6 -49l-6 -62l-2 -38q-3 -38 -7 -76t-8 -111l-6 -102q0 -23 -2 -33l-4 -58q0 -18 -4 -47q0 -35 -6 -65q0 -60 -16.5 -77t-35.5 -7q-20 18 -20 37t-3 45l-7 59
q0 8 -1 13l-7 55l-13 166q-6 111 -26 327l-9 76q-2 10 -8 72v12q0 48 -6 84l-4 82v18l-23 297v6q-2 8 -2 31l-2 25q-6 27 2 31q14 6 34 4t22 -15q8 -43 12 -137t10 -170l8 -100q4 -72 12 -140t13 -137v-12l7 -69q7 -69 11 -205v-19l3 -59q0 -39 4 -88l6 57l6 102q0 39 4 84
l2 29q0 27 4 55l4 52q4 74 8 108l11 102q10 76 10 146v16q6 57 6 99q0 93 6 114l2 25q0 25 2 33v108q0 14 13 21l-2 -2q29 14 55 -9q8 -18 6 -34v-31l2 -39q0 -29 4 -62l4 -63v-12l2 -21q0 -41 2 -53l6 -66q31 -240 37 -368q12 -82 22 -203t15 -166v6l2 107z" />
    <glyph glyph-name="x" unicode="x" horiz-adv-x="407" 
d="M276 1133v8q8 59 12 73t6.5 29.5t6.5 26.5l6 30q23 102 26 110t3 11l10 17q14 8 37 -6.5t14 -26.5h2q-4 -8 -10 -29l-4 -26q-8 -20 -10 -31l-6 -23l-4 -24l-13 -58q-2 -14 -8 -44t-12 -72t-17 -74q-4 -45 -14 -78l-6 -20q0 -6 -4 -16t-8 -36t-23 -92t-33 -129
q33 -147 47 -202l62 -267q4 -8 4 -20t6 -23l10 -32q0 -17 6 -29q0 -8 5 -21l8 -28q6 -23 -2 -31q-4 -2 -19 -2h-26q-21 0 -21 35l-26 100l-5 29l-20 86q-10 27 -14 48q-10 52 -14.5 66t-8.5 42.5t-18 70.5l-6 31l-7 -51v-4q-7 -15 -10 -54q-6 -14 -10 -39l-8 -59
q0 -12 -4 -25l-6 -24q-10 -43 -27 -128l-19 -95l-2 -19q-10 -14 -20 -14h-10q-20 0 -30 5t-4 27q7 22 7 33l10 47l2 5v6q6 20 8 43t16 88q13 64 16 75t9 42l9 41q6 53 12 59v4q12 74 35 184l-21 101q-16 78 -26 120l-15 64l-10 47l-6 40q-6 40 -10 54l-19 99l-18 79l-2 17
q0 23 -6 35l-13 59l-4 14v-2q-18 41 6 50q35 8 42.5 4t9.5 -18t7 -41t7 -41t6 -30t4 -20l39 -182q4 -14 5 -20l14 -66l17 -90t30 -135q14 53 23 99t18 73l2 2q0 1 9 37t11 55t6 33l6 24q2 14 2 19z" />
    <glyph glyph-name="y" unicode="y" horiz-adv-x="454" 
d="M385 1391l4 25q0 13 16.5 17.5t32.5 -4.5t19 -20q4 -10 -8 -35v2q-7 -7 -7 -14l-8 -21q-4 -8 -14 -53t-21 -67l-4 -21l-4 -16q-4 -6 -5 -16t-9 -25q-8 -16 -8 -35q-9 -21 -9 -22l-6 -27l-6 -21q-4 -36 -13 -53l-11 -22q-6 -43 -19 -60q0 -6 -6 -12l-8 -25q-4 -4 -4 -14
q-10 -12 -19 -35l8 -385v-53l-2 -57q-2 -39 -2 -113v-197q-27 -27 -47 -14q-16 16 -16 31v2q2 2 2 4v348q0 102 2 152v14l-2 16v33q0 47 -2 70v135l-14 41l-7 12l-14 33q0 4 -6 14l-10 19q-8 11 -17 37q-8 26 -20 59l-23 74q-8 33 -14 49l-18 61q0 16 -7 23q-31 90 -39 110
q-2 14 -12 29h2q-20 31 -10 59q8 10 26.5 9.5t26.5 -11.5h2q12 -16 33 -88l8 -24q2 -6 6 -19.5t7 -19.5l10 -51l10 -29q0 -9 7 -25t18 -49l2 -2v-6l12 -41l49 -123q3 -5 10 -31q4 0 4 -8l5 -8q2 4 2 6t4 6q0 4 7 14t27 89l7 22q2 6 5 21t7 28l12 41l1 6l8 36q8 30 9 33
t3.5 23t15.5 58l21 61q4 16 18 45v3z" />
    <glyph glyph-name="z" unicode="z" horiz-adv-x="387" 
d="M125 1380q-39 0 -39 13q0 35 8 39h-2q10 8 39 5t43 -3l6 -2h39l37 2h74q18 0 26.5 -2t15.5 -21t-4 -67l-14 -64q0 -9 -5 -26t-11 -44l-31 -147q0 -17 -8 -45l-10 -39l-4 -21q-6 -18 -8 -33q-1 -15 -5 -27t-5 -12.5t-1 -2.5l-6 -27l-2 -4v-4l-8 -39l-14 -59q0 -6 -5 -15
l-12 -43l-12 -78q-2 -4 -2 -12l-10 -43q0 -14 -7 -27q0 -14 -2 -18l-12 -43q0 -35 -4 -40q-12 -15 -18 -44q-17 -50 -17 -68v-2q-4 -12 -4 -34v-4q-2 -4 -2 -7l-6 -22q-2 -4 -2 -14.5t-4 -26.5l-6 -25v-18l-19 -76q-6 -6 -6 -29q41 -4 92 0l41 2h37q33 0 66 -4q23 -4 18 -39
q0 -18 -25 -18h-65l-19 -2h-96l-31 -2q-43 0 -65 6q-25 4 -25 28t11 64l6 23q2 2 8 26q12 82 33 166l6 45l6 21q4 16 4 24l31 125l26 138q0 16 2 20v2q7 7 7 23l8 30q4 25 10 33l-2 -2l12 49q2 9 6 23t5 18l6 33l10 29q-2 0 4 22v2l2 4l6 35v2l25 86q0 24 14 78q14 53 16 80
q4 13 10 39t12 44q7 18 13 64q-35 6 -90 2h-96z" />
    <glyph glyph-name="braceleft" unicode="{" horiz-adv-x="335" 
d="M111 147l-2 69q0 28 4 69l2 34q4 49 4 72q4 104 -21 158q-8 18 -28 49q-8 4 -20 12q-29 20 7 56l13 6q12 16 12 88v176l-2 59v168q0 63 4 88q8 72 63 138q23 23 37 29t19 12q8 4 41 4t35 -25q0 -29 -50 -41l-24 -10q-16 -16 -23 -21q-20 -23 -32 -104l-3 -4v-4
q-6 -43 -6 -97l2 -30v-29l2 -35v-73q0 -25 5 -82v-17q4 -53 4 -104t-11 -92q-8 -12 -16 -27q8 -12 10 -16l10 -19q0 -2 4.5 -6t6.5 -6l10 -29q21 -102 8 -237l-2 -29q-4 -45 -4 -70l2 -28v-31q2 -18 2 -66v-18q4 -66 14 -100q8 -16 48 -43q16 0 34 3t25 -14q18 -37 -37 -45
q-2 -2 -28 -2q-26 -1 -50 15q-23 16 -26 22q-20 17 -30 40q-11 24 -11 112v45q-2 2 -2 6t2 6q0 2 -1 2t-1 2v14z" />
    <glyph glyph-name="bar" unicode="|" horiz-adv-x="331" 
d="M203 1268v-78l-8 -223v-252l2 -21v-125l8 -180v-29l-2 -28v-15l-2 -14l4 -194l-4 -78v-35l-4 -115v-6l-2 -20v-134q0 -24 6 -36v-13q4 -43 -1 -57t-27.5 -17.5t-39.5 9.5v24l-4 138q0 90 2 122v80q0 57 2 82v203q4 78 4 137l-8 199v57q0 80 -2 119v221l2 43v21l-2 16v10
l2 13q0 10 6 22v4q6 16 4 25q-8 4 -10 16l6 131l-6 82q4 14 0 53l-2 2v5l4 79h14l15 9t37 -21q6 -166 6 -231z" />
    <glyph glyph-name="braceright" unicode="}" horiz-adv-x="342" 
d="M227 1110q0 -19 4 -51v-17q0 -25 -4 -61l-2 -31q-4 -45 -4 -67q-5 -122 17 -158.5t26.5 -45.5t20.5 -23q16 -15 18 -19q0 -11 -11 -25t-20 -18q-10 -25 -14 -90v-180l2 -58v-133q0 -72 -4 -106q-12 -86 -66 -146q-12 -10 -21 -16t-13 -10.5t-20 -9.5t-28 -10
q-13 -5 -32 2.5t-21 25.5q2 25 35 33q10 0 16 6q30 9 41 20q43 43 48 213v43l-2 47v264q0 74 2 109q6 6 13 16.5t11 14.5l-20 20q-4 4 -11 17l-4 14v-2q-4 8 -4 10q-28 56 -22 189q0 33 4 65l2 25q4 41 4 100t-4 141v31q0 57 -12 90q-14 27 -52 43q-18 0 -36 -3t-25 13
q-18 39 47 50q47 8 82 -23l22 -23q14 -14 22 -36t13 -103l4 -57l-2 -41q0 -2 2 -10v-9l-2 -12v-8z" />
    <glyph glyph-name="asciitilde" unicode="~" horiz-adv-x="604" 
d="M360 618l18 6q19 7 24 12t20 5q2 2 7 6l7 5.5t16 7.5t33 -1.5t21 -19.5q9 -37 -33 -45q-25 -4 -33 -12l-18 -2q-15 -15 -29 -15h-2q-2 -2 -4 -2l-18 -6q-31 -2 -80 21l-19 8q-36 12 -58 12t-32 -2l-24 -12q-14 -14 -31 -17q-25 6 -31 29q0 20 19 31q4 6 11 9t13 9l17 4
l12 4q4 0 8 4l21 5q20 0 49 -5l65 -24h-2l31 -12q18 0 22 -3z" />
    <glyph glyph-name="uni00A0" unicode="&#xa0;" horiz-adv-x="385" 
 />
    <glyph glyph-name="exclamdown" unicode="&#xa1;" horiz-adv-x="346" 
d="M137 315l-2 101v2q-4 8 -4 22.5t2 20.5v-2q2 0 1 3t-1 13l-6 74q-2 8 1 18t3 17v22l2 15v12q-2 12 -2 44t16 50q11 4 48 4l20 -57q-10 -62 -3 -104t3 -107v-25l-2 -26v-21q2 -2 2 -10v-322l-2 7q4 -57 4 -111l-2 -12v-29q0 -13 4 -45v-14l-4 -111v-49q14 -101 -25 -101
q-33 4 -38 21q-6 12 -7 43v29q-4 12 -4 22v15q0 12 -2 20l2 8v10q2 4 -2 23q4 25 4 100v15q-4 24 -4 47l4 18l-4 47q-4 20 -4 45q-2 25 -2 86l-2 7q4 53 4 106v2l-2 4v10q0 13 4 33v10zM209 1003q0 -19 -4 -44t2 -62v-10l2 -6v-13q4 -16 4 -29t-25 -18l-8 -4h2
q-25 -12 -49 25q-6 16 -3 40t3 41t-5 43t5 52q10 18 43 11t33 -26z" />
    <glyph glyph-name="cent" unicode="&#xa2;" horiz-adv-x="581" 
d="M346 1196q0 -89 -22 -129h10q2 -41 2 -135v-49l2 -56q0 -51 -4 -153v-195l-2 -76q0 -55 2 -77v-13q0 -2 -2 -6l-4 -248q33 0 51 15l18 16q22 29 36 29t20 6q14 4 43 -21q18 -20 -39 -53v2q-1 -1 -23 -12l-20 -16q-4 -5 -54 -25l-32 -6q-2 -12 -2 -82v-70q-8 -6 -32 -6
t-32 8q-6 41 -2 99v55l-37 16q-2 0 -2 2l-35 15q-18 10 -32 39l-11 26q-4 8 -12 41t-14 45l2 -2q-8 16 -10 30t-4 62q-3 47 -7 73q-4 27 -10 111t-6 89v119q0 106 10 186v18q0 52 6 88v11q2 27 13 88v4q2 4 2 6l8 41q0 20 6 27q0 16 6 34q4 33 10 45v5q29 72 42 93t65 72
q23 13 26 13l5 65q4 41 4 66q10 10 31.5 13t31.5 -9v-68q0 -27 -2 -37v-18h21q32 -8 39 -8q66 -33 49 -64q-10 -10 -26.5 -10t-28.5 8q-12 7 -31 15q-20 8 -25 6v-90l2 -33v-35zM166 975l-12 -150v-32q0 -96 -2 -142v-141l4 -72q0 -39 6 -69l4 -60q8 -145 39 -196l4 -11v2
q6 -6 8 -12t5 -10t5 -6t6.5 -5t8.5 -6.5t18 -3.5q6 66 6 189v49l2 16q0 8 -2 13v12l-2 4q0 17 4 41v117l2 12v12q2 43 2 136l2 47v65l-2 4q0 82 2 123v62l2 63q0 27 -2 43l2 25v200l-4 23q-18 -18 -30 -49q-33 -36 -40.5 -83t-15.5 -61l-5 -24q-5 -24 -8 -58t-5 -45v-10z
" />
    <glyph glyph-name="sterling" unicode="&#xa3;" horiz-adv-x="581" 
d="M166 690l-33 -2l-4 -2q-68 -13 -87.5 24.5t26.5 39.5h16q8 2 37 2h24l-18 47q-4 8 -10 14q-27 52 -27 68l-4 10v-2q-16 33 -16 51t-9 55l-6 35q0 18 -9 101t15 161q14 37 29 54q4 10 16 26l13 19q55 59 96 59l16 2h15q66 6 101 -26q34 -32 44 -52v2q2 -2 4 -10t4 -10
l9 -19q4 -6 4 -34.5t-4 -65.5v-14q-4 -38 -19 -49l-45 14q-6 14 0 46t6 46q-6 18 -6 35l-8 24q-4 3 -5 9t-18 26l-4 8q-14 14 -44 19t-68 -23q-6 -4 -11 -10q-22 -14 -26 -24t-13 -17q-4 -8 -10 -14q-28 -60 -28 -135v-25l-3 -8v-10l7 -45v-21q0 -18 6 -37l4 -24
q0 -10 2 -17l4 -24q4 -27 6 -31l12 -35v-4l3 -4l4 -8l6 -17l18 -39l6 -14l11 -31l14 -34h47l12 -2h23q10 0 18 2h10l19 2q33 -4 38 -14t1 -29q-4 -4 -4 -9q-12 -25 -66 -16q-8 2 -24 2h-54l9 -12q0 -6 4 -10l4 -19l12 -43q8 -15 21 -62q14 -47 14 -63l2 -8v-6q8 -41 8 -74
t-4 -71t-6 -63.5t-6 -35.5t-4 -21t-2 -16v2q-4 -4 -5 -6v-10q0 -3 -6 -24t-10 -25v-2l-4 -15l-4 -4h8q61 7 96 -10q4 -2 17 -5t28 -11q6 0 11 -4h4q25 -12 45 -10.5t57 22.5v-2q39 23 62 6q16 -25 -9 -43q-8 -8 -30 -21l-41 -14q-28 -12 -48 -12t-24 4h-4q-8 2 -23 2l-67 25
q-20 6 -33 16l2 -2q-42 10 -56 0t-16 -12h2l-26 -17v2q-12 -10 -34 -8t-23 16q-8 11 -2 20t9 15t17 21q10 16 16 33l3 2v6l24 73v7q2 3 5 21l7 42v10l2 13l7 61v80q-34 154 -42 170t-8 27.5t-22 68.5z" />
    <glyph glyph-name="yen" unicode="&#xa5;" horiz-adv-x="487" 
d="M61 664h109v26q-27 4 -80 0h-22l-25 -2q-29 12 -29 37q2 25 45 29h86q12 0 21 2q0 14 -6 30l-6 23q-2 6 -2 18v17q-9 9 -9 30l-6 31l-4 35q0 15 -6 27q-12 76 -31 163l-12 66q-6 35 -14 59l-23 80q-10 20 -10 27l2 -2q-27 43 -12 63q27 20 59 -6q10 -33 16 -57l9 -31
l10 -41q2 -2 2 -9t2 -9l-2 2q21 -42 31 -115l10 -55l4 -6v-15q10 -15 10 -39l4 -32q15 -44 21 -94t10 -66q2 2 2 4l2 6v8l33 72v6q8 20 12 29l12 31q6 16 16 48l10 35q11 35 13 43t5.5 18.5t3.5 14.5l6 25q0 20 6 35q6 6 6 10l53 156l4 10v4q13 25 19 31t16 6q29 -10 39 -25
q-4 -35 -12 -52l-19 -40q-6 -35 -20 -65l-12 -37q-25 -78 -37 -124t-31 -108l-14 -30l-13 -31l-4 -15q0 -8 -6 -16l2 2q-19 -49 -35 -81t-20 -64h135l12 -8l-2 2q14 -4 21 -19q-2 -43 -37 -43h-33l-41 2l-39 -2h-28v-22q20 -6 57 -2h14l17 -2h61q36 0 51 -29
q-12 -39 -88 -35h-84q-18 0 -28 -2q-4 -53 -5 -72l3 -30v-31l2 -33v-68l-2 -30q-2 -35 -3 -103v-200q0 -25 -24.5 -28t-38.5 7q-9 17 -2 66v8q2 25 2 74v30l-2 29v90q2 27 2 90v203q-45 9 -82 0q-43 0 -61 8l-2 15q-8 10 -7 18q4 25 43 25z" />
    <glyph glyph-name="brokenbar" unicode="&#xa6;" horiz-adv-x="327" 
d="M137 1257q0 33 -3 56t-1 41q23 34 43 22t22 -22t3 -19v-4l-2 -4v-12q8 -16 2 -68q0 -77 -6 -137v-20q-5 -86 -9 -115l-51 -14q-12 12 -8 40l2 31v31l4 121q0 23 4 55v18zM137 297q0 35 -3 57t-1 41q23 33 43 22t22 -21t3 -19v-4l-2 -4v-13q8 -18 2 -69q0 -75 -6 -135v-21
q-5 -86 -9 -115l-51 -14q-12 12 -8 41l2 31v30l4 119q0 22 4 56v18z" />
    <glyph glyph-name="section" unicode="&#xa7;" 
d="M315 1137l1 5l6 29v11q4 25 4 33t-4 24l-7 33q-18 72 -57 98l2 -2q-39 18 -67 0q-6 -4 -28 -17.5t-22 -23.5l-20 -24q-8 -41 -8 -71t8 -91v-23l4 -12v2q21 -65 33 -90l12 -25q10 -14 10 -20t6 -12q3 -12 13 -21q0 -4 10 -14t-4 -15v-4h12q0 -6 10 -16l11 -25l4 -2
q35 -43 63 -125q32 -78 41.5 -93t12.5 -24t16 -34q18 -47 43 -135l8 -31l6 -33l4 -27q8 -39 8 -94q0 -136 -12 -165l-6 -15q-6 -14 -7 -19.5t-3 -7.5q8 -16 8 -28l8 -39l4 -25q8 -41 8 -93q0 -152 -12 -167q-8 -16 -12 -31t-17 -27q-14 -13 -16 -24l-20 -12q0 -7 -25 -23h2
q-54 -14 -106 -7t-64 26h2q-49 43 -49 115l-6 59v72q0 37 14 43v-2q10 6 31 0q8 8 25 -7q1 -25 -3 -63t3 -64v-10l2 -12q0 -6 2 -12q8 -55 30 -78q31 -23 74 -10q6 6 13.5 8t7.5 0q14 14 14 18l24 35q10 12 15 47v25l2 12v12l4 54q3 85 -11 131t-14 61q-6 18 -4 33
q-25 76 -65 162l-21 43q-20 47 -30 66t-13 24l-22 43q-7 12 -17 32t-24 39l-13 23l-12 25q-2 10 -12 22q0 4 -10 23v-2q-41 60 -56 133l-6 18q0 8 -4 16l-4 25v8l-2 4v4q0 18 -5 46t13 61q17 33 17 43q16 16 16 22l18 31q-6 11 -21 51t-18 45l-4 19l-6 18q0 8 -4 17l-4 24
v17q0 10 -4 22q-2 29 6 58t10 39q2 11 4 16l13 4l2 2l-8 8q16 16 16 23l10 12l4 12q12 20 36 34t28 13q37 18 94 11q26 0 36 -10t11 -10.5t12 -8.5q70 -78 74 -170q2 -23 0 -59t-6 -44t-4 -12q-7 -12 -23 -17t-22 -1q-16 16 -17 26v9zM207 516h12q0 -8 10 -18l11 -25l4 -2
q32 -43 62 -119t36 -87t11 -19t7 -14t17 -39l4 53q2 82 -16 164q-16 94 -84 237l-15 29q-20 47 -33 67l-10 25l-12 25l-10 18q-11 16 -19 33t-20 35l-10 20q-8 10 -17 27v2q0 -2 -2 -2l-12 -21l-4 10l-2 -71q0 -35 8 -96v-23l4 -12v2q18 -66 33 -92l18 -35l6 -17q4 -4 6 -11
t17 -21q14 -14 0 -19v-4z" />
    <glyph glyph-name="dieresis" unicode="&#xa8;" horiz-adv-x="587" 
d="M438 1145h-26q-40 0 -80 65q-8 16 -8 39t24 51q0 6 12 13q4 0 9 4l-2 -2q6 10 16 16h-2q31 18 80 0q4 -2 13 -2t15 -14q4 0 7 -2q44 -38 22 -107q-6 -12 -10 -18l2 2q-18 -45 -72 -45zM170 1339q78 -11 78 -75q12 -48 -39 -99q-17 -16 -21 -17t-4 -3q-58 -3 -75 22
q0 -4 -3 -4q-36 9 -47 62v26q-1 13 5 19l16 20l4 8l16 17q2 2 6.5 5t10.5 11t45 8h8z" />
    <glyph glyph-name="copyright" unicode="&#xa9;" horiz-adv-x="473" 
d="M68 944q0 82 8 98v15q0 18 2 22v15q8 143 22 227q20 114 100 121q22 2 56 7t68 -13l26 -21q54 -54 56 -188v-39l4 -156l-4 -125q-4 -74 -5 -112v-82q-4 -86 -4 -127l-2 -66q0 -45 -4 -127l-8 -94l-4 -59v-23q-4 -96 -17 -142q-24 -83 -139 -79q-23 4 -30 8q-8 0 -17 6
l-33 31q-20 20 -26 49q-10 12 -15 21q-32 98 -32 143v12l-2 49q-2 23 -2 62v24l2 15q-6 49 -2 116v177q-5 33 -5 61v64l2 22l-2 2l-2 27l9 39v20zM224 57q3 0 9 -6h5q12 -2 32 6h2q2 2 10 9t11 12v-2q18 37 24 135l5 63l2 19v18q16 223 16 345t4 241l2 57q4 78 4 112t-4 99
v23l-2 22q0 130 -41 174q-43 21 -115 -4q-24 -30 -30 -66q-18 -123 -20 -150q-1 -26 -2 -36t-1 -36v-37q-4 -20 -4 -29l-2 -14l-8 -142l-2 -22v-4q2 -4 2 -6l2 -47q4 -57 4 -67l-3 -112q-3 -101 1 -127v-94l8 -86q-4 -47 23 -166q6 -14 30 -51l2 -6q2 -2 11 -12t18 -11l2 -2
h5zM131 731l-4 89q0 46 4 79v12q6 80 8 90v5q2 4 10 55q14 89 70 117l6 -11q14 14 8 15q3 2 7 2t12 4h12q21 0 28 -6t9 -6q35 -26 31 -41q-21 -21 -47 0q-6 5 -11 6q-41 -10 -59 -81t-19 -105t-6 -78l-2 -21v-18q0 -39 2 -60l3 -30v-43l-3 -17v-57q0 -41 11 -129v-41
q0 -37 16 -71t29 -17q4 7 6 21t12 18q6 0 16 10t15 6q25 -18 20 -47q0 -4 -3 -10t-5 -14t-12 -19l-6 -10q-32 -28 -74 -19q-2 0 -6 2q-31 8 -45 39l-12 27q-23 54 -23 246v104z" />
    <glyph glyph-name="ordfeminine" unicode="&#xaa;" horiz-adv-x="518" 
d="M410 532l4 -62q0 -30 2 -81t-4 -151l-6 -107l2 -16v-76q3 -29 -15 -37l2 2q-27 -20 -51 10h2q-12 14 -8 47l2 2v5l4 22q-12 -12 -12 -27l-27 -36q-12 -14 -45 -31q-27 -10 -51 -10q-74 0 -105 45q-14 16 -18 61l-4 23q-6 13 -8 33l-6 59l2 2v10q-9 9 -11 182l2 48v112
l2 12v33q1 68 11 104t10 54t12 37t15 30q2 12 8 19l31 33q2 2 6 12q6 10 11 12t6 6t3 9l17 6l24 14l4 4h10q16 4 27 10h31q21 0 57 -12l-2 12v76l-6 164v25l-2 28q-4 25 -7 36t-3 30v10l-2 2v6q-2 4 -8 21t-17 28q-43 0 -52 -9t-16 -38l-6 -20v-21q0 -20 -4 -24v-4
q-4 -8 -6 -35t-22 -35q-29 -4 -52 33q-7 53 1 64q7 11 8 18l10 28q6 18 6 38t20 26l31 31l29 8l12 4h-2q23 8 41 -1t29 -9l12 -2q29 -12 45 -48l8 -16q0 -6 6 -16t6 -47v-27q-2 0 1 -22t8 -160v-56q4 -100 2 -153v-232q-4 -78 -2 -120zM276 897q-26 0 -38 -12l-41 -39
q-13 -13 -22 -38l-21 -58t-22 -140q-9 -108 -9 -220t16 -202l4 -26q12 -86 37 -105q8 -8 45 -4q55 29 70 74q10 25 17 33q8 8 10 16t6 12v2l6 31q0 14 6 23v8q0 10 8 18v23q2 90 -3 175t1 143t6 111t-12 77l-4 28v2q-4 4 -4 21q-10 41 -12 41l-27 6h-17z" />
    <glyph glyph-name="guillemotleft" unicode="&#xab;" horiz-adv-x="542" 
d="M369 981l-4 -14l-27 -35q-10 -10 -10 -12t-4.5 -8.5t-6.5 -10.5l-14 -18q-7 -16 -37 -47q-49 -63 -100 -119l-8 -33q-16 -2 -21 -16q-6 0 -6 -11l-4 -6q0 -2 -18 -24l-17 -17v-2l31 -41l16 -30q0 -2 6 -15v2q6 -8 17 -37l59 -118q0 -5 10 -15l27 -47q0 -5 18 -27t15 -53
q-12 -12 -32.5 -12t-33.5 10l-12 23q-6 6 -6 14q-4 18 -11.5 28.5t-9.5 14.5l-10 23q-6 4 -10 14q-8 10 -8 16q-6 6 -9 12l-40 85l-11 28q-8 4 -14 19l2 -2q-2 3 -18 37l-23 26q-29 20 -30 45t16 35l14 16q2 4 7 11.5t7 11.5l21 23q2 4 5 7t9 16t31 38l6 8l6 6q13 28 23 38
l24 26q2 4 8 8t5.5 6t5.5 8t18 27l15 20q10 8 14 25q24 20 42 51q19 31 40 47q25 -7 43 -30l-4 -23zM469 885q-4 0 -4 6l-16 -33q-6 -6 -13 -20l2 2q0 -2 -2 -4t-4 -5l-22 -30h2l-45 -72q-2 0 -9.5 -16.5t-38.5 -52.5q-30 -37 -34 -46.5t-6.5 -11.5t-5.5 -9t-5 -11
q16 -33 31 -50l10 -20q6 -20 29 -53h-2q2 0 5 -4t3 -6l18 -31q30 -63 49 -90t19 -29q18 -18 19 -39q-5 -5 -9 -20q-33 -20 -71 24l-4 15l-5 16q-13 13 -24 35q-27 34 -37 65l-10 25l-4 8v-2l-9 18v2q-10 6 -10 17q-8 17 -22 39t-20.5 33.5t-8.5 13.5l-18 20q-8 8 -11 29
q2 12 16 26t17 27l14 15q25 25 25 32q25 31 70 99l-2 -2q2 4 6 9t6 9l56 92q7 12 17 25t25 41l-2 -2q4 8 25 28q35 -5 45 -32l-19 -45q-14 -14 -15 -18t-1 -17z" />
    <glyph glyph-name="logicalnot" unicode="&#xac;" horiz-adv-x="438" 
d="M76 1378q0 23 -2 37h-4l-68 -2q-8 0 -8 17v4q0 6 14 6h168q2 -2 2 -6v-2q0 -2 1 -2t1 -6t-4 -9q-23 -2 -49 -2h-25v-63q0 -27 2 -37v-35q2 -30 2 -104t-2 -111v-195q0 -16 -2 -21t-16 -5h-4q-6 0 -6 8v211q2 10 2 35v61l-2 27v194zM262 1311q10 -30 10 -84l13 -94l8 -50
q-2 0 2 -12t4 -14l2 -13v-8q8 -32 8 -45l2 -14l4 -37v-6l2 -2v10q0 2 2 4v4l3 33q2 4 2 12v15q0 6 8 45v6l2 2v8l10 43q4 20 4 27l8 47q0 6 2 8v4l7 37l4 10l1 7l5 38q0 31 10 41q0 10 4 19l6 24v6q6 14 6 34q0 38 31 24q4 -2 4 -29v-170q0 -66 -2 -98v-72l2 -59l-2 -27v-74
q0 -18 2 -26v-25q0 -16 -5 -16t-12 -1t-9 1t-4 22.5t0 22.5v153q-8 88 0 152v92q-2 -4 -3 -14t-4 -12l-6 -25l-16 -90v-6l-2 -23l-10 -45l-4 -21q-4 -22 -5.5 -25t-1.5 -5v-4q-2 -4 -2 -20t-4 -19v-4l-2 -15q-2 -16 -4 -18v-8q0 -19 -4 -27v-10l-2 -23v-4l-2 -2l-2 -14
q-10 -19 -31 2q-2 4 -2 12t-4 19v4l-8 61q-11 22 -11 68l-4 18l-10 74q-2 4 -3 13t-6 35t-6 37t-1 22.5t-2 17.5l-2 27v2q-2 2 -2 6t-1 14t-1 16v-36q0 -37 -2 -56v-51q-2 -8 0 -27v-63l2 -16v-185q4 -14 1 -18t-15.5 -5t-14.5 3t-1 11t1 11v199l-2 16v256q0 47 4 93
q2 6 11.5 9t17.5 -2t8 -16l6 -47l2 -18q2 -6 2 -21l4 -18v-8z" />
    <glyph glyph-name="registered" unicode="&#xae;" horiz-adv-x="583" 
d="M512 727l-10 -111q2 -2 2 -10v-10l-6 -31q-4 -16 -4 -22v-15q0 -35 -2 -49l-7 -59q-2 -20 -2 -60v-112q0 -97 -16 -125q-4 -8 -10 -29q-10 -2 -11 -4l-6 -6l-18 -27q-41 -51 -89 -62q-79 -18 -128 15l2 -2q-12 4 -35 25q-33 23 -53 59l-2 2q-2 4 -8 26t-15 52l-10 47v8
q-6 27 -6 54l-8 59q0 72 -4 219v57l-3 58q0 78 -2 121q-1 43 7 130t5 146t15 113l-2 4v14q0 18 4 31q0 21 8 31q-6 6 2 14v16q0 14 2 19v-2v2q2 2 8.5 29t20.5 45t25 22v-2q8 8 18 13t12 10q38 12 44 12l51 6q31 7 67 -4l41 -19q8 -4 10 -4q49 -28 90 -151q0 -2 4.5 -17.5
t5.5 -20.5l11 -58q6 -33 6 -107v-55q4 -43 0 -84q2 -6 2 -23l-2 -4q0 -27 6 -51v-2l-6 -41q0 -25 -4 -62v-18zM254 786q35 -35 35 -75l17 -51q18 -50 21 -51t5 -19q6 -6 6 -12l4 -15l2 -2q12 -43 45 -129l21 -47q0 -23 8 -31l4 -20q0 98 6 131q0 33 2 41l2 37l6 73l6 64
l-2 2v6q2 52 10 108t3 122v20q-7 73 -4 133v10l-2 13q0 57 -9 82q-15 115 -43 155q-10 33 -31 46t-65 18l-8 -2q-55 0 -78 -15t-35 -28q-16 -43 -18 -78q-14 -70 -19 -156q-4 -16 -4 -24v-17l-2 -20l-2 -45q0 -76 -5 -107t-5 -88v-108l2 -25v-25q0 -33 4 -94q-2 -17 -2 -35
t4 -28v-82q0 -59 6 -88q0 -121 41 -221q0 -3 9 -17t36 -26q43 -25 63 -25t34 8q31 8 49 27l8 6l24 45q6 12 7 18l8 25l2 14v17q0 31 2 41v65q-14 -16 -36 -15t-26 23q0 4 -2 9l-18 49q-16 32 -16 41.5t-9 23.5q-10 29 -20 54l-2 12l-4 12l-4 14v-2q-6 6 -6 21q-9 9 -9 16
q-17 35 -26 69q-8 34 -13.5 44t-5.5 15t-4 14v2l-2 4l-6 18q0 -11 4 -41v-16q0 -70 -3 -140t-1 -126q4 -16 4 -56v-8q4 -39 -2 -51q-35 -12 -43 -4q-8 2 -13 13t-1 17l-4 39v19q-8 43 -4 80v16l2 25l-2 14q4 12 4 14v72q4 49 2 82v2q-2 2 -2 4v182l-2 13v149l2 23v24l-2 4
v23q0 27 4 76v2q-5 4 -2 39q29 12 59 10t38 -3q9 -1 23 -6t19 -5q31 -12 53 -46q14 -14 27 -30l14 -29l14 -33q10 -89 -10 -149t-45 -94t-72 -33h-2l-16 -8v-7zM278 858q10 0 29 39l4 4q2 4 4 6t2 4l2 -2q-7 29 11 47v5q16 59 6 92q-2 16 -14 41l-13 34q-2 2 -4 4.5t-7 2.5
t-7 8l-12 6q-2 2 -5 3t-20 10t-41 7v-65l-2 -74q0 -102 8 -178q21 -7 43 4h4q2 2 12 2zM264 776l-6 6l-2 6q4 -8 8 -12z" />
    <glyph glyph-name="macron" unicode="&#xaf;" horiz-adv-x="888" 
d="M281 1274q127 0 172 -2h112q76 -4 129 1t60.5 4t15.5 -11t8 -32t-16 -22q-18 -4 -29 0h2h-2l-4 2l-299 -4q-50 0 -104 2t-112 -5t-89 11t-4 66l2 -12q31 2 158 2z" />
    <glyph glyph-name="degree" unicode="&#xb0;" horiz-adv-x="571" 
d="M469 1315q43 -34 39 -127q0 -23 -10 -39v2q-2 0 -2 -4t-3 -8t-4 -9l-20 -32l-18 -13l-5 -2q-12 -18 -14 -24t-18 -12l-13 -13v-4l-12 -12q-8 -6 -50 -13q-41 -7 -69 -1t-50 6t-29 4t-15 8l2 -2q-2 0 -8 4t-48 25t-44 43q-12 20 -17 82v12q-2 82 50 145l18 23l49 51
q29 16 62 18h65q12 0 23 -6l-2 2q12 -6 28 -6t43 -16.5t41 -42.5q20 -12 27 -33l2 -2q0 -4 2 -4zM172 1102q8 -2 32 -10t54 -11h57q16 0 45 17h-2q31 20 36 30t9 15q16 42 17 49v57q0 19 -6 29v2l-47 43q-7 0 -15 8q-12 6 -28 5.5t-40 11.5t-40 0q-27 -7 -58 -41
q-2 -2 -6 -9h2q-43 -76 -43 -120t33 -76z" />
    <glyph glyph-name="plusminus" unicode="&#xb1;" horiz-adv-x="1249" 
d="M818 -4l-220 6l-84 -6h-2q-4 2 -6 2l-76 6q-6 -4 -18 0q-10 -2 -41 -2t-52 -6l-96 4h-53q-49 -8 -68 10q-10 33 17 62q8 2 31 2h28l144 -8q86 4 190 4t172 -7q38 -1 58 3t48 3t40 -3q13 -2 38 -3h90q33 2 132 3h18q23 0 37 -9q0 -6 4 -12q0 -27 -10 -43q-31 -2 -97 -2
h-159q-37 -4 -65 -4zM584 352h-39q-49 0 -70 8q0 4 -4 9q-23 18 -12 34v-2q8 23 45 13q0 -2 22 -2h64v6q0 6 4 18v51q-4 45 2 68q18 25 45 -2q2 0 2 -2l4 -2l10 -10q2 -21 2 -66t3 -65q8 -2 28.5 -2t28.5 -3q20 4 36.5 -5t16.5 -29q0 -41 -115 -25q-8 -14 -4 -53l2 -4v-17
q4 -27 -8 -47q-6 0 -17 -6t-28 2q-17 29 -20 29q8 23 5 47t-3 57z" />
    <glyph glyph-name="uni00B2" unicode="&#xb2;" horiz-adv-x="710" 
d="M510 965q44 0 55 -21l2 2q6 -2 13 -14l-2 2q8 -12 -7 -31q-12 -6 -49 -2h-4q-4 2 -6 2h-39l-18 -2h-54l-26 2h-27l-22 -2h-56q-53 0 -73 2l-2 -2h-2q-52 -15 -60 19t17 51q8 8 15 8t7 2l4 2l88 76q44 31 68 52t26 22.5t2 3.5l17 24l4 2v8q23 40 27 70q12 41 -5 74h-4
q-10 6 -10 24l-33 23l-2 2q-11 0 -32 12q-17 0 -22 4t-11 4t-33 -8q-36 -11 -44 -16t-38 -10q-25 6 -35 39q5 12 23 18t33 16l53 15l16 2h35l39 -10q37 -6 45 -11l53 -53q-12 40 0 18l32 -56q5 -8 7 -19v-72q0 -41 -14 -66l-15 -18q-2 -2 -2 -6l-10 -19l-14 -22
q-14 -23 -31 -31q-27 -29 -33 -28l-4 -3q-2 0 -5 -6t-23 -12q-10 -10 -15 -10l-8 -4h2q-14 -8 -27 -23l-24 -20l-10 -11h20q43 4 80 0l8 3h117q7 0 33 4h10z" />
    <glyph glyph-name="uni00B3" unicode="&#xb3;" horiz-adv-x="620" 
d="M254 1221q4 0 26 7l35 11l-2 -2q16 8 29 10q14 15 16 19t4 6q33 41 27 69q-4 12 -35 31h2q-37 20 -58 22t-83 -24q-4 4 -16 6t-23 19q0 23 21 26q10 0 16 6q45 13 80 13t47 -6h4l27 -11q6 -6 16 -6l10 -4l21 -14l24 -27q15 -10 15 -41v-16l-2 -4v-6q0 -25 -23 -56
q-8 -18 -26 -28l-13 -13q9 0 15 -6l14 -6l43 -45q16 -25 27 -74q-5 -59 -12 -65q-8 -7 -13 -17l2 2q-18 -37 -78 -64q-59 -28 -115 -20t-67 15q-6 0 -10 4h-4q-23 4 -33 14v-2q-45 25 -33 68l47 8q8 -2 17 -14l2 -7l14 -14q8 -5 49 -14q88 0 119 26l26 25q6 6 11 14
q20 45 2 78q-16 16 -23 29h-4l-27 15q-17 11 -73 5h-23q-7 -15 -30 -10q-25 0 -29 18l-4 5q-12 8 -10 28q12 20 49 17h12z" />
    <glyph glyph-name="acute" unicode="&#xb4;" horiz-adv-x="288" 
d="M227 1421l4 -10q-10 -43 -43 -82l-18 -22q-12 -12 -20 -31l-21 -31q-14 -29 -39 -30t-29 17q-5 18 3 26t8 10l14 22l2 -6q-4 5 7 24q10 18 24 29q3 7 11 15t17 20l33 53q0 13 22 13t23 -15q0 -2 2 -2z" />
    <glyph glyph-name="uni00B5" unicode="&#xb5;" horiz-adv-x="884" 
d="M662 684q0 7 4 43v18q0 45 5 97t1 127v12q-9 9 -2 43q6 4 19 3t18 -5q0 2 7 6t21 -10q4 -70 4 -113v-26l2 -29v-191q-4 -25 -4 -36v-64q0 -96 2 -125l-2 -4v-10q-2 -4 -2 -48t4 -61l4 -45v-33q-3 -36 3 -77q6 -40 5 -53t2 -31t0 -24q-3 -7 -3 -9v-14l-2 -5
q0 -16 -6.5 -21t-21.5 -5t-25.5 8.5t-10.5 22.5q0 88 -2 131v8l-8 -21q-20 -39 -56 -69l-32 -27l-35 -24q-59 -37 -141 -27l-50 6q-18 0 -55 23l-26 18q-2 2 -6.5 4t-6.5 4l-51 47l-2 4l-8 9v-37q0 -27 -2 -37v-92q0 -47 -2 -58l4 -8l-2 -14v-47l2 -11v-8l-2 -22v-21
q-4 -44 0 -78t4 -75v-78q0 -25 4 -69t-31 -54q-10 -10 -20 -4q-20 16 -21 49v14q-4 80 -4 206t4 282v69q-2 2 -2 5v14q0 23 4 51v215l-6 127v29l2 16v184l-2 56q0 125 -5 187t-1 116q4 16 29.5 16t35.5 -11t6 -35q-3 -24 -2 -32t3 -16t2 -18t-2 -13v-14q0 -74 4 -156v-110
q0 -134 4 -162v-37l10 -129l2 -14v-17q0 -69 45 -141l-2 2q10 -14 29 -27q2 -6 4 -6l35 -20q4 -4 17 -10.5t16 -8.5v2q49 -18 116 -8q51 17 71 37t36 29q2 2 8 11t8 11q29 34 39 113q14 66 14 211v102l2 13v12q2 6 3 22v70z" />
    <glyph glyph-name="paragraph" unicode="&#xb6;" horiz-adv-x="915" 
d="M61 995q6 126 11 135q0 10 10 35v2l2 4q23 72 41 101v-2q12 25 45 57q12 18 29 27t26 18q4 0 9 6t12 8l-2 -2l39 21l39 12h2q16 8 34 8q32 9 56 7h12q115 0 162 2h114l29 -2h5h14l32 2q12 0 31 -2h10q54 7 47.5 -28.5t-16.5 -35.5h-49l-21 -2h-8q-52 0 -57 10
q4 -90 4 -168v-34l-2 -37v-80q-2 -41 0 -41v-37q2 -4 2 -6v-15l-2 -4v-2l2 -18v-92q0 -6 2 -11v-4q2 -4 2 -6v-10q0 -17 -4 -41v-78l2 -4v-20l-2 -11v-18l2 -12v-27q0 -88 -4 -143v-80l-2 -41v-137l2 -21v-20q4 -20 4 -39l2 -21q0 -34 8 -58t-13.5 -43.5t-45.5 -4.5
q-33 29 -23 49q2 8 2 20v9l2 28v97q-11 44 -4 124v74l2 41v35l2 10v211l2 39v37q0 31 -4 92v47l-2 35v113q4 50 4 262v49h-90q-50 0 -76 -5t-36 -1t-21 4l-22 2v-256q-2 -43 -2 -125t2 -123v-41q0 -29 2 -41l-2 -51v-616l-2 -60q2 -2 2 -8q6 -27 -13 -45q-12 -8 -28.5 -5
t-26.5 13q-2 76 -2 221v92q2 0 2 52l-2 51v190q-6 6 -14 6l-54 27q-24 12 -40 17q-16 4 -25 14q-10 10 -29 20t-47 66v-2q-10 10 -10 16l-27 51q-13 25 -26 103v4q-7 15 -9 61z" />
    <glyph glyph-name="periodcentered" unicode="&#xb7;" horiz-adv-x="278" 
d="M102 553v100l2 11v53q27 18 58 -6l6 -29v-41l2 -14q12 -23 4 -60q0 -45 -12 -59l-35 -2q-25 12 -25 47z" />
    <glyph glyph-name="cedilla" unicode="&#xb8;" horiz-adv-x="507" 
d="M264 -219h4l56 -6h4l30 -15l21 -20l12 -25l12 4q9 -20 9 -51t-45 -53q-90 -31 -146 -14q-5 0 -42 10q-36 10 -75 33v8q-12 12 -8 18q2 25 31 21q9 0 17 -5q8 -6 36 -14t33 -12h4q2 -2 6 -2l8 -4q52 -8 97 12q23 10 16 33q-18 20 -70 25q-12 -4 -18 -4t-8 -3l-17 -8l2 2
q-15 -10 -39 -6t-28 29q-3 6 22 43q2 6 8.5 22.5t8.5 22.5l16 33q6 0 6 8l13 24q8 0 12 4l4 -2q33 0 41 -18l-2 2q7 -13 -5 -33t-14 -26q-12 -12 -12 -33z" />
    <glyph glyph-name="uni00B9" unicode="&#xb9;" horiz-adv-x="458" 
d="M256 1204q0 17 4 41v15l-2 10v10q0 23 2 30t2 31q-6 -6 -8 -6l-8 -4h2l-76 -39q-35 4 -47 37q6 18 40 34t41 22t13 10l19 12q22 23 40 27t48 -17q2 -10 2 -39v-37l-2 -6v-10l2 -2v-6q-4 -25 -4 -41v-31q2 -4 2 -6v-10q0 -20 -4 -49v-13l-3 -12v-63q0 -55 5 -174l6 -25
q6 -33 -23 -51q-12 -8 -39 6h-2l-18 43q0 14 4 35v96l-2 12q0 36 6 90v80z" />
    <glyph glyph-name="ordmasculine" unicode="&#xba;" horiz-adv-x="684" 
d="M61 674q0 51 7 149v21q-7 70 -7 164t2 129v30l3 13l6 20v19l6 14v2q2 2 2 4l2 4v10q0 11 2 13t6 11t5 13t5 8q4 18 12 23t9 19q2 13 12 26q0 8 12 14l2 -8q0 4 7 10h-2q6 6 12 8t16 13l10 6q23 23 37 25l23 4q78 16 139 4t70 -22q23 -25 30 -29l17 -17q0 -2 10 -12l6 -12
l-2 2l12 -19q6 -6 17 -22t18 -49v-2q20 -44 36 -120q17 -75 18 -145v-90l2 -4v-10q-2 -10 -2 -33v-248q0 -27 -3 -39l-2 -36l-6 -82q0 -68 -4 -88t-4 -25l-2 -4l-6 -62q0 -6 -10 -36v2q-6 -18 -6 -43l-25 -68q-15 -31 -27 -45t-27 -35t-57 -41t-105 -20q-64 0 -95 22v-2
q-10 0 -18 4l-19 10q-19 11 -23 13q-36 30 -55 67l-29 66l-10 49q-6 12 -6 23q-6 16 -10 84v18q-10 143 -11 297v35zM129 610q0 -48 4 -78v-43q0 -29 2 -40q0 -128 29 -246v-2l22 -62q14 -35 31 -51l8 -4l15 -10l30 -11l6 -6h11q18 -6 32 -6h27q56 -8 88 21q12 12 15 18
l12 23l12 14q2 4 8.5 18.5t13.5 24.5t7 12t6 13l-2 -2q8 24 18 104l4 31q8 47 17 166v10l4 71q10 141 4 183v35q2 4 2 6q-8 264 -31 385l-16 55q-2 14 -16 39l-13 27q-2 6 -2 8l-39 53q-4 4 -10 4q-18 10 -42 14t-30 9h-4q-29 10 -100 -11q-45 -23 -62 -45
q-67 -100 -67 -260q0 -31 4 -92l2 -31v-30q0 -16 4 -62q-2 -2 -2 -4v-37q2 -2 2 -10v-53q4 -45 0 -77t-2 -56v-2l-2 -5v-8z" />
    <glyph glyph-name="guillemotright" unicode="&#xbb;" horiz-adv-x="555" 
d="M369 776q-6 18 -24 53q-18 34 -26 53t-6 17l-26 49l-11 27q-10 10 -10 16l-6 15v-5q-14 23 -4 39q35 14 57 -26l11 -15l120 -247l13.5 -26.5l7.5 -14.5v-4q14 -14 18 -22.5t9 -14.5l14 -25l29 -29q0 -4 4 -8l-19 -30l-4 -5q0 -4 -10 -14l-25 -29q-6 -6 -9 -12t-15 -18
l-13 -19l2 2q-4 -8 -6 -11l-20 -32l-12 4l-19 -57q-8 -18 -22 -34t-19 -27h2q-20 -33 -41 -56q0 -4 -5 -9t-10 -21t-24 -25q-45 4 -51 35q-6 20 10 26l2 5l19 24h-2q2 6 11 16.5t13 20.5t9 16l55 78v-2q7 16 11 21q5 6 7 10l6 6q2 4 5 8l-3 -2q2 2 4.5 6t22.5 38t35 50
l29 45q-1 12 -11 24t-15 24t-9 16l-15 25l-2 12q-5 3 -8.5 9.5t-5.5 6.5zM332 616.5q0 -0.5 4 -8.5q0 -12 -17 -28q-8 -10 -35 -38q-28 -28 -42 -65l-101 -155q-10 -10 -10 -17q-8 -8 -15 -24t-30 -31q-35 6 -49 43q8 21 16 28t10 9q6 20 21 39l16 22q10 20 35 53
q6 13 12 19l19 26q2 4 14 31l68 90l-41 92q-6 6 -6 15q-16 33 -27 63t-18 43l-15 23l-26 55q-6 6 -7 10l-14 31q-16 27 -8 41q23 16 59 -4q7 -5 11 -17t6 -17t2 -7q0 2 4 0l29 -66l16 -32q0 -2 8 -4l2 -15l13 -24l4 -11v2l6 -18q2 0 8 -6l2 -14l4 -9v2q6 -23 19 -38l14 -23
q7 -16 23 -40q16 -25 16 -25.5zM473 700q-6 6 -8 11q2 0 4 -4q2 -5 4 -7z" />
    <glyph glyph-name="onequarter" unicode="&#xbc;" horiz-adv-x="886" 
d="M201 53q0 -14 -8 -20q0 -6 -9 -15l-14 -26q-31 -16 -66 16q2 20 13 31q0 27 18 39q6 33 19 47q2 12 14 35q4 18 12 28q4 4 8 0q0 32 4 44t5 16q2 4 2 6l2 4v8l10 15l4 14l8 24l31 74l8 21l-2 -2q2 8 9 23t8 19l10 29q27 84 34 100q25 57 31 95l21 57q2 6 11 40.5t23 80.5
q15 47 17 54.5t22 65.5t31 99q8 55 25 119q6 55 18 84l10 37l7 35q4 6 4 10v4l2 4l6 25q0 8 6 14v2q-6 14 8 33q12 8 29.5 -1.5t23.5 -23.5v-2q0 -14 -10 -29l-4 -26q-2 -6 -2 -10v-9q0 -2 -2 -6v-4q-2 -6 -2 -12v-6l-2 -2v-6q-4 -31 -8 -37l-8 -33q-2 -2 -3 -6l-12 -55
q-4 -12 -6 -23t-6 -21q0 -13 -8 -32l-4 -23l-11 -33q-2 -4 -2 -12t-8 -18v-4q0 -19 -10 -39l2 2q-6 -18 -6 -41l-53 -152q-10 -25 -33 -100v-2l-2 -4q0 -12 -8 -18t-9 -21v-10l-2 -5v-10l-2 -4v-6l-22 -55q0 -4 -4 -13l-39 -94l-8 -35q-8 -18 -11 -24q-4 -27 -20 -72
l-25 -61q-49 -122 -49 -129l-8 -31q0 -12 -8 -23v-8zM641 446q0 64 -2 93v10l-2 4q-6 27 10 43q6 4 39 -2q14 -16 14 -59v-68q2 -33 2 -121q18 -4 35 0q31 0 45 -14q0 -4 4 -8v-5q6 -33 -30 -36h-21q-9 4 -33 -4v-105l3 -43v-41q2 -2 2 -12t3 -35t-5 -47q-31 -14 -58 8
q-8 16 0 66v12q0 10 -4 35v10l-2 10q0 27 2 43t-2 21q4 61 0 86q-14 2 -43 2l-14 2h-15q-17 4 -47 6t-39 20v62q6 27 6 102v25q0 63 3 88q41 5 47 2q18 -18 18 -45v-39l2 -18v-11l-8 -82v-43l8 -4h8q31 -6 72 -6q2 34 2 98zM96 1407q0 29 17 29q31 0 39 -19l4 -76l2 -18v-16
q0 -10 2 -17v-4q2 -6 2 -8v-10q2 -20 2 -80v-62l4 -49v-4q6 -18 7 -52q1 -33 2 -47t-19 -26l-39 8h-8q-6 12 -7 39v23l-4 108l-2 25v23q-2 66 -2 233z" />
    <glyph glyph-name="onehalf" unicode="&#xbd;" horiz-adv-x="976" 
d="M356 365v-5q-2 -4 -2 -6l-18 -43l-19 -24q-4 -4 -4 -11q-4 -4 -4 -8l-10 -14l-25 -47q-10 -14 -10 -23q-4 -4 -4 -8l-4 -8l-6 -23q-18 -36 -31 -51l-6 -18q-8 -6 -10 -8q-12 -58 -37 -68q-23 0 -35 12q-25 8 0 60q3 3 12 25t17 38v-2q0 2 4 8t6 11l14 26q8 8 22 35t23 41
q33 84 60 125v-2q2 2 4 9t6 13t4 9l49 112l25 53l16 23q0 4 4 8v4l6 17l15 28q12 24 12 29.5t2 8.5t8 16.5t11 21.5l69 135q0 11 51 125l11 21v4q2 4 2 6l14 27l25 67v4q4 8 4 13.5t10 34.5t34 78q23 49 46 106l6 22l2 4v6q14 45 25 68q45 0 57 -20l-31 -103l-18 -47
q-4 -8 -8 -20l-41 -109q-4 -12 -9 -21l-12 -30l-2 -8l-12 -29q-10 -20 -12 -40t-17 -44t-20 -39q-6 -14 -11.5 -25.5t-7.5 -17.5l-22 -49q-1 -3 -12 -25q-10 -21 -22 -49t-17 -38t-9 -15.5t-4 -7.5l-39 -72l-48 -113q-15 -35 -23 -45t-9 -16l-30 -66q-2 -4 -6.5 -15
t-6.5 -15t-2 -6zM758 53h45q12 0 18 2h23q16 1 28 -28h-2v-2q2 -4 0 -15q-16 -14 -59 -8h-14l-33 -4q-90 4 -129 4t-113 -4h-16q-10 0 -27 12q-20 4 -14 33q10 17 41 27l6 4l-4 -2q12 12 20 16t9 6l16 15q0 2 2 3t5 3t15 8l-2 -2q12 6 50 39q-2 2 24 28l17 7q35 39 53 63
l12 23q20 47 21 57v29q0 68 -31 92q-2 0 -10 5q-9 5 -19 6t-25 -4t-27.5 -5t-28.5 -10t-28 -22q-11 -11 -27 -12t-33 15.5t-3 30.5q29 27 57 37l66 23q37 13 69 3t42 -15q11 -5 21 -17q9 -11 11 -11q33 -37 33 -82v-24l2 -17v-14l-8 -43q0 -12 -4 -20q-10 -10 -19 -30
q-10 -20 -16 -27l-16 -17l-21 -27l-51 -51l-14 -8q-2 0 -2 -2l-19 -12q0 -2 -4 -11l-12 -6q-12 -12 -27 -16l-12 -13l-8 -6l-2 -2q14 -2 22 2h21l12 -2h14l4 2h27l25 -2q16 -2 49 -2zM250 1020l6 -19v-24q5 -45 -18 -55q-14 -12 -34 -7t-22 29l-2 6v-2q-2 6 -2 27l6 43v2
q-2 4 -2 6v109q4 20 4 41l2 4q0 4 3 15t-1 38v18l-2 19v16l2 10v19q-6 36 -4 47l-10 -6q-4 -4 -13 -20t-26.5 -22.5t-34.5 19.5v8q-4 5 -4 13t3 12t8.5 9t10.5 12t13 14l24 23q17 14 33 14t37 -9t21 -28v-45q7 -49 4 -74q-2 -25 2 -33v-51v-4v-29v-96q0 -14 -4 -31v-18z" />
    <glyph glyph-name="threequarters" unicode="&#xbe;" horiz-adv-x="1216" 
d="M698 1030q0 -8 -8 -18v-4q0 -19 -10 -39l2 2q-6 -18 -6 -41l-72 -205l-9 -33q-9 -33 -20 -37q-2 -6 -2 -12l-6 -35l-2 -4v-6l-61 -152q-4 -8 -4 -10l-8 -35l-9 -24q-4 -27 -20 -72l-25 -61q-49 -122 -49 -129l-8 -31q0 -12 -8 -23v-8q0 -14 -8 -20q0 -6 -9 -15l-14 -26
q-31 -16 -66 16q2 20 13 31q0 27 18 39q6 33 19 47q2 12 14 35q4 18 12 28q4 4 8 0q0 32 4 44t5 16q2 4 2 6l2 4v8l10 15l4 14l8 24q1 3 4 9l27 65l8 21l-2 -2q2 8 9 23t8 19l10 29q4 12 14 49t16 52l19 51q13 37 14 43l21 57l42 139q9 28 11 36t22 66t31 99q8 55 25 119
q6 55 18 84l10 37l7 35q4 6 4 10v4l2 4l6 25q0 6 4 14v2q0 20 10 33q43 14 53 -25v-2q0 -14 -10 -29l-4 -26q-2 -6 -2 -10v-9q0 -2 -2 -6v-4q-2 -6 -2 -12v-6l-2 -2v-6q-4 -31 -8 -37l-8 -33q-2 -2 -2 -6l-13 -55q-6 -12 -6 -21l-6 -23q0 -13 -8 -32l-4 -23l-11 -33
q-2 -4 -2 -12zM975 190q0 -2 5 -47t3 -67l6 -33q0 -27 -12 -41q-25 -6 -49 0q-14 20 -15 64v4q2 4 2 6l-6 51v29q0 66 -4 98h-2q-2 2 -9 2t-11 2l-29 2h-53l-31 -2q-19 -8 -51 0q-33 16 -33 61v19q0 25 2 33v28l-2 31q0 33 4 82q-2 10 -2 39q-4 23 0 43q16 14 41 10t31 -20
v-90q0 -20 -2 -27v-4q-2 -2 -2 -4v-8q-4 -39 0 -76v-17l4 -32q0 -16 92 -7l27 3h22q4 16 4 30v97q0 59 -2 83v13q-6 41 0 53q14 10 38 7t24 -17l2 -19v-20q6 -72 0 -111v-43q0 -18 4 -67v-6q7 -2 29 2t49 0h8q26 -1 26 -21v-31q-15 -14 -41 -14t-34 -2h-25q-4 2 -10 2
q-3 -12 2 -51v-17zM342 1427l47 -18l19 -6q2 0 6 -3t12 -7l31 -31q6 -12 10 -39v-31q0 -14 -16 -47q-10 -14 -21 -18l-4 -7q-4 -6 -27 -26h9q24 -5 57 -43q60 -81 27 -156q-4 -4 -8 -14q-4 -9 -24 -29t-42 -29t-25 -12q-49 -25 -135 -14q-33 0 -43 8q-23 10 -53 29
q-35 34 -31 59l49 8q16 -4 23 -16l14 -14q31 -8 45 -17q90 4 137 39q12 10 27 31l-2 -2q21 40 -2 86v-2q-12 18 -19 24q-25 9 -39 16t-22 8t-47 -3h-12q-12 0 -20.5 -6t-27.5 -5q-18 1 -22 19q-17 17 -14 33q14 18 47 14h10q20 2 61 19l33 12q64 55 49 96q-4 12 -34 31h2
q-41 20 -59 20t-45 -13q-28 -13 -51 -7t-32 22q0 20 23 25q15 5 40 15t57 10q32 -2 42 -9z" />
    <glyph glyph-name="questiondown" unicode="&#xbf;" horiz-adv-x="546" 
d="M82 -155q0 46 20 114q0 23 52 123l18 29q0 4 2 4h-2q12 20 23 30l20 27l-2 -2l27 47l8 16l4 13q0 4 6 22v2l16 43q13 25 19 54l6 28l8 45q8 102 8 172v58l2 32v39l-2 2v5q-5 27 2 40q23 39 47 21t22 -50q-3 -32 -3 -46v-13q0 -25 -2 -34v-43q0 -109 -6 -168l-13 -78
q-18 -98 -40 -135v2q0 2 -4 -10t-8 -19q-3 -6 -10 -31t-17 -34q-11 -9 -15 -17l-22 -31q-8 -11 -8 -14l-17 -25q1 -1 -17 -23t-24 -44l-20 -68q-8 -51 -8 -109t14 -87v-4l31 -41q0 3 9 -7t15 -10q20 -12 52 -16t57 6l-2 -2q39 23 39 16q20 25 28 60q8 12 27.5 15t30.5 -7
q16 -16 4 -33l-6 -18l-11 -19l-16 -16q-2 -2 -11 -20t-36 -26q-27 -7 -32 -11t-32 -7q-92 -8 -135 25q-25 25 -33 35l-22 33q-2 4 -12 14l-9 14l-10 31q-10 55 -10 101zM309 915v31l-2 21v16l-2 2q0 31 10 45t36 11t30 -15q8 -27 4 -55v-10l-2 -25l2 -2v-6q4 -28 -6 -48
q-11 -20 -35 -18t-30 14t-5 39zM174 -283l-8 13z" />
    <glyph glyph-name="Agrave" unicode="&#xc0;" horiz-adv-x="503" 
d="M6 54l6 38q0 13 8 23v4q4 8 5 16l6 31q0 5 7 20t7 35l16 84q13 13 13 88q4 16 4 25v16q0 4 4 12v5q4 12 4 20l10 59l13 54l20 110q6 58 18 115l56 338l20 102q3 9 9 56q7 47 16 67q-4 31 8 55q45 12 63 -6l5 -32v-3q-6 -6 0 -69v-2l2 -4v-8l6 -68q4 -20 10 -58.5t9 -50.5
t3 -17t2 -7l6 -31q4 -37 9 -55q0 -29 8 -55l4 -31l2 -4v-6l4 -52v-4q2 -2 2 -4v-10q0 -8 4 -21l4 -26q5 -63 13 -107l18 -102l12 -109l15 -106q12 -90 22 -176l10 -78l7 -41q12 -55 10 -80q0 -16 -25 -16q-12 -4 -28 -4q-14 14 -15 43q-4 10 -4 26v10q-10 10 -38 254
q-27 244 -31 277q-19 4 -71 4t-104 -6h-10l-8 -2l-8 -33q-2 -8 -4 -15t0 -7l-4 -19l-6 -37q0 -12 -5 -20l-4 -35q0 -39 -3 -43t-3 -6l-4 -23l-2 -26q-4 -37 -8 -46t-4 -16l-19 -84q-3 -32 -14 -43v-8q-4 -16 -4 -23l-2 -4q0 -31 -8 -47t-10 -28q-6 -29 -35 -29q-10 0 -17 6
h-6q-8 12 -5 22t3 15q6 6 6 13zM184 645q8 0 15 2h4q31 15 114 6h41q-8 68 -14 90q-8 76 -29 197q-6 74 -34 213l-5 35q-20 -89 -28 -144l-16 -112q-8 -56 -15 -74q-4 -47 -8 -63t-6 -28.5t-4 -18.5l-6 -37v-9q-9 -36 -9 -57zM113 1632v15l-15 24q0 12 13 19t41 -7
q16 -24 53 -61q0 -4 2 -5t5 -5t5 -6l53 -68q4 -8 19 -22l14 -23l-24 -35q-23 -2 -41 27h2l-15 14v6q-12 12 -14 15l-10 18q-20 20 -24 26t-15 20l-41 48h-8z" />
    <glyph glyph-name="Aacute" unicode="&#xc1;" horiz-adv-x="503" 
d="M6 54l6 39q0 12 8 22v4q4 8 5 16l6 29q0 7 7 22t7 35l16 84q13 13 13 88q4 16 4 25v16q0 4 4 12v5q4 12 4 20l10 59l13 54l20 110q6 58 18 115l56 338l20 102q2 6 4 18.5t4 18.5l9 39q2 2 8 43v25q0 23 6 32q45 16 65 -4l5 -32v-3q-6 -6 0 -69v-2l2 -4v-8l6 -68
q4 -20 10 -58.5t9 -50.5t3 -17t2 -7l6 -31q4 -37 9 -55q0 -29 8 -55l4 -31l2 -4v-6l4 -52v-4q2 -2 2 -4v-10q0 -8 4 -21l4 -26q5 -63 13 -107l18 -102l12 -109l15 -106q12 -90 22 -176l10 -78l7 -41q12 -55 10 -80q0 -16 -25 -16q-12 -4 -28 -4q-14 14 -15 43q-4 10 -4 26
v10q-10 10 -38 254q-27 244 -31 277q-19 4 -71 4t-104 -6h-10l-8 -2l-8 -33q-2 -8 -4 -15t0 -7l-4 -19l-6 -37q0 -12 -5 -20l-4 -35q0 -39 -3 -43t-3 -6l-4 -23l-2 -26q-4 -37 -8 -46t-4 -16l-19 -84q-3 -32 -14 -43v-8q-4 -16 -4 -23l-2 -4q0 -31 -8 -47t-10 -28
q-6 -29 -35 -29q-10 0 -17 6h-6q-8 12 -5 22t3 15q6 6 6 13zM184 645q8 0 15 2h4q31 15 114 6h41q-8 68 -14 90q-8 76 -29 197q-6 74 -34 213l-5 35q-20 -89 -28 -144l-16 -112q-8 -56 -15 -74q-4 -47 -8 -63t-6 -28.5t-4 -18.5l-6 -37v-9q-9 -36 -9 -57zM396 1683
q22 0 24 -14l2 -2q0 -4 2 -4l2 -6q-10 -39 -43 -80l-16 -25q-9 -6 -27 -39l-16 -24l2 2q-16 -29 -33 -31q-29 0 -33 18t3 26q7 7 7 12l15 22l2 -6q-8 11 22 44q29 34 31 38t10 14q10 10 25 43q-1 12 21 12z" />
    <glyph glyph-name="Acircumflex" unicode="&#xc2;" horiz-adv-x="505" 
d="M393 850q0 -8 4 -21l4 -26q5 -63 13 -107l18 -102l12 -109l15 -106q12 -72 19 -138t14 -104l6 -41q12 -55 10 -80q0 -18 -21 -18q-2 0 -10 -5t-22 2q-15 7 -15 41t-3 38q-11 14 -70 518q-17 4 -69 4t-105 -6h-11l-8 -2q-8 -35 -11 -45.5t-1 -10.5l-4 -16l-6 -37
q0 -12 -5 -20l-4 -35q0 -14 -4 -43v-2q-2 -2 -2 -4l-4 -23l-2 -26q-4 -37 -8 -46t-4 -16l-6 -33l-7 -30l-4 -21l-12 -37q0 -6 -4 -10v-8q-4 -12 -4 -23v-4q-2 -2 -4 -20t-8 -31q-6 -12 -8 -24q-6 -29 -35 -29q-13 0 -27 11t-3 25t11 29t10 40q10 24 9 32l6 31l8 20l6 37
q2 23 8 49t6 27l9 45q6 24 6 44t2 24v2q2 4 2 8v16q0 6 2 10v2q6 15 6 25l10 59l13 54l4 26l6 29q7 22 12 68q4 45 17 102l55 338l20 102q8 24 10 45l7 70v29q0 27 12 43q43 12 61 -6l7 -33v-8q-2 -16 1 -42t5 -30v-14l6 -68q2 -18 10 -58t10 -61q18 -51 18 -90t9 -65l4 -31
v-4q2 -4 2 -6l4 -52l2 -4v-14zM186 645l80 8h94q-8 68 -14 90q-8 76 -29 197q-9 104 -23 170t-15 84q-6 -27 -15 -80l-12 -65q-8 -45 -16 -121l-9 -33q-6 -14 -6 -39t-7 -46t-7 -24l-12 -75v-9q-9 -53 -9 -57zM242 1710q8 0 8 1t14 5t43 -16l19 -101q0 -6 7 -20l15 -29
q8 -15 10 -49l-2 -10l-10 -23q-6 0 -12 -6q-27 0 -37 29q-2 4 -7 16l-14 33q-6 -37 -20 -76q-29 -6 -51 17q-6 5 5 41t13 63l13 43l6 43v39z" />
    <glyph glyph-name="Atilde" unicode="&#xc3;" horiz-adv-x="503" 
d="M6 54l6 38q0 13 8 23v4q4 8 5 16l6 31q0 5 7 20t7 35l16 84q13 13 13 88q4 16 4 25v16q0 4 4 12v5q4 12 4 20l10 59l13 54l20 110q6 58 18 115l56 338l20 102q3 9 9 56q7 47 16 67q-4 31 8 55q45 12 63 -6l5 -32v-3q-6 -6 0 -69v-2l2 -4v-8l6 -68q4 -20 10 -58.5t9 -50.5
t3 -17t2 -7l6 -31q4 -37 9 -55q0 -29 8 -55l4 -31l2 -4v-6l4 -52v-4q2 -2 2 -4v-10q0 -8 4 -21l4 -26q5 -63 13 -107l18 -102l12 -109l15 -106q12 -90 22 -176l10 -78l7 -41q12 -55 10 -80q0 -16 -25 -16q-12 -4 -28 -4q-14 14 -15 43q-4 10 -4 26v10q-10 10 -38 254
q-27 244 -31 277q-19 4 -71 4t-104 -6h-10l-8 -2l-8 -33q-2 -8 -4 -15t0 -7l-4 -19l-6 -37q0 -12 -5 -20l-4 -35q0 -39 -3 -43t-3 -6l-4 -23l-2 -26q-4 -37 -8 -46t-4 -16l-19 -84q-3 -32 -14 -43v-8q-4 -16 -4 -23l-2 -4q0 -31 -8 -47t-10 -28q-6 -29 -35 -29q-10 0 -17 6
h-6q-8 12 -5 22t3 15q6 6 6 13zM184 645q8 0 15 2h4q31 15 114 6h41q-8 68 -14 90q-8 76 -29 197q-6 74 -34 213l-5 35q-20 -89 -28 -144l-16 -112q-8 -56 -15 -74q-4 -47 -8 -63t-6 -28.5t-4 -18.5l-6 -37v-9q-9 -36 -9 -57zM160 1540q12 12 18.5 12t14.5 4h6q59 0 75 -7
t28 -13t22 -6t29 10t50 14q2 -2 9 -2q12 -4 20 -22v-2q2 -27 -31 -39l-14 -4q-10 -10 -18 -10q-9 -9 -27 -11t-37 9q-23 6 -40 12l-38 14h-28q-13 0 -16 -4t-9 -4t-27 -21l-20 -8q-53 27 -8 64l4 2l6 6l25 14z" />
    <glyph glyph-name="Adieresis" unicode="&#xc4;" horiz-adv-x="503" 
d="M6 54l6 38q0 13 8 23v4q4 8 5 16l6 29q0 7 7 22t7 35l16 84q13 13 13 88q4 16 4 25v16q0 4 4 12v5q4 12 4 20l10 59l13 54l20 110q6 58 18 115l56 338l20 102q3 9 9 56q7 47 16 67q-4 31 8 55q45 12 63 -6l5 -32v-3q-6 -6 0 -69v-2l2 -4v-8l6 -68q4 -20 10 -58.5t9 -50.5
t3 -17t2 -7l6 -31q4 -37 9 -55q0 -29 8 -55l4 -31l2 -4v-6l4 -52v-4q2 -2 2 -4v-10q0 -8 4 -21l4 -26q5 -63 13 -107l18 -102l12 -109l15 -106q12 -90 22 -176l10 -78l7 -41q12 -55 10 -80q0 -16 -25 -16q-12 -4 -28 -4q-14 14 -15 43q-4 10 -4 26v10q-10 10 -38 254
q-27 244 -31 277q-19 4 -71 4t-104 -6h-10l-8 -2l-8 -33q-2 -8 -4 -15t0 -7l-4 -19l-6 -37q0 -12 -5 -20l-4 -35q0 -39 -3 -43t-3 -6l-4 -23l-2 -26q-4 -37 -8 -46t-4 -16l-19 -84q-3 -32 -14 -43v-8q-4 -16 -4 -23l-2 -4q0 -31 -8 -47t-10 -28q-6 -29 -35 -29q-10 0 -17 6
h-6q-8 12 -5 22t3 15q6 6 6 13zM184 645q8 0 15 2h4q31 15 114 6h41q-8 68 -14 90q-8 76 -29 197q-6 74 -34 213l-5 35q-20 -89 -28 -144l-16 -112q-8 -56 -15 -74q-4 -47 -8 -63t-6 -28.5t-4 -18.5l-6 -37v-9q-9 -36 -9 -57zM103 1608q1 0 26 12l-4 12q8 4 37 4h8
q29 -4 35 -8l20 -20l11 -13q6 -8 6 -28q6 -23 -6 -54l-21 -32q-5 -13 -17 -17t-12 -6q-43 -2 -61 8q-10 0 -12 11l-9 4h2q-4 4 -6 4q-25 6 -30 53v16q4 12 6 17l8 28q8 0 10 9h9zM357 1608q1 0 24 12l-4 12q10 4 39 4h8q29 -4 35 -8l20 -20q16 -21 17 -41q6 -23 -7 -54
l-20 -32q-5 -13 -17 -17t-12 -6q-41 -2 -63 8q-8 0 -10 11l-9 4h2q-4 4 -6 4q-25 6 -30 53v16q4 12 6 17l8 28q8 0 10 9h9z" />
    <glyph glyph-name="Aring" unicode="&#xc5;" horiz-adv-x="503" 
d="M6 54l6 39q0 12 8 22v4q4 8 5 16l6 29q0 2 6 14v2l2 4l6 37q2 16 10 62q19 48 19 110q4 16 4 25v16q0 6 2 10l6 27l10 59l13 52l4 28l16 84q6 58 18 115l56 338l20 102l3 9l8 56q5 34 14 56q-2 6 -2 16l-21 11q-10 10 -17 11q-8 1 -18 11l-10 9l-12 12l-2 4l-14 12
q-18 49 -15 92q14 29 37 46.5t25 19.5t11 9t13 13q15 -2 23 1t18 3l47 -2q12 -4 27 -4l59 -41l9 -20v2q12 -20 12 -36t-12 -73q-10 -6 -11 -18q-18 -12 -26 -29l-4 -4q-1 -2 -15 -16l-28 -15v-2q-2 -25 2 -65v-2l2 -4v-8l6 -68q4 -20 10 -58.5t9 -50.5t3 -17t2 -7l6 -31
q4 -37 9 -55q0 -29 8 -55l4 -31l2 -4v-6l4 -52v-4q2 -2 2 -4v-10q0 -8 4 -21l4 -26q5 -63 13 -107l18 -102l12 -109l15 -106q12 -90 22 -176l10 -78l7 -41q12 -55 10 -80q0 -16 -25 -16q-12 -4 -28 -4q-14 14 -15 43q-4 10 -4 26v10q-10 10 -38 254q-27 244 -31 277
q-19 4 -71 4t-104 -6h-10l-8 -2l-8 -33q-2 -8 -4 -15t0 -7l-4 -19l-6 -37q0 -12 -5 -20l-4 -35q0 -39 -3 -43t-3 -6l-4 -23l-2 -26q-4 -37 -8 -46t-4 -16l-6 -28l-9 -35l-4 -21q-8 -37 -14 -43v-8q-4 -16 -4 -23l-2 -4q0 -31 -8 -47t-10 -28q-6 -29 -35 -29q-10 0 -17 6h-6
q-8 12 -5 22t3 15q6 6 6 13zM184 645q8 0 15 2h4q31 15 114 6h41q-8 68 -14 90q-8 76 -29 197q-6 74 -34 213l-5 35q-20 -89 -28 -144l-16 -112q-8 -56 -15 -74q-4 -47 -8 -63t-6 -28.5t-4 -18.5l-6 -37v-9q-9 -36 -9 -57zM315 1460q13 13 17 24t14 32q4 25 -2 40
q-27 18 -70 17l-28 -14q-4 -3 -9 -11l-22 -35q4 -25 51 -51h13q26 0 36 -2z" />
    <glyph glyph-name="AE" unicode="&#xc6;" horiz-adv-x="755" 
d="M465 674q20 -10 86 -10h14q41 0 43 -33q-6 -29 -57 -25h-19l-12 2h-14q-18 4 -41 0q-2 -4 -2 -20v-19l-2 -20v-297l-2 -51v-76l2 -33q0 -27 7 -32t48 1h96q44 4 54 -14t0.5 -32.5t-23.5 -14.5h-199q-37 0 -41 2q-16 12 -16 35v12l2 10v72l-2 33v112l-2 31v62l-2 63
q0 49 4 160v10h-80q-18 2 -94 2q-8 -37 -9 -46t-9 -36q-15 -55 -33 -132q-17 -76 -24 -101t-18 -75t-18 -75l-6 -20q-10 -29 -12 -43l-4 -23l-6 -16q-2 -2 -4 -15q-2 -12 -18 -22t-52 0q-10 20 4 43l2 2l4 8l-2 -2q0 17 8 37t14 46t10.5 35.5t4.5 29.5l21 59v4q4 28 8 35.5
t4 9.5v2q2 2 2 9t4 12l-2 -2q0 14 8 30l6 27q0 5 10 33v8q2 4 3 8l6 25q2 8 2 33l2 4v6q10 43 16 63v4q8 8 12 43l5 25q18 61 21 69t3 17l14 49q61 210 84 278t33 113l6 25q4 16 4 22l2 15l19 69l16 66l7 34q3 14 8 25q20 20 59 15h25l28 -2h51l3 2h21q20 0 36 -2h16
q31 4 45 -9q14 -8 9 -43q-32 -12 -73 -5t-65 3h-14l-16 -2h-41v-108q0 -47 3 -118t0 -131t5 -188v-10q4 -102 4 -147zM387 926q0 43 2 61l2 31v115q-4 25 -4 84v14q-8 -16 -8 -37l-12 -49q-2 -10 -8.5 -31.5t-9.5 -33.5l-13 -50q0 -8 -6 -20l-19 -62q-41 -133 -65 -223
l-19 -59v-11h4q61 0 84 4q33 -16 72 0q2 45 0 91v30l-2 31v57l2 31v27z" />
    <glyph glyph-name="Ccedilla" unicode="&#xc7;" horiz-adv-x="665" 
d="M156 897q-6 -38 -6 -57l-3 -4q0 -18 -2 -27l2 -2v-16q4 -23 -4 -35q6 -12 3 -27t-3 -20l-2 -4q0 -10 4 -48v-86q2 -2 2 -10v-12l-2 -8l9 -58l-2 -16v-102q2 -10 2 -39v-13l2 -2l-2 -18v-10q0 -19 3 -31t5 -42q2 -32 10 -58q33 -58 67 -76t83 -33q48 -8 98 -8q33 7 102 61
q10 20 12 55t29 37q46 -2 29 -82l-4 -20l-22 -26q-5 -5 -5 -9l-12 -2q-5 -14 -19 -22l2 2q-13 -9 -27 -13t-24 -14l-20 -10q-31 -10 -66 -10q0 -8 -7 -19t-13 -24q-12 -12 -13 -33h5l57 -6q2 0 8 -2l27 -13l20 -18q18 -18 25 -19q0 -22 8 -38q-10 -37 -49 -68
q-55 -24 -146 -14l-47 18q-39 8 -65 27v8q-12 12 -8 18q2 25 28 21q4 0 17 -4q6 -6 8 -6t14 -7l-2 2l43 -12q4 0 8 -4h2l2 -2h7q24 -12 53 -6t32 8t11 4t10 4v-2q14 10 14 29q-23 23 -71 26q-11 -4 -17 -4t-8 -2l-16 -8l2 2q-14 -10 -39 -6t-29 29q-6 14 13 26q2 2 5 9.5
t5 9.5v-2q6 6 6 16q8 16 10 27q13 13 23 41q-12 0 -20 2l-25 6q-55 12 -68 22h2q-2 0 -10 7v-2q-20 12 -27 24q-12 12 -28 19q-10 19 -20.5 32t-10.5 21q-4 2 -12 16q-23 59 -23 146l2 30v31l2 41v41q-2 20 -2 74v37l-2 34q-8 118 4 285l6 64q2 20 5 117t42 200q0 26 19 45
l20 41q2 2 4 6t9 12l45 50q49 37 75 47l45 6q12 0 33 4q6 -2 19 -2h18q12 -6 19 -6h14q23 -6 28 -12t9 -5l16 -6q12 0 18 -6t11 -6q9 -16 28 -35l5 -10v2q6 -12 14 -19q0 -6 4 -14l4 -22l2 -2v-9q6 -20 -6 -32q-12 -6 -37 0q-16 7 -16 43q-3 17 -17 34l-12 17q-2 2 -8 6v-2
q-32 16 -33 16l-8 4h-2l-4 4h-2l-2 2h-4l-2 3h-3l-4 4h-2q-44 6 -84 0q-25 -12 -47 -27q-22 -14 -24 -14l-13 -13l-6 -4q-4 -8 -28 -32v-3q-2 -2 -2 -4l-11 -18q-4 -8 -4 -10h2l-20 -29q-4 -49 -13 -70q0 -8 -4 -16l2 2l-8 -35q-2 -4 -2 -10l-10 -47l-6 -33l-2 -31v-26
q0 -43 -2 -60v-8q0 -2 -2 -4v-4zM465 1380h-2h2z" />
    <glyph glyph-name="Egrave" unicode="&#xc8;" horiz-adv-x="421" 
d="M104 408l7 335v93q-2 16 -2 97t1 178q0 97 -4 169t-5 107t18 57q8 2 33 2h41q12 -6 45 -6l4 2q18 0 43 -4h6q4 -2 6 -2h12q39 0 52 -17t4 -33l-76 -6q-10 10 -96 4q-8 2 -33 2q0 -51 8 -161l2 -45v-90l-2 -46q-2 -20 -2 -59l6 -283q20 -10 86 -10h14q25 0 33 -8t8 -25
q-8 -29 -55 -24h-18l-13 2h-14q-18 4 -41 0q-2 -4 -2 -23l-2 -16v-78q-4 -28 -4 -102t-6 -137l-4 -60v-98l-2 -33q4 -8 4 -13t2 -11v-9q16 -6 49 -2h88l4 2h4q43 4 53 -18q6 -37 -20 -43h-201q-18 8 -43 33q2 33 2 134t4 105v2q2 4 2 6v9q0 45 2 61v43zM94 1652q0 8 12 16
q12 7 41 -7q12 -18 33 -39l15 -14l33 -43t36 -43l15 -23l-25 -35q-23 -2 -41 27h2l-14 14v6q-2 1 -7 7t-8 8l-10 18q-20 20 -23 27t-22 26q-12 4 -18 15h-4v12q-15 20 -15 28z" />
    <glyph glyph-name="Eacute" unicode="&#xc9;" horiz-adv-x="479" 
d="M344 1436q41 0 48 -10q15 -23 7 -40l-75 -6q-31 9 -97 4q-8 2 -32 2q0 -51 8 -161l2 -45v-90l-2 -46q-2 -20 -2 -59l6 -283q20 -10 86 -10h14q39 0 41 -33q-8 -29 -55 -24h-19l-12 2h-14q-18 4 -41 0q-2 -4 -2 -23l-2 -16v-78q-4 -28 -4 -102t-6 -137l-5 -60v-98l-2 -33
q4 -8 4 -15t3 -9v-9q16 -6 49 -2h86l4 2h6q43 4 53 -18q6 -37 -20 -43h-201q-18 8 -43 33q2 33 2 107t2 110l4 30v9q0 45 2 61v43l2 19l6 335v19l2 10v33l-2 31q-2 16 -2 97t2 136l-8 330q-2 23 17 45q8 2 32 2h37q24 -6 49 -6l4 2q23 0 43 -4h9l4 -2h12zM390 1683
q20 0 22 -14l2 -2q0 -4 2 -4l2 -6q-8 -35 -41 -80l-19 -25q-8 -5 -19 -25t-15.5 -26.5t-12.5 -22.5q-7 -16 -31 -17t-28 17t3 26q7 7 7 12l14 22l3 -6q-4 5 0 11q4 5 10.5 17t19.5 25q5 9 13 17t10 12l37 57q1 12 21 12z" />
    <glyph glyph-name="Ecircumflex" unicode="&#xca;" 
d="M131 272l4 47v50q0 233 -2 346v10q0 2 -2 4v184l-2 33v101q2 39 2 157t-1 166q-1 50 10 60t46 6h9q24 -4 71 -4l2 2h22q20 0 34 -2h16q35 4 45 -13q12 -10 6 -35l-84 -6q-27 4 -49 0h-14l-17 -2h-41v-108q0 -47 3 -118t0 -131t6 -188v-10q4 -102 4 -147q20 -10 86 -10h14
q39 0 41 -33q-8 -29 -55 -25h-19l-12 2h-14q-18 4 -41 0q-2 -4 -2 -20v-19l-2 -20v-297l-2 -51v-76l2 -33q0 -27 7 -32t48 1h94q43 4 52 -14t0 -32.5t-21 -14.5h-29l-31 -2q-84 -4 -130 2t-50 39q-4 43 -4 90t2 64v14l2 18v11q-4 4 -4 36zM360 1498q0 -20 -14 -32
q-4 0 -8 -4q-16 0 -23 6l-18 17l-3 6l-13 43q-6 -23 -23 -68q-39 -8 -50 14t3 40v4q14 43 14 57l11 43l6 45q-2 10 -2 39q8 0 8 1t8 5q31 4 51 -16l19 -92q6 -39 22 -56q12 -32 12 -52z" />
    <glyph glyph-name="Edieresis" unicode="&#xcb;" horiz-adv-x="382" 
d="M61 29q2 33 2 133t7 108v15q0 45 2 61v43l2 19l6 335v19l2 10v33l-2 31q-2 16 -2 97t2 136l-8 330q-2 23 16 45q8 2 33 2h37q24 -6 49 -6l4 2q18 0 43 -4h10q2 -2 4 -2h13q39 0 46 -10q15 -23 7 -40l-76 -6q-10 10 -96 4q-8 2 -33 2q0 -51 8 -161l2 -45v-90l-2 -46
q-2 -20 -2 -59l6 -283q20 -10 86 -10h15q41 0 43 -33q-6 -29 -58 -24h-18l-12 2h-15q-18 4 -41 0q-2 -4 -2 -23l-2 -16v-78q-4 -28 -4 -102t-6 -137l-4 -60v-98l-2 -33q4 -8 4 -15t2 -9v-9q16 -6 49 -2h88l4 2h6q41 6 52 -18q6 -37 -21 -43h-201q-18 8 -43 33zM98 1638
q30 0 60 -36v-3q8 -12 8 -30q6 -23 -6 -53l-21 -33q-6 -13 -17 -17t-11 -6q-39 -2 -62 8q-10 0 -12 11l-8 4h2q-2 0 -2 2l-4 2q-25 6 -31 53v16q4 12 6 17l8 29q8 0 10 8h10q2 0 25 12l-4 12q10 4 39 4h10zM282 1610q2 0 25 12l-4 12q10 4 37 4h8q29 -4 35 -8l20 -20l11 -13
q6 -8 6 -28q6 -23 -6 -53l-21 -33q-6 -13 -17 -17t-11 -6q-39 -2 -62 8q-10 0 -11 6t-13 15l2 -2q-25 6 -31 53v16q4 12 6 17l8 29q8 0 10 8h8z" />
    <glyph glyph-name="Igrave" unicode="&#xcc;" horiz-adv-x="382" 
d="M229 842l4 -21v-22l-2 -15v-75q4 -16 5 -33v-29l-3 -4v-4l3 -12v-27l2 -31v-71l-2 -41v-201q6 -18 6 -72v-32q2 -10 2 -48t12 -61q2 -33 -21.5 -49t-50.5 0v2q-23 18 -6 43l-2 -2q4 4 0 8v135l-2 4h2q0 2 -5 26t-1 103l2 78v76q-6 14 -2 39v51l2 31v28l-8 68l2 39v39
q0 29 -4 106v31l-2 29q-4 70 -4 125v161q0 111 -2 168v17q0 23 6 33q23 12 55 -15q6 -49 6 -151v-27l2 -31v-192q0 -13 4 -41v-17l-2 -4v-16q0 -12 4 -43v-53zM41 1608q0 12 2 12q-16 16 -16 26t16 21q11 4 39 -10q18 -25 28 -34t13.5 -14l5.5 -8q3 -3 17 -18t25 -32t26 -31
l14 -23l-25 -35q-23 -2 -41 27h2l-14 14v6q-12 12 -14 15l-10 18q-20 20 -23 27t-8 12l-29 27h-8z" />
    <glyph glyph-name="Iacute" unicode="&#xcd;" horiz-adv-x="331" 
d="M199 938q0 -12 4 -43v-53q0 -6 2 -11v-4q2 -4 2 -6v-22l-2 -15v-75q4 -16 4 -33v-33l-2 -4l2 -12v-27l2 -31v-71l-2 -41v-201q6 -18 6 -72v-32q2 -10 2 -48t12 -61q2 -33 -20 -49t-51 0v2q-23 18 -6 43l-2 -2q4 4 0 8v131l-3 4v4q2 2 3 4q-12 47 -7 125l2 78v76
q-6 14 -2 39v51l2 31v28l-8 68l2 39v39q0 29 -4 106v31l-2 29q-4 70 -4 125v161q0 111 -2 168v17q0 23 6 33q23 12 55 -15q6 -49 7 -151v-27l2 -31v-192q0 -13 4 -41v-21q-2 -4 -2 -16zM286 1683q18 0 21 -8q4 -8 6 -8l4 -10q-12 -45 -41 -80l-18 -25q-12 -8 -20 -28
l-23 -35l2 2q-16 -29 -40 -30t-28 17q-5 18 3 26q8 7 8 12l14 22l2 -6q-4 5 0 11q4 5 11 18.5t20 23.5l18 21q4 4 6 7t8 10.5t29 47.5q0 12 18 12z" />
    <glyph glyph-name="Icircumflex" unicode="&#xce;" horiz-adv-x="370" 
d="M209 979l-1 -7l1 -38v-92l4 -34q0 -14 -4 -38v-82l2 -4v-16l-2 -11v-18l2 -12v-27q0 -88 -4 -143v-80l-2 -41v-137l2 -21v-20q4 -20 4 -39l2 -21q0 -32 8 -58t-18.5 -42t-55.5 2v2q-8 6 -11 18.5t3 20.5q2 8 2 20v9l2 28v97q-11 44 -4 124v74l2 41v35l2 10v211l2 39v37
q0 31 -4 92v47l-2 35v113q4 50 4 182v156q-2 2 -2 4q0 35 17 39h-2q39 12 49 -13q10 -51 6 -151v-29l-2 -33v-34l-2 -37v-41l-2 -39q0 -41 2 -41v-33zM131 1710q8 0 14 6q40 7 56 -20l16 -94q6 -29 21 -50l6 -22l6 -25l-2 -10q0 -16 -15 -29q-4 0 -8 -4q-15 0 -27 12t-16 13
l-12 43l-4 4q-6 -35 -21 -70q-31 -6 -57 21q20 40 25 85q6 46 12 58l6 43v39zM166 1565v-4v4z" />
    <glyph glyph-name="Idieresis" unicode="&#xcf;" horiz-adv-x="423" 
d="M248 938q0 -12 4 -43v-53q0 -6 2 -11v-4q2 -4 2 -6v-22l-2 -15v-75q4 -16 4 -33v-33l-2 -4l2 -12v-27l2 -31v-71l-2 -41v-201q6 -18 6 -72v-32q2 -10 2 -48t13 -61q2 -33 -20.5 -49t-51.5 0v2q-23 18 -6 43l-2 -2q4 4 0 8v131l-2 4v4q2 2 -3 26t-1 103l2 78v76
q-6 14 -2 39v51l2 31v28l-9 68l2 39v39q0 29 -4 106v31l-2 29q-4 70 -4 125v161q0 111 -2 168v17q0 23 6 33q23 12 56 -15q6 -49 6 -151v-27l2 -31v-192q0 -13 4 -41v-21q-2 -4 -2 -16zM23 1483q-2 0 -3 2l-4 2q-25 6 -30 45v24q0 8 7 22t-1 24q16 0 18 8h9q1 0 26 12l-4 12
q10 4 39 4h10q23 0 27 -4l22 -24q19 -19 19 -41q6 -23 -6 -53l-21 -33q-5 -13 -17 -17t-12 -6q-39 -2 -61 8q-10 0 -12 11l-9 4h3zM332 1638h12q23 0 27 -4l22 -24q19 -20 19 -48t-6 -46l-21 -33q-5 -13 -17 -17t-12 -6q-62 -3 -73 21q-6 6 -11 6q-25 6 -30 53v16q4 12 6 17
l8 29q8 0 10 8h8l25 12l-4 12q10 4 37 4z" />
    <glyph glyph-name="Eth" unicode="&#xd0;" horiz-adv-x="641" 
d="M557 680q0 -134 -35 -248l-10 -29q0 -6 -8 -30l-8 -13q-4 -4 -9 -18l-8 -23q-4 -8 -12 -28l-8 -21q-3 -4 -7 -18t-16 -29l-20 -22l-13 -17q-4 -4 -8 -9t-10 -10t-10 -13t-35 -35l-25 -33q-18 -27 -77 -57l-23 -11q-4 -2 -10 -8t-15 -10q-43 -4 -63 16q-6 23 0 66v49l2 43
v33l2 35v34l-2 33q-2 27 -2 93t2 100v180h-14q-23 0 -45 1t-31 19q0 12 4 21q15 16 37 12t53 0v27l2 18v56l2 38v39l-2 43v74q2 35 -2 107v22l-2 25v67q0 95 -8 131v4q-2 4 -2 9q-6 49 22 49q47 4 93 -25q10 -10 20 -12l31 -21q37 -26 46 -37l77 -93q14 -18 26 -44l13 -24
l5 -14q5 -15 9 -19l4 -10v2q36 -73 51 -172l12 -55q27 -104 27 -238zM203 1042q0 -40 -2 -65v-244h129q37 4 45 -22q8 -29 -41 -41q-35 6 -76 6t-59 -2q-4 -90 -4 -137v-58l-2 -59q-9 -237 4 -340q16 6 43 24t30 25l56 57q34 34 47 56q14 22 30 61l13 33q20 57 30 90
q10 20 19 61q0 15 14 68t11 142t-16 167t-16 85t-3 9l-4 23q-29 140 -80 227q-2 2 -6 9l-7 6l-24 32q-41 57 -62 68q-6 4 -8 6l-80 49l1 -4l3 -14l2 -4v-8q2 -12 3 -39v-78l2 -19v-18q2 -12 2 -45l2 -16v-17q4 -34 4 -74z" />
    <glyph glyph-name="Ntilde" unicode="&#xd1;" horiz-adv-x="755" 
d="M537 60v22l-2 2q-2 10 -6.5 28.5t-6.5 28.5l-8 11l4 8v8q-6 18 -8 22l-12 64q-14 74 -25 113l-33 116v-2q-2 8 -7 26.5t-12 47.5t-13 45l-15 43q-2 16 -12 43l-10 45q-8 8 -9 37l-4 6v-2q-6 12 -6 21l-6 28q-14 30 -16 40q-2 11 -6 16l-11 34q-18 55 -20 60l-12 37
q-7 25 -19 50t-12 28.5t-14 31.5t-19 62q-5 10 -5 14t-5 12v-49l2 -31v-190l4 -248v-4q2 -2 2 -6l-2 -6v-101l2 -22q2 -31 2 -115l2 -57v-236q0 -73 3 -77t3 -9q10 -37 -5 -51t-25 -14q-51 0 -43 51v106q0 176 -9 484v43q-4 156 -4 406t-12 333q4 8 16 21q45 10 64 -43
l12 -27q4 -6 10 -27t13 -24q33 -96 37 -109l16 -43q4 -10 21 -64.5t32 -86.5q53 -116 88 -250l4 -8l2 -7v-7q0 -8 7 -19l4 -14v2q4 -14 11 -41t11 -41l12 -41q9 -9 9 -23l4 -20l4 -23q0 -13 6 -26t10 -30.5t6 -23.5l19 -82v-2q4 -20 4 -22v26l4 238v209q0 14 -4 47v18l4 205
l-6 164q0 37 4 107l2 55q-2 20 14 37q25 8 45 -4q16 -25 13 -60v-28q-8 -63 -2 -123v-445q2 -2 2 -10l-2 -2v-66q4 -57 0 -102v-31l-2 -32v-62l-3 -20v-238l-4 -115q0 -8 6 -17t5 -34q4 -18 -9.5 -35.5t-31.5 -19.5q-35 2 -41 26t-6 40zM305 1548h2q3 2 31 2t46 -8l32 -14
q12 -6 24 -6l21 10l-2 -2l12 6l-2 -2q27 18 47 14q25 -3 31 -28q2 -27 -23 -35t-36 -17.5t-31 -9.5q-18 -4 -37 6l-31 13q-29 14 -43 14l-18 2q-10 0 -16 -3t-15 -5q-29 -17 -35 -25t-22 -6q-31 4 -27 37q0 9 10 19t14.5 12t6.5 4l24 14l6 -8q16 16 31 16z" />
    <glyph glyph-name="Ograve" unicode="&#xd2;" horiz-adv-x="659" 
d="M84 442v29q-2 49 -2 221t10 242v14q0 25 2 33v8q4 54 10 87q6 32 14 111t52 156l2 5q4 4 8 14l25 27q20 30 55 41l21 10q64 27 137 2q26 -12 32 -20t13 -13q37 -37 49 -53q35 -71 47 -180l8 -164l2 -21v-53l2 -39q0 -79 3 -107t-1 -53q0 -39 -4 -67v-17l-2 -18v-12l2 -4
v-11q-2 -4 -2 -8v-6l-2 -43v-111q0 -37 -2 -51l-8 -72q0 -8 -4 -40l-6 -64q-9 -35 -6 -49q-8 -8 -13 -33l-6 -14q-4 0 -8 -17l-23 -47q-4 -8 -13 -17t-11 -9l-27 -27l-14 -6q-16 -16 -51 -16l-94 6l-50 22l-28 27l-23 26l-20 29q-63 84 -72 320q-2 8 -2 32zM150 510
q0 -62 4 -94v-17q0 -78 16 -147l6 -37q0 -17 6 -29l-2 2l13 -18q4 -6 15 -30t20 -34q9 -12 40 -38q43 -29 78 -33l25 6l20 4q2 0 7 4t5 6q6 2 15 17q4 0 20 22q0 6 4 14q14 27 21 56l6 12l16 123v8q0 18 5 55t7 126q3 90 7 167q0 115 2 127v160q0 2 -2 6v4l-4 41v131
q-14 127 -54 215l-10 25l-4 -10q-2 0 -6 3t-4 5q-14 14 -20 16t-11 8l-12 5q-47 8 -103 -15l-28 -28q-14 -18 -21 -39q-8 -4 -10 -17l-14 -35l-13 -28q-8 -35 -16 -121l-6 -61q-8 -40 -8 -93q-10 -50 -10 -229q-2 -6 -3 -23v-2l3 -4q-7 -73 0 -129v-57zM213 1614v12l-12 25
q0 16 12 24q25 2 43 -16q47 -55 66 -82t26 -33q4 -10 17 -22l14 -23l-25 -35q-20 -2 -39 27h2l-14 14v6q-2 1 -7 7t-7 8l-10 18q-20 20 -24 26t-16 21q-13 14 -14 19l-4 4h-8z" />
    <glyph glyph-name="Oacute" unicode="&#xd3;" horiz-adv-x="659" 
d="M84 442v29q-2 49 -2 221t10 242v14q0 25 2 33v8q4 54 10 87q6 32 14 111t52 156l2 5q4 4 8 14l25 27q20 30 55 41l21 10q64 27 137 2q26 -12 32 -20t13 -13q37 -37 49 -53q35 -71 47 -180l8 -164l2 -21v-53l2 -39q0 -79 3 -107t-1 -53q0 -39 -4 -67v-17l-2 -18v-12l2 -4
v-11q-2 -4 -2 -8v-6l-2 -43v-111q0 -37 -2 -51l-8 -72q0 -8 -4 -40l-6 -64q-9 -35 -6 -49q-8 -8 -13 -33l-6 -14q-4 0 -8 -17l-23 -47q-4 -8 -13 -17t-11 -9l-27 -27l-14 -6q-16 -16 -51 -16l-94 6l-50 22l-28 27l-23 26l-20 29q-63 84 -72 320q-2 8 -2 32zM150 510
q0 -62 4 -94v-17q0 -78 16 -147l6 -37q0 -17 6 -29l-2 2l13 -18q4 -6 15 -30t20 -34q9 -12 40 -38q43 -29 78 -33l25 6l20 4q2 0 7 4t5 6q6 2 15 17q4 0 20 22q0 6 4 14q14 27 21 56l6 12l16 123v8q0 18 5 55t7 126q3 90 7 167q0 115 2 127v160q0 2 -2 6v4l-4 41v131
q-14 127 -54 215l-10 25l-4 -10q-2 0 -6 3t-4 5q-14 14 -20 16t-11 8l-12 5q-47 8 -103 -15l-28 -28q-14 -18 -21 -39q-8 -4 -10 -17l-14 -35l-13 -28q-8 -35 -16 -121l-6 -61q-8 -40 -8 -93q-10 -50 -10 -229q-2 -6 -3 -23v-2l3 -4q-7 -73 0 -129v-57zM461 1683
q21 0 22 -14q0 -2 2 -2l4 -10q-10 -39 -43 -80l-16 -25q-12 -8 -20 -28l-23 -35l2 2q-16 -29 -39 -30q-22 -1 -26 17t3 26q7 7 7 12l10 20l4 -6q-4 8 5 19t9 16l48 59q8 8 30 47q0 12 21 12z" />
    <glyph glyph-name="Ocircumflex" unicode="&#xd4;" horiz-adv-x="729" 
d="M90 844q-6 60 -6 159t2 134v30l2 13l6 20v19q0 8 8 16v8q2 4 2 13t2 10q2 2 7 11q4 9 5 13t5 8q4 18 7 22t9 19q6 14 17 27q0 8 12 14l2 -8q0 4 6 10h-2q6 6 12 8l27 19q23 23 37 25l22 4q78 16 136 5t77 -26q2 0 5.5 -4t3.5 -6q14 -14 18 -16l16 -17q0 -2 11 -12l6 -12
l-2 2l12 -19q6 -6 6 -10q21 -28 29 -61v-2q20 -44 36 -120q17 -75 17 -145v-385q0 -27 -2 -39l-2 -36l-6 -82q0 -68 -8 -101v-6q0 -2 -2 -6v-4l-7 -62q0 -6 -5 -24t-7 -32t-19 -63q-17 -48 -32 -67q-16 -18 -30 -38t-57 -41q-42 -21 -105 -21q-64 0 -97 22v-2q-10 0 -17 4
l-19 10q-19 11 -23 13l-23 20q-18 18 -32 47l-29 66l-10 49q-1 9 -7 24t-10 83v18q-10 143 -10 297v35l6 149v21zM152 610q0 -48 4 -78v-43q0 -29 2 -40q0 -125 28 -246q0 -2 15 -47t39 -68l8 -4l14 -10l31 -11l6 -6h10q20 -6 33 -6h29q53 -8 76 14q24 21 24 25l12 23l13 14
q2 4 9.5 21t13.5 25q5 7 5 9t6 13l-2 -2q10 29 19 104l4 31q8 47 16 166v10l4 71q8 109 7 170l-3 13v30l3 5v6q-8 264 -31 385q0 2 -8 22q-7 20 -9 34q-2 13 -16 38l-12 27q-2 6 -2 8l-39 53q-4 4 -10 4q-18 10 -42 14t-26 7l-29 4q-35 0 -80 -13q-45 -23 -61 -45
q-65 -97 -68 -260q0 -31 5 -92l2 -31v-30q0 -16 4 -62q-2 -2 -2 -4v-37q2 -2 2 -10v-53q4 -45 0 -77t-3 -45t-1 -18v-8zM414 1550l10 -51q0 -23 -10 -29t-15 -10q-14 0 -22 8l-19 17q-9 41 -14 55q-4 -45 -18 -76q-29 -6 -54 19q-2 11 7 39t12 63l12 43l4 19q0 10 4 22
q-4 23 2 39q6 0 9 8q37 9 57 -20l14 -99q6 -31 21 -47z" />
    <glyph glyph-name="Otilde" unicode="&#xd5;" horiz-adv-x="659" 
d="M82 692q0 172 10 242v14q0 25 2 33v8q4 54 10 87q6 32 14 108t50 155l12 25q32 51 80 66l21 10q64 27 137 2q26 -12 32 -20t13 -13q37 -37 49 -53q35 -71 47 -180l8 -164l2 -21v-53l2 -39q0 -79 3 -107t-1 -53q0 -39 -4 -67v-17l-2 -18v-12l2 -4v-11q-2 -4 -2 -8v-6
l-2 -43v-111q0 -37 -2 -51l-8 -72q0 -8 -4 -40l-6 -64q-9 -35 -6 -49q-8 -8 -13 -33l-8 -14q-4 -4 -4 -8l-2 -5v-4q-14 -38 -37 -66t-24 -28q-20 -10 -27 -12q-16 -16 -64 -18q-67 -3 -110 20l-21 10l-28 27l-23 26l-20 29q-10 14 -19 29q-33 61 -49 246l-4 49q-2 12 -2 43
v14q-2 49 -2 221zM150 510q0 -62 4 -94v-17q0 -78 16 -147l6 -37q0 -17 6 -29l-2 2l13 -18q4 -6 15 -30t20 -34q9 -12 40 -38q43 -29 78 -33l25 6l20 4q2 0 7 4t5 6q6 2 15 17q4 0 20 22q0 6 4 14q14 27 21 56l6 12l16 123v8q0 18 5 55t7 126q3 90 7 167q0 115 2 127v150
l-6 61v131q-14 127 -54 215l-10 25l-4 -10q-2 0 -6 3t-4 5q-14 14 -20 16t-11 8l-12 5q-47 8 -103 -15l-28 -28q-14 -18 -21 -39q-8 -4 -10 -17l-14 -35l-13 -28q-8 -35 -16 -121l-6 -61q-8 -40 -8 -93q-10 -50 -10 -229q-2 -6 -3 -23v-2l3 -4q-7 -73 0 -129v-57zM287 1495
q-13 0 -16 -4t-9 -4t-26 -21q-2 0 -23 -8q-51 28 -6 64l8 8l27 14l6 -8q16 16 31 16h8q57 0 73 -7t28 -13t24 -6t32 11t48 15q4 -4 8 -4q12 -4 20 -22v-2q2 -27 -31 -39l-14 -4q-11 -11 -18 -11q-30 -20 -64 -2q-25 4 -41 13l-37 14h-28z" />
    <glyph glyph-name="Odieresis" unicode="&#xd6;" horiz-adv-x="671" 
d="M84 442v29q-2 49 -2 221t10 242v14q0 25 2 33v8q4 54 10 87q6 32 14 111t52 156l2 5q4 4 8 14l25 27q20 25 26 29t29 12l21 10q64 27 137 2q26 -12 32 -20t13 -13q37 -37 49 -53q35 -71 47 -180l8 -164l2 -21v-53l2 -39q0 -79 3 -107t-1 -53q0 -39 -4 -67v-17l-2 -18v-12
l2 -4v-11q-2 -4 -2 -8v-6l-2 -43v-111q0 -37 -2 -51l-8 -72q0 -8 -4 -40l-6 -64q-9 -35 -6 -49q-8 -8 -13 -33l-6 -14q-4 0 -8 -17l-23 -47q-4 -8 -13 -17t-11 -9l-27 -27l-14 -6q-16 -16 -51 -16l-94 6l-50 22l-28 27l-23 26l-20 29q-63 84 -72 320q-2 8 -2 32zM150 510
q0 -62 4 -94v-17q0 -78 16 -147l6 -37q0 -17 6 -29l-2 2l13 -18q4 -6 15 -30t20 -34q9 -12 40 -38q43 -29 78 -33l25 6l20 4q2 0 7 4t5 6q6 2 15 17q4 0 12 12t10 17t7 15t6 19q6 10 10 29l6 12l16 123v8q0 18 5 55t7 126q3 90 7 167q0 115 2 127v160q0 2 -2 6v4l-4 41v131
q-14 127 -54 215l-10 25l-4 -10q-2 0 -6 3t-4 5q-14 14 -20 16t-11 8l-12 5q-47 8 -103 -15l-28 -28q-14 -18 -21 -39q-8 -4 -10 -17l-14 -35l-13 -28q-8 -35 -16 -121l-6 -61q-8 -40 -8 -93q-10 -50 -10 -229q-2 -6 -3 -23v-2l3 -4q-7 -73 0 -129v-57zM192 1608q2 0 23 12
l-2 12q8 4 37 4h8q29 -4 35 -8l20 -20l11 -13q6 -8 6 -28q6 -23 -6 -54l-21 -32q-5 -13 -17 -17t-12 -6q-43 -2 -61 8q-10 0 -12 11l-8 4h2q-2 0 -2 2l-5 2q-25 6 -30 53v16q4 12 6 17l8 28q8 0 10 9h10zM445 1608q1 0 24 12l-4 12q10 4 39 4h8q29 -4 35 -8l20 -20l11 -13
q6 -8 6 -28q6 -23 -6 -54l-21 -32q-5 -13 -17 -17t-12 -6q-41 -2 -63 8q-10 0 -12 11l-7 4h3q-2 0 -3 2l-4 2q-25 6 -30 53v16q4 12 6 17l8 28q8 0 10 9h9z" />
    <glyph glyph-name="multiply" unicode="&#xd7;" horiz-adv-x="598" 
d="M301 1007.5q0 2.5 4 10.5l17 26l-3 -2q4 8 13.5 25.5t13.5 26.5l35 55q2 3 9 17t7 20q4 25 21 26q16 0 28 -4q4 -4 9.5 -10t7.5 -8q-1 -29 -9 -44t-8 -16l-43 -77q-25 -41 -32 -58l-17 -24l2 2q-8 -20 -20 -41q2 -9 24 -41h-2l15 -23q8 -16 10 -18l14 -16q18 -29 19 -33
q8 -8 11 -14l11 -23q2 -6 16 -19t14 -31q1 -18 -22 -30l-30 4q-10 10 -23 19l-28 51h2l-9 8q0 6 -2 8v2q-14 14 -19 31t-22 31q-16 27 -22 30q-8 -8 -12 -20l-25 -45v2l-33 -66l-8 -12l2 2q0 -6 -10 -16q-6 -18 -21 -25q-39 4 -51 21q0 29 17 49l10 20q8 -8 16 10l-8 3
q0 6 8 14q0 10 4 16l6 15l15 20l16 25l17 12q-2 0 0 5t5 13.5t8 13.5t4 9t-3 4l-21 41l-8 12v-2l-51 90l2 -2l-33 62q-16 20 -10 45q6 12 24.5 15t26.5 -3q19 -19 29 -53v2l8 -17h-2q13 -26 23 -38l-9 -7q18 -10 21 -14q0 -4 10 -14l14 -21q9 -23 21 -35q6 6 6 8.5z" />
    <glyph glyph-name="Oslash" unicode="&#xd8;" horiz-adv-x="587" 
d="M438 903q-16 -295 -16 -429v-193l2 -11v-12l-2 -27q-2 -8 -2 -20v-25q0 -25 -12 -70t-24 -57t-16 -23q-3 -11 -18 -18l-16 -10q-59 -16 -121 -10l-10 8h-2q-10 0 -15 2l-26 27q-23 28 -23 41l-12 12l-2 8q-16 23 -17 45v11q-2 8 -2 32l-4 -6q-4 -16 -14 -26l-29 -33
q-12 -4 -33 5.5t11 68.5q2 4 9 22t16 35t12 24l26 58q2 35 2 119v59l2 61q2 23 2 64v31l2 32v33l-2 31v92q0 16 2 23v4l3 2v8q2 17 2 41t4 65v15q4 16 4 24v29l2 10v8q2 3 0 15t4 30q-4 10 0 38t2 40q4 45 4 68q0 80 68 143h2q4 2 5 2q1 -1 12 5t16 9t44 6t53 -2
q13 -4 48 -22l-2 2q4 0 12 -8q20 -11 27 -31q2 -4 7 -13t8 -16.5t5 -11.5l8 -176q0 -12 -4 -34.5t-4 -28.5q2 2 2 4l35 69v-2l2 2v5q0 10 14 38l-2 -2q0 1 11 23l16 45q4 18 18 20q16 6 38 -4t22 -26t-14 -29l-9 -16l-16 -37q-25 -53 -39 -92q-23 -37 -35 -74
q-12 -20 -30 -64l-9 -22l-2 -16v-17zM266 717q0 2 2 4t4 6t4 6v-2l3 2v4l8 19q0 4 2 4l6 20l4 8q0 6 6 13h-2q8 14 12 35q23 31 23 32v6q0 7 7 22t9 20.5t4 7.5l11 28q-4 6 6 23q4 76 4 209v45q-4 4 -4 12v55q-4 12 -4 31l-2 2v4l-4 6v-2l-13 25q-38 26 -78 14t-61 -42
t-21 -104v-84q-2 -11 0 -14t3 -20q-6 -29 -11 -86v-8l-4 -60q-4 -53 -4 -81l-2 -41v-19l-2 -20v-174l2 -5q-4 -82 -4 -126l2 2v4l10 12v2q6 20 23 55q0 8 2 11l24 57q20 49 29 74q6 6 6 8zM180 150q2 -2 2 -14t7.5 -21t7.5 -11l2 -12q8 -8 20 -26q6 -4 23 -13h24q2 2 4 2h17
v2h8l4 2h-2q20 8 24 15t7.5 11.5t3.5 10.5q0 17 10 27v4l8 27q4 16 4 49v18l2 4v11l2 14l-2 -4q-2 47 -2 157q4 94 4 138l4 135q0 45 3 92q0 -2 -3 -2l-137 -309q-31 -68 -55 -135q4 -88 10 -170v-2z" />
    <glyph glyph-name="Ugrave" unicode="&#xd9;" horiz-adv-x="706" 
d="M569 291l-4 -27q0 -12 -2 -16l-12 -51l-6 -13l2 2l-10 -32l-9 -19v-2q-2 -2 -2 -4l-16 -37l-23 -33q-6 -8 -16 -14q-24 -32 -62 -50q-52 -25 -169 19q-6 4 -23 21l-18 16l-2 4q-6 6 -7 11v4q-14 14 -14 20l-8 6l-8 27q-4 13 -10 25t-9.5 33t-8.5 45q-25 116 -26 335v215
l3 74v221q-2 45 2 129v201q0 39 18 45l43 -29q0 -43 -2 -51q4 -29 4 -43t-4 -47q0 -141 2 -162v-47l2 -51v-51l-2 -54v-127l-2 -20v-238q0 -25 4 -65v-70q0 -87 19 -147l10 -31q0 -12 6 -27l6 -20l10 -27q19 -53 43 -69q92 -50 139 -7q48 43 48 58v4q2 4 2 8l6 12
q-4 0 10 29v4q10 20 10 26t6 11q0 4 3 6v4q2 2 2 7t4 22q0 18 4 27v-2l2 4q0 2 1 9t1 29t5 61t9 169v12q0 92 2 142v77q0 57 2 80l8 146v67q-4 39 0 72q0 86 -4 139v70q4 18 0 37q0 31 7 41q25 10 48 -6t13 -62v-258q0 -202 -6 -234q0 -106 -2 -118l-4 -207q0 -137 -6 -177
t-7 -53v-24zM399 1503l-16 -41q-23 -2 -39 29l-12 12v6l-15 15l-10 18q-20 20 -23 27t-22 26q-12 5 -15 13t-9 14l-13 25q0 16 13 24q25 2 43 -16q68 -70 92 -107v-2q13 -26 30 -45z" />
    <glyph glyph-name="Uacute" unicode="&#xda;" horiz-adv-x="825" 
d="M172 1157q0 -104 6 -203v-149l2 -57v-17q4 -215 10 -311q-4 -12 0 -31q-6 -43 9 -119q10 -72 37 -118t39 -58t63 -45h-2q29 -10 80 -14q12 6 24 6v2q12 2 27 10h-2l20 10l33 31l14 19q0 4 -2 4q2 2 6.5 5t6.5 5l16 33l6 16q0 6 16 35t29 100l4 39q0 14 4 43v4l3 9l6 49
q18 109 24 409v39q0 31 2 43l-8 246l2 10q-4 57 -2 82v80q0 2 -6 26t12 46q55 0 56 -41l2 -4v-17q4 -31 -4 -51q8 -41 4 -84v-2l-2 -4q2 -6 2 -23q4 -14 -4 -26v-4l2 -4v-7q4 -16 4 -32v-52q6 -18 6 -45v-186q3 -34 -3 -80q-5 -47 -5 -65v-9q2 -2 2 -10l-4 -26
q-4 -27 -5 -86l-12 -107v-10l-10 -96q-11 -96 -25 -144l-12 -26q-5 -19 -31 -74v2q-8 -16 -10 -23q-24 -12 -24 -24q-16 -16 -33 -41l-19 -10l-6 -7l-26 -16q-87 -35 -159 -12q-38 12 -42 12l-21 18q-8 0 -53 50l-6 8q-34 28 -72 129l-4 14l-8 60q-7 50 -14 583v33
q0 63 -2 96l-7 264v5l3 6v10q9 38 2 88v14q2 2 2 6v7q-4 29 14 45l49 -35q8 -43 -2 -127v-14l-2 -17v-88zM510 1683q21 0 22 -14q0 -2 3 -2l4 -10q-12 -43 -41 -80l-19 -25q-7 -5 -26 -39l-17 -24l2 2q-16 -29 -39 -30t-28 22q-2 10 10 28v5l6 12l8 10l2 -6q-4 5 5.5 17.5
t14.5 20.5t19 24l16 19q6 8 7 11q8 8 30 47q0 12 21 12z" />
    <glyph glyph-name="Ucircumflex" unicode="&#xdb;" horiz-adv-x="704" 
d="M174 391q0 -113 21 -149q0 -2 8 -19v-14q0 -10 6 -23l6 -20l10 -27q19 -53 43 -69q92 -50 139 -7q48 43 48 58v4q2 4 2 8l6 14q0 3 10 23q0 14 10 29v6q0 4 6 10q0 4 3 6v4q2 2 2 7t4 22q0 23 4 28t4 33t5 67t9 169v12q0 92 2 142v77q0 57 2 80l8 146v67q-4 39 0 72
q0 61 -2 72v34l-2 33v113q0 25 13 37q23 12 47 -13q14 -10 8 -41v-274q0 -203 -4 -211v-10l-2 -13q0 -84 -2 -118l-4 -207q0 -137 -6 -177t-7 -53v-28l-6 -23q0 -18 -2 -20l-12 -51l-10 -29q0 -12 -6 -21q0 -6 -7 -12l-4 -16q-10 -8 -18 -27l-17 -29q-6 -12 -18 -18
q-24 -32 -62 -50q-52 -25 -169 19q-29 16 -41 37l-9 12v7q-30 30 -30 53q-4 13 -10 25t-9.5 33t-8.5 45q-25 116 -26 335v215l3 74v221q-2 45 2 125v199q-1 43 22 45q39 4 39 -31v-10l-2 -15v-45l2 -10v-12q0 -35 -1 -111t1 -96l2 -47v-98l-2 -54v-127l-2 -20v-238
q0 -25 4 -65v-70zM297 1642q0 8 4 25q-6 23 0 39q6 0 6 1t8 5q36 9 52 -20l18 -88q6 -25 21 -52l10 -24l6 -29v-4l-2 -4q0 -20 -14 -27q-4 0 -9 -4q-22 0 -41 19l-8 28l-6 19q-2 0 -2 4q-8 -51 -16 -66q-42 -4 -50 14t1 48t10 53l10 47v4q2 4 2 12z" />
    <glyph glyph-name="Udieresis" unicode="&#xdc;" horiz-adv-x="706" 
d="M170 526q0 -25 4 -65v-70q0 -87 19 -147l10 -31q0 -12 6 -27l6 -20l10 -27q19 -53 43 -69q92 -50 139 -7q48 43 48 58v4q2 4 2 8l6 12q-4 0 10 29v4q10 20 10 26t6 11q0 4 3 6v4q2 2 2 7t4 22q0 18 4 27v-2l2 4q0 2 1 9t1 29t5 61t9 169v12q0 92 2 142v77q0 57 2 80
l8 146v67q-4 39 0 72q0 86 -4 139v70q4 18 0 37q0 31 7 41q16 8 30 0t21 -9q14 -20 10 -57v-260q0 -202 -6 -234q0 -106 -2 -118l-4 -207q0 -137 -6 -177t-7 -53v-28l-6 -23q0 -18 -2 -20l-12 -51l-10 -29q-1 -12 -7 -18t-6 -13l-2 -8l-6 -14l-10 -17l-16 -32
q-17 -8 -17 -19l-31 -22v2q-18 -18 -30 -27q-103 -20 -160 8l-16 6q-6 4 -23 21l-18 16l-2 4q-6 6 -7 11v4q-14 14 -14 20l-8 6l-8 27q-4 13 -10 25t-9.5 33t-8.5 45q-25 116 -26 335v215l3 74v221q-2 45 2 129v201q0 39 18 45l43 -29q0 -43 -2 -51q4 -29 4 -43t-4 -47
q0 -141 2 -162v-47l2 -51v-51l-2 -54q-4 -53 0 -108q-4 -63 -2 -94v-183zM194 1608q2 0 25 12l-4 12q10 4 37 4h8q29 -4 35 -8l20 -20l11 -13q6 -8 6 -28q6 -23 -6 -54l-21 -32q-6 -13 -17 -17t-12 -6q-39 -2 -61 8q-10 0 -12 11l-8 4h2q-4 4 -7 4q-25 6 -30 53v16
q4 12 6 17l8 28q8 0 10 9h10zM448 1608q2 0 23 12l-2 12q8 4 37 4h8q29 -4 35 -8l20 -20l11 -13q6 -8 6 -28q6 -23 -6 -54l-21 -32q-5 -13 -17 -17t-12 -6q-43 -2 -61 8q-10 0 -12 11l-8 4h2q-4 4 -7 4q-25 6 -30 53v16q4 12 6 17l8 28q8 0 10 9h10z" />
    <glyph glyph-name="Yacute" unicode="&#xdd;" horiz-adv-x="448" 
d="M207 24l4 363v148q2 23 -2 63q0 47 -2 70v28l-2 27v78q-8 0 -15 41q-4 2 -4 8q-6 6 -6 16l-8 15v8l-2 6l-6 6l-10 21q-8 11 -11 26q-25 63 -28.5 76.5t-6.5 18.5q-2 5 -8 25t-10 38q-4 19 -10 35l-19 61q0 17 -6 23q-27 82 -39 108q-2 14 -12 38t-8 52q33 25 55 -4
l25 -67q2 -2 2 -6t9 -24t15 -52l13 -51l10 -29q8 -16 8 -25l19 -51v-6l16 -55q6 -20 16 -37q8 -33 26 -66t17 -45l4 -8q2 4 2 8t7 15l-2 -2q4 16 6 16l6 12l-2 -2l24 68q2 23 11 49q0 14 4 18l10 45q4 12 4 15l2 4v6q0 7 8 27q0 16 6 28l9 21q0 4 5 24t11 35l-2 -2
q8 16 8 23l12 36l15 39q0 13 8 21v4q2 2 2 10l16 21q18 4 27 0l21 -21l-5 -35l-6 -16q0 -4 -4 -8v-6q-4 -12 -8 -19q-6 -39 -20 -80l-9 -32v-2q-6 -12 -6 -23l-8 -29q-14 -43 -23 -61l-8 -25q0 -39 -4 -39t-6 -19q-4 -33 -23 -58q-6 -43 -18 -60q0 -6 -6 -12l-8 -25
q-4 -4 -4 -14q-11 -11 -19 -35q0 -113 4 -194l2 -66q4 -78 4 -125v-53l-2 -57q-2 -39 -2 -113v-47l2 -47v-49l-2 -52q-27 -27 -47 -14q-16 16 -16 24zM318 1700q22 0 22 -14l6 -13q-6 -31 -41 -80l2 2q-2 -4 -12.5 -16.5t-32.5 -48.5l-16 -25l2 2q-16 -29 -40 -29t-28 17
t3 25t7 12l15 20l2 -4q-2 6 6 18l14 21q9 15 20 26t20 23t19 30t11 22q-1 12 21 12z" />
    <glyph glyph-name="Thorn" unicode="&#xde;" horiz-adv-x="907" 
d="M180 1333l2 -63v-37l-2 -4v-6q0 -115 2 -146q8 -4 17 0q10 4 14 4l25 4l112 13q36 2 98 -4t87 -15q47 -10 86 -28l65 -43l16 -13l19 -18q43 -43 51 -53q35 -51 49 -93q29 -126 15 -204l-9 -17l-4 -16q-2 -4 -9 -12t-9 -15q-18 -22 -27 -35q-12 -8 -18 -14l-21 -20
q-25 -31 -34 -33t-19 -12l-8 -4q-2 -2 -10.5 -6.5t-17.5 -12.5t-25 -12q-15 -4 -15 -6l-22 -9l-19 -10q-25 -14 -47 -14t-47 -8l-33 -6h-18q-2 0 -10 -7h-29q-4 0 -20 -4l-58 -6l-16 -2h-15q-49 -8 -98 -2v-141l-2 -21v-57l2 -14q0 -64 -1 -84q-1 -21 -21 -31q-10 0 -23 -1
q-12 -1 -18 7h-4q-25 68 -7 115v80q-9 77 2 98v8q2 8 3 14v101q-7 130 -7 252v127q-2 49 2 137l2 27v24q4 37 -2 52t7 30v16q2 43 2 145t-2 154v29q-7 27 8 45q16 8 51 -14q6 -12 6 -37l2 -16q0 -14 2 -23v-14l2 -17zM174 559q0 -47 4 -145q10 -4 47 -4h41l4 -2h11l10 2
l43 4q16 4 31 4l38 4q12 0 60 10l14 8q8 2 29 2h2q2 2 5 2t15 8t32 13l34 8l8 8l21 8h-2q7 7 10 7l28 14l-2 -2q35 24 39 33q4 11 20 27t21 22q4 6 17 18q24 75 22 109l-2 2v2q-4 12 0 31l-4 14q-8 49 -22 72q-6 4 -25 39l-10 24l-43 45q-10 12 -37 31l2 -2q-4 0 -9 5
t-18 13l2 -2q-12 6 -45 17h2h-2l-57 16q-6 6 -14 6h-13l-28 6q-58 9 -164 -4l-8 -2q-70 -4 -101 -18q-10 -102 -10 -240l2 -76v-71l2 -31v-35z" />
    <glyph glyph-name="germandbls" unicode="&#xdf;" horiz-adv-x="653" 
d="M225 1360l-47 4l-6 4h-8q8 -92 8 -209v-49l-2 -51v-82q0 -198 6 -246v-8q4 -29 0 -143t-4 -383v-150q0 -47 -31 -47q-38 0 -30 86v10q2 20 -2 47v537q1 10 -3 15t-2 17t6 26t-1 61v10q0 2 -3 6v92q-2 51 -2 173t-2 177v127q-6 43 19 48q35 2 67 -6t41 -7l45 -12
q42 -13 64 -35l10 -4q6 0 27 -20l10 -15l2 -2h2q14 -4 21 -18l-2 -6q39 -43 41 -52q2 -10 10 -18l14 -25q27 -61 33 -141v-24q0 -5 4 -21v-8q8 -115 -51 -203q-35 -43 -51 -53v2q-6 -6 -16 -10t-12.5 -6.5l-4.5 -4.5t-5 -3.5l-5 -2.5l-19 -12l-12 -6h2l24 -4q37 -12 70 -29
q6 -6 21 -12l12 -8l20 -17q10 -10 19 -10q63 -33 88 -141q10 -5 16 -92q6 -38 6 -52t-6 -26q0 -20 -2 -25l-6 -22q-4 -16 -4 -26t-4 -20q-4 -9 -9 -25t-20 -42l-22 -31q-2 -3 -11 -10q-8 -8 -10 -17t-18 -16l-27 -26q-12 -12 -17 -12t-24 -17l-18 -8q-6 -6 -15 -6l-10 -5h-2
q-4 -2 -22 -12q-43 -12 -101 -12h-24q-2 2 -4 2q-33 0 -33 30.5t30 30.5h33l49 -2q47 0 109 43q99 69 119 191q6 29 6 71t-6 54q-4 20 -4 43l-2 2q0 4 -19 61v-2q-32 61 -58 82t-65 37q-51 27 -86 33l-37 6h-34q-33 0 -33 31q0 14 10 23t21 9h4q4 2 8 2h8q14 4 37 19l37 16
l24 17q38 19 66 67v-2q65 162 -14 344q-2 2 -20.5 41t-29.5 39l-18 19q-4 4 -6 8l-2 2q-2 0 -6.5 3t-14.5 12t-26 15z" />
    <glyph glyph-name="agrave" unicode="&#xe0;" horiz-adv-x="477" 
d="M283 1380q12 -36 12 -77l6 -89q6 -90 12 -157l-2 -6q0 -8 4 -25v-6q2 -4 2 -6v-10l29 -213q4 -8 4 -17l10 -69l13 -68q4 -43 11 -74t9 -41l6 -30l2 -5v-14l5 -24v-27l8 -37v-2q2 -2 2 -4l6 -41q4 -30 12 -104t39 -166v2q8 -14 8 -42t-7 -31t-25 -3q-37 0 -37 53
q-4 12 -4 25l-29 200q-6 36 -12 90.5t-27 161.5l-10 2h-17q-37 0 -51 2h-22l-11 2h-12q-20 -2 -72 -2q-6 -23 -10 -57l-4 -39q-2 -31 -14 -78l-8 -53l-9 -41q-4 -25 -4 -35l-4 -32q-4 -31 -11 -45t-7 -22v-15q-11 -37 -11 -41q4 -16 -6 -29v-8q-2 -4 -2 -8q-4 -35 -26 -35
q-49 0 -33 43l12 55q7 40 14 65t13 60l16 96l21 111q4 43 16 108l12 66q0 33 9 47v10q0 10 6 19l-2 -2q2 4 2 8v6q2 6 2 10l6 68q12 78 15 125t14 112l8 68q6 36 6 53l12 60q4 20 4 30l2 11v10q0 15 4 31t6 36t9 41l6 64q-4 25 14 29q20 13 45 -5l11 -26q2 -2 2 -10l2 -3v-6
zM172 698q0 -30 -2 -45l-6 -32q-4 -8 -4 -15q-6 -12 -6 -18l53 4q27 0 63 -4h9q35 -4 49 0q-5 35 -17 80l-12 65q-12 100 -29 174q-24 176 -24 240q-4 39 -4 61l-6 -39l-5 -24l-6 -25q-4 -18 -8 -67l-6 -33q-6 -25 -6 -47l-6 -80q0 -17 -4 -39q-4 -23 -5 -39l-6 -41
q0 -16 -4 -37v-2q-8 -7 -8 -37zM90 1628v14l-14 23q0 12 16 23q9 3 37 -11q15 -20 23 -27q8 -8 21 -24t17 -20t28 -35l30 -39q4 -10 16 -23l15 -22l-25 -35q-20 -2 -39 27h2l-14 14v6q-12 12 -15 14l-10 19q-20 20 -20 22q-2 2 -5.5 7.5t-20.5 23.5t-34 43h-8z" />
    <glyph glyph-name="aacute" unicode="&#xe1;" horiz-adv-x="477" 
d="M283 1380q12 -36 12 -77l6 -89q6 -90 12 -157l-2 -6q0 -8 4 -25v-6q2 -4 2 -6v-10l29 -213q4 -8 4 -17l10 -69l13 -68q4 -43 11 -74t9 -41l6 -30l2 -5v-14l5 -24v-27l8 -37v-2q2 -2 2 -4l6 -41q4 -30 12 -104t39 -166v2q8 -14 8 -42t-7 -31t-25 -3q-37 0 -37 53
q-4 12 -4 25l-29 200q-6 36 -12 90.5t-27 161.5l-10 2h-17q-37 0 -51 2h-22l-11 2h-12q-20 -2 -72 -2q-6 -23 -10 -57l-4 -39q-2 -31 -14 -78l-8 -53l-9 -41q-4 -25 -4 -35l-4 -32q-4 -31 -11 -45t-7 -22v-15q-11 -37 -11 -41q4 -16 -6 -29v-8q-2 -4 -2 -8q-4 -35 -26 -35
q-49 0 -33 43l12 55q7 40 14 65t13 60l16 96l21 111q4 43 16 108l12 66q0 33 9 47v10q0 10 6 19l-2 -2q2 4 2 8v6q2 6 2 10l6 68q12 78 15 125t14 112l8 68q6 36 6 53l12 60q4 20 4 30l2 11v10q0 15 4 31t6 36t9 41l6 64q-4 25 14 29q20 13 45 -5l11 -26q2 -2 2 -10l2 -3v-6
zM172 698q0 -30 -2 -45l-6 -32q-4 -8 -4 -15q-6 -12 -6 -18l53 4q27 0 63 -4h9q35 -4 49 0q-5 35 -17 80l-12 65q-12 100 -29 174q-24 176 -24 240q-4 39 -4 61l-6 -39l-5 -24l-6 -25q-4 -18 -8 -67l-6 -33q-6 -25 -6 -47l-6 -80q0 -17 -4 -39q-4 -23 -5 -39l-6 -41
q0 -16 -4 -37v-2q-8 -7 -8 -37zM356 1679q20 0 23 -14l2 -2q0 -4 2 -4l2 -6q-10 -37 -41 -80l-18 -23q-10 -10 -27 -41l-16 -24l2 2q-16 -29 -39 -30t-27 17t3 26q7 7 7 11l13 25q16 23 16 25l45 55l16 29q15 20 17 22q0 12 20 12z" />
    <glyph glyph-name="acircumflex" unicode="&#xe2;" horiz-adv-x="477" 
d="M283 1380q12 -36 12 -77l6 -89q6 -90 12 -157l-2 -6q0 -8 4 -25v-6q2 -4 2 -6v-10l29 -213q4 -8 4 -17l10 -69l13 -68q4 -43 11 -74t9 -41l6 -30l2 -5v-14l5 -24v-27l8 -37v-2q2 -2 2 -4l6 -41q4 -30 12 -104t39 -166v2q8 -14 8 -42t-7 -31t-25 -3q-37 0 -37 53
q-4 12 -4 25l-29 200q-6 36 -12 90.5t-27 161.5l-10 2h-17q-37 0 -51 2h-22l-11 2h-12q-20 -2 -72 -2q-6 -23 -10 -57l-4 -39q-2 -31 -14 -78l-8 -53l-9 -41q-4 -25 -4 -35l-4 -32q-4 -31 -11 -45t-7 -22v-15q-11 -37 -11 -41q4 -16 -6 -29v-8q-2 -4 -2 -8q-4 -35 -26 -35
q-49 0 -33 43l12 55q7 40 14 65t13 60l16 96l21 111q4 43 16 108l12 66q0 33 9 47v10q0 10 6 19l-2 -2q2 4 2 8v6q2 6 2 10l6 68q12 78 15 125t14 112l8 68q6 36 6 53l12 60q4 20 4 30l2 11v10q0 15 4 31t6 36t9 41l6 64q-4 25 14 29q20 13 45 -5l11 -26q2 -2 2 -10l2 -3v-6
zM172 698q0 -30 -2 -45l-6 -32q-4 -8 -4 -15q-6 -12 -6 -18l53 4q27 0 63 -4h9q35 -4 49 0q-5 35 -17 80l-12 65q-12 100 -29 174q-24 176 -24 240q-4 39 -4 61l-6 -39l-5 -24l-6 -25q-4 -18 -8 -67l-6 -33q-6 -25 -6 -47l-6 -80q0 -17 -4 -39q-4 -23 -5 -39l-6 -41
q0 -16 -4 -37v-2q-8 -7 -8 -37zM205 1706q8 0 8 1t8 5q28 3 51 -20l17 -90q2 -37 18 -58l6 -20l6 -27l-2 -10q0 -20 -14 -27q-4 0 -8 -4q-20 0 -37 27h2q-6 6 -18 63q-6 -41 -25 -84q-41 -10 -51 13q-4 10 0 22q13 13 20 84l13 43l6 41v41zM238 1559v-5v5z" />
    <glyph glyph-name="atilde" unicode="&#xe3;" horiz-adv-x="477" 
d="M283 1380q12 -36 12 -77l6 -89q6 -90 12 -157l-2 -6q0 -8 4 -25v-6q2 -4 2 -6v-10l29 -213q4 -8 4 -17l10 -69l13 -68q4 -43 11 -74t9 -41l6 -30l2 -5v-14l5 -24v-27l8 -37v-2q2 -2 2 -4l6 -41q4 -30 12 -104t39 -166v2q8 -14 8 -42t-7 -31t-25 -3q-37 0 -37 53
q-4 12 -4 25l-29 200q-6 36 -12 90.5t-27 161.5l-10 2h-17q-37 0 -51 2h-22l-11 2h-12q-20 -2 -72 -2q-6 -23 -10 -57l-4 -39q-2 -31 -14 -78l-8 -53l-9 -41q-4 -25 -4 -35l-4 -32q-4 -31 -11 -45t-7 -22v-15q-11 -37 -11 -41q4 -16 -6 -29v-8q-2 -4 -2 -8q-4 -35 -26 -35
q-49 0 -33 43l12 55q7 40 14 65t13 60l16 96l21 111q4 43 16 108l12 66q0 33 9 47v10q0 10 6 19l-2 -2q2 4 2 8v6q2 6 2 10l6 68q12 78 15 125t14 112l8 68q6 36 6 53l12 60q4 20 4 30l2 11v10q0 15 4 31t6 36t9 41l6 64q-4 25 14 29q20 13 45 -5l11 -26q2 -2 2 -10l2 -3v-6
zM172 698q0 -30 -2 -45l-6 -32q-4 -8 -4 -15q-6 -12 -6 -18l53 4q27 0 63 -4h9q35 -4 49 0q-5 35 -17 80l-12 65q-12 100 -29 174q-24 176 -24 240q-4 39 -4 61l-6 -39l-5 -24l-6 -25q-4 -18 -8 -67l-6 -33q-6 -25 -6 -47l-6 -80q0 -17 -4 -39q-4 -23 -5 -39l-6 -41
q0 -16 -4 -37v-2q-8 -7 -8 -37zM190 1491q-12 0 -15 -4t-9 -4t-27 -21l-22 -8q-51 28 -6 64l8 8l26 14l7 -8q16 16 30 16h2q4 2 32 2t46 -8t30 -14t23 -6q10 0 39 14q8 8 41 12q4 -4 8 -4q13 -4 21 -22v-2q2 -27 -22 -35t-47 -24t-58 3q-25 4 -41 13l-37 14h-29z" />
    <glyph glyph-name="adieresis" unicode="&#xe4;" horiz-adv-x="477" 
d="M283 1380q12 -36 12 -77l6 -89q6 -90 12 -157l-2 -6q0 -8 4 -25v-6q2 -4 2 -6v-10l29 -213q4 -8 4 -17l10 -69l13 -68q4 -43 11 -74t9 -41l6 -30l2 -5v-14l5 -24v-27l8 -37v-2q2 -2 2 -4l6 -41q4 -30 12 -104t39 -166v2q8 -14 8 -42t-7 -31t-25 -3q-37 0 -37 53
q-4 12 -4 25l-29 200q-6 36 -12 90.5t-27 161.5l-10 2h-17q-37 0 -51 2h-22l-11 2h-12q-20 -2 -72 -2q-6 -23 -10 -57l-4 -39q-2 -31 -14 -78l-8 -53l-9 -41q-4 -25 -4 -35l-4 -32q-4 -31 -11 -45t-7 -22v-15q-11 -37 -11 -41q4 -16 -6 -29v-8q-2 -4 -2 -8q-4 -35 -26 -35
q-49 0 -33 43l12 55q7 40 14 65t13 60l16 96l21 111q4 43 16 108l12 66q0 33 9 47v10q0 10 6 19l-2 -2q2 4 2 8v6q2 6 2 10l6 68q12 78 15 125t14 112l8 68q6 36 6 53l12 60q4 20 4 30l2 11v10q0 15 4 31t6 36t9 41l6 64q-4 25 14 29q20 13 45 -5l11 -26q2 -2 2 -10l2 -3v-6
zM172 698q0 -30 -2 -45l-6 -32q-4 -8 -4 -15q-6 -12 -6 -18l53 4q27 0 63 -4h9q35 -4 49 0q-5 35 -17 80l-12 65q-12 100 -29 174q-24 176 -24 240q-4 39 -4 61l-6 -39l-5 -24l-6 -25q-4 -18 -8 -67l-6 -33q-6 -25 -6 -47l-6 -80q0 -17 -4 -39q-4 -23 -5 -39l-6 -41
q0 -16 -4 -37v-2q-8 -7 -8 -37zM373 1638h8q29 -4 37 -8l20 -26q14 -16 15 -37q6 -23 -7 -54l-20 -32q-6 -13 -18 -17t-11 -6q-39 -2 -61 8q-10 0 -12 11l-9 4h2q-2 0 -2 2l-4 2q-25 6 -30 53v16q4 12 6 17l8 28q8 0 10 9q8 0 15 4t20 10l-4 12q10 4 37 4zM119 1638h8
q29 -4 37 -8l20 -26q15 -15 15 -37q6 -23 -6 -54l-21 -32q-6 -13 -18 -17t-11 -6q-39 -2 -61 8q-10 0 -12 11l-9 4h2q-2 0 -2 2l-4 2q-25 6 -30 53v16q4 12 6 17l8 28q8 0 10 9q8 0 15 4t20 10l-4 12q10 4 37 4z" />
    <glyph glyph-name="aring" unicode="&#xe5;" horiz-adv-x="477" 
d="M100 594q0 33 9 47v8l6 27v6q2 6 2 10l6 68q12 78 15 125t14 112l8 68q6 36 6 53l12 60q4 20 4 30l2 11v10q0 15 4 31t6 36t9 41q0 17 4 27t0 20q-12 0 -23 11l-20 8q-4 2 -14 12l-10 9q-11 10 -13 12l-2 4l-12 12q-18 49 -15 92q17 33 37.5 48.5t22.5 17.5q2 8 18 12
l6 12q16 -2 24 1t17 3l45 -2q16 -4 29 -4q24 -12 51 -39q6 -2 8 -4l9 -20v2q12 -20 12 -36t-12 -73q-10 -6 -11 -18l-47 -49l-26 -11q6 -12 6 -28q8 -40 8 -53l6 -89q6 -90 12 -157l-2 -6q0 -8 4 -25v-6q2 -4 2 -6v-10l29 -213q4 -8 4 -17l10 -69l13 -68q4 -43 11 -74t9 -41
l6 -30l2 -5v-14l5 -24v-27l8 -37v-2q2 -2 2 -4l6 -41q4 -30 12 -104t39 -166v2q8 -14 8 -42t-7 -31t-25 -3q-37 0 -37 53q-4 12 -4 25l-29 200q-6 36 -12 90.5t-27 161.5l-10 2h-17q-37 0 -51 2h-22l-11 2h-12q-20 -2 -72 -2q-6 -23 -10 -57l-4 -39q-2 -31 -14 -78l-8 -53
l-9 -41q-4 -25 -4 -35l-4 -32q-4 -31 -11 -45t-7 -22v-15q-11 -37 -11 -41q4 -16 -6 -29v-8q-2 -4 -2 -8q-4 -35 -26 -35q-49 0 -33 43l12 55q7 40 14 65t13 60l16 96l21 111q4 43 16 108zM172 698q0 -30 -2 -45l-6 -32q-4 -8 -4 -15q-6 -12 -6 -18l53 4q27 0 63 -4h9
q35 -4 49 0q-5 35 -17 80l-12 65q-12 100 -29 174q-24 176 -24 240q-4 39 -4 61l-6 -39l-5 -24l-6 -25q-4 -18 -8 -67l-6 -33q-6 -25 -6 -47l-6 -80q0 -17 -4 -39q-4 -23 -5 -39l-6 -41q0 -16 -4 -37v-2q-8 -7 -8 -37zM238 1458q22 0 34 -2l15 14l8 17q0 4 10 24q4 25 -2 41
q-27 18 -70 17l-20 -10q-11 -7 -16 -17q-8 -6 -23 -33q4 -25 51 -51h13z" />
    <glyph glyph-name="ae" unicode="&#xe6;" horiz-adv-x="958" 
d="M172 694q115 187 225 150h4q2 0 2 -2h3v82q0 53 2 75v23q4 86 4 154t-6 85t-5 42l-10 34l-22 23q-13 18 -29 22q-8 -8 -23 -8q-86 -41 -90 -203q-2 -18 2 -57v-4q-2 -4 -2 -8v-41q0 -8 3 -31t-13 -31h2q-18 -12 -49 13q-18 26 -12 64t6 46v11q-4 3 -2 25t7 83t16.5 76.5
t12.5 18.5t3 5l10 33l14 6q111 95 157 51.5t64 -65.5q14 -33 23 -59l12 24q31 47 49 58q60 37 94 41t68 -2t49 -15l33 -27q23 -8 33 -26h-2q65 -82 54 -236q-3 -42 -3 -69v-17q-4 -29 1 -62q5 -34 5 -54q8 -49 8 -85t-12 -67q-14 -27 -63 -12q-25 0 -37 6h-17l-20 -2h-39
l-66 -8q-20 0 -28 4l-56 -4h-2q-4 -4 -18 -4t-27 -5q-2 -20 2 -59v-8l2 -16v-17q2 -35 3 -123v-147l2 -19q0 -25 2 -39t-2 -47q9 -71 20 -105q10 -34 10 -45t16 -29l27 -34q10 -2 35 -10q46 -6 88 8q23 14 48 56t30 82q4 39 16.5 54t38.5 13q12 -8 14.5 -28.5t-3.5 -32.5
q0 -27 -7 -35v-4q-7 -14 -11 -28t-9 -13q-6 -20 -8 -23l-15 -18l-6 -12q-4 -4 -7 -12t-17 -17q-12 -12 -24 -16t-42 -25q-8 0 -20 -4h-9q-43 -10 -73 4h-8q-4 2 -18 2t-18 5q-5 5 -14 9l2 -2q-4 0 -12 8l-14 15q-10 10 -15 12q-31 61 -32 68v-37l-2 -15v-38
q-2 -25 -20.5 -29t-34.5 12t-12 41q3 25 3 31q-6 -6 -8 -9t-8 -9.5t-8 -10.5l-17 -20l-12 -9q-20 -18 -70 -22t-80 12t-38 37q-13 9 -13 19q-2 2 -7 8t-7 8q-15 46 -23 76t-12 114t4 128l12 72q13 73 15 97q20 86 45 111q2 4 5 8t5 8zM512 809q9 0 41 4h12q16 2 53 -2l41 6
q41 0 74 -3t51 1q6 47 3 90t-3 85t2 61l7 77v86q0 8 -5 25l-10 35q0 8 -6 14q-4 18 -16 35t-23 23q-16 16 -26 18l-25 6q-43 8 -70 -6q-26 -14 -32 -14l-17 -15q-2 -4 -14 -22l-17 -19q-26 -52 -26 -75q-14 -63 -14 -72v-12l-3 -5q0 -30 -7 -52t-7 -124t2 -137l6 -2l4 -4
q4 -2 11 -2h14zM160 199v-9q0 -10 6 -16l14 -51l13 -23l8 -16q23 -27 43 -27q8 -8 18 -1t24 7q13 0 19 7l25 10q18 18 28 39t16 25t11 22q8 45 8 47v74q0 74 4 205l2 26v27l4 209q-5 9 -8 20v10q-17 15 -37 7h-6q-8 -6 -8 -7l-45 -28l-6 -2q-82 -96 -105 -189q0 -6 -6 -12
q0 -4 -4 -8v-4l-2 -11h4q-8 -47 -16 -59q-15 -98 -10 -179q4 -81 4 -91z" />
    <glyph glyph-name="ccedilla" unicode="&#xe7;" horiz-adv-x="720" 
d="M143 739l2 -61v-14l-2 -17q0 -25 -2 -33v-118l2 -23q2 -8 2 -31v-12l-2 -12v-21l9 -26v-25q0 -66 24 -145q14 -35 25 -56l-2 2q2 0 1.5 -4.5t19.5 -22.5t44 -34l19 -18q2 0 6 -4t14 -5l25 -14q32 -8 97 -8t114 27t77 110q4 31 25 35q39 0 39 -29l-8 -35q-2 -4 -2 -11
t-4 -12q-19 -24 -19 -28l-31 -37l-20 -14l-18 -18q-43 -31 -162 -48q-2 -4 -2 -10t-2 -8l-15 -27q-10 -16 -16 -32h8l57 -6h5l4 -3l26 -10l21 -18l12 -25l12 4q8 -20 9 -41q0 -43 -46 -65q-93 -32 -147 -15l-35 11q-43 10 -80 35v8q-12 12 -8 18q2 25 31 21q6 0 13 -5
t9 -5.5t15 -6.5l-2 2l9 -3l32 -9q4 0 8 -4h4q2 -2 6 -2l8 -4q55 -9 99 12q23 10 16 33q-18 20 -72 24q-12 -4 -22 -4l-2 -2l-19 -8q-16 -8 -35 -6q-27 8 -28 31q-6 16 12 24l10 15l15 45q0 2 16 28v-2q6 6 6 10l4 11l-22 6q-59 12 -80 25t-53 49v-2q-20 12 -31 32l2 -2
q-5 9 -15 17t-12 10q-17 34 -32 94q-16 43 -18 147q-3 105 -5 128v12q-4 20 -4 57t2 53v279q0 95 10 115v55q8 8 8 24l13 62l16 65q0 16 6 29v-2l2 4v4l13 43q10 14 10 17q6 6 10 26q18 37 72 65t84 35t75 7h43q29 0 45 -10t33 -9q17 0 28 -10t15 -10l8 -6l3 -2
q25 -13 28 -35l31 -35q25 -53 -4 -70q-15 -9 -33 5t-20 47l-7 10q-18 37 -92 61q-85 38 -209 -22h2q-31 -24 -48 -46q-16 -22 -28 -63t-12 -53l-10 -37l-16 -76q-10 -30 -10 -102l-5 -64v-36q-2 -10 -2 -31v-39q-2 -16 2 -45l-2 -12v-13z" />
    <glyph glyph-name="egrave" unicode="&#xe8;" horiz-adv-x="413" 
d="M190 893q0 -139 7 -211q8 -2 15 0t26 2q53 0 53 -33q2 -20 -9.5 -28.5t-37.5 -6.5h-11q-18 4 -22 2t-16 -2h-7q-4 -14 0 -53v-57q-4 -35 0 -57v-58q-2 -29 -2 -100v-189l4 -22q0 -8 3 -12q6 -2 20 -2h8q31 0 61 3t54 -3q18 -6 14 -33l-12 2l-49 -35h-31l-14 2h-13l-20 -2
h-57q-35 0 -29 86v76l-4 280q0 90 4 136v55l-2 20v207q2 33 2 122t-2 130v43l2 16v166q0 18 -5 38t3 36q18 23 63 19h27q16 -4 25 -5q4 4 16 2h6l2 3h8q57 0 57.5 -33t-67.5 -33h-4q-4 2 -6 2h-12q-14 2 -43 2q-6 -57 -7 -119v-35l2 -20v-16q0 -20 -2 -31v-4l-2 -4
q0 -37 2 -54v-22l2 -27v-143zM92 1608v14l-2 4q-12 12 -12 22t12 16q12 7 24 1t17 -6l39 -51q2 -2 6 -7.5t9 -11.5l23 -31t34 -40l10 -19l-23 -37q-23 -2 -41 27h2l-14 14v6q-12 12 -14 15l-10 18q-20 20 -24 26t-19 25q-12 10 -9 13q-2 2 -8 2z" />
    <glyph glyph-name="eacute" unicode="&#xe9;" horiz-adv-x="421" 
d="M197 893q0 -139 6 -211h16q6 2 27 2q51 0 51 -33q2 -20 -9.5 -28.5t-37.5 -6.5h-10q-18 4 -22 2t-17 -2h-6q-4 -14 0 -53v-57q-4 -35 0 -57v-58q-2 -29 -2 -100v-189l4 -22q0 -8 2 -12q6 -2 20 -2h8q31 0 59 3t58 -3q18 -6 14 -33l-12 2l-51 -35h-31l-12 2h-14l-21 -2
h-57q-35 0 -29 86v76l-4 280q0 90 4 136v55l-2 20v207q2 33 2 122t-2 130v43l2 16v166q0 18 -4 36t2 38q18 23 64 19h26q16 -4 29 -5q4 4 12 2h6l4 3h6q57 0 58 -33q0 -44 -80 -31h-10q-14 2 -43 2q-6 -57 -6 -119v-35l2 -20v-16q0 -27 -4 -35v-4q0 -37 2 -54v-22l2 -27
v-143zM333 1681q22 0 23 -14q4 -4 4 -6l2 -6q-12 -41 -43 -80q-30 -39 -57 -82v-2l-2 -4q-8 -27 -35 -28t-31 17t4 26q7 7 7 11l14 23l2 -6q-4 5 4 16t8 15l46 57q0 2 2 4l14 25q8 10 10 14l-2 -2q2 4 8 10q0 12 22 12z" />
    <glyph glyph-name="ecircumflex" unicode="&#xea;" horiz-adv-x="419" 
d="M197 893q0 -139 6 -211h16q6 2 27 2q51 0 51 -33q2 -20 -9.5 -28.5t-37.5 -6.5h-10q-18 4 -22 2t-17 -2h-6q-4 -14 0 -53v-57q-4 -35 0 -57v-58q-2 -29 -2 -100v-189l4 -22q0 -8 2 -12q6 -2 20 -2h8q31 0 59 3t58 -3q18 -6 14 -33l-12 2l-51 -35h-31l-12 2h-14l-21 -2
h-57q-35 0 -29 86v76l-4 280q0 90 4 136v55l-2 20v207q2 33 2 122t-2 130v43l2 16v166q0 18 -5 38t3 36q18 23 64 19h26q16 -4 29 -5q4 4 12 2h6l4 3h6q57 0 58 -33q0 -44 -80 -31h-10q-14 2 -43 2q-6 -57 -6 -119v-35l2 -20v-16q0 -27 -4 -35v-4q0 -37 2 -54v-22l2 -27
v-143zM178 1640q0 18 2 25v10l-2 4v23q8 0 8 1t16 6t46 -15l18 -101q6 -29 23 -49l6 -16l-2 2q6 -10 10 -33l-2 -8q0 -20 -10 -23l-10 -10q-21 0 -27 7l-14 16l-11 26q0 9 -5 15t-5 8q-12 -53 -18 -70q-33 -6 -56 17l9 26q12 37 11 55t5 46q4 29 8 30v8z" />
    <glyph glyph-name="edieresis" unicode="&#xeb;" horiz-adv-x="471" 
d="M219 893q0 -139 6 -211q7 -2 15 0t26 2q53 0 53 -33q2 -20 -9 -28.5t-38 -6.5h-12q-14 4 -19 2t-18 -2h-6q-4 -14 0 -53v-57q-4 -35 0 -57v-58q-2 -29 -2 -100v-189l4 -22q0 -8 2 -12q6 -2 21 -2h8q32 0 60 3t57 -3q16 -6 12 -33l-10 2l-52 -35h-30l-15 2h-32l-19 -2h-39
q-35 0 -28 86v76l-4 280q0 90 4 136v55l-2 20v207q2 33 2 122t-2 130v43l2 16v166q0 18 -5 38t3 36q18 23 63 19h29q12 -4 22 -5q4 4 17 2h6l2 3h8q57 0 57 -33t-67 -33h-4q-4 2 -6 2h-13q-14 2 -43 2q-6 -57 -6 -119v-35l2 -20v-16q0 -20 -2 -31v-4l-2 -4q0 -37 2 -54v-22
l2 -27v-143zM393 1640h8q29 -4 37 -8l21 -26q14 -16 14 -37q6 -23 -6 -53l-21 -33q-6 -13 -17 -17t-11 -6q-39 -2 -62 8q-10 0 -12 11l-8 4h2q-2 0 -2 2l-4 2q-25 6 -31 53v16q4 12 6 17l8 29q8 0 11 8q8 0 15 4t19 10l-4 12q10 4 37 4zM141 1640h6q29 -4 37 -8l21 -26
q14 -16 14 -37q6 -23 -6 -53l-20 -33q-5 -13 -17 -17t-12 -6q-39 -2 -62 8q-10 0 -12 11l-8 4h2q-2 0 -2 2l-4 2q-25 6 -31 53v16q4 12 6 17l8 29q8 0 11 8q8 0 15 4t19 10l-4 12q10 4 39 4z" />
    <glyph glyph-name="igrave" unicode="&#xec;" horiz-adv-x="327" 
d="M188 1161q0 -11 7 -28q-4 -27 -2 -39v-62q0 -43 4 -133v-31q0 -63 -2 -98v-33l2 -14v-23q-8 -16 -6 -56t6 -130l-9 -295q0 -61 6 -92q5 -30 5 -61v-37l-2 -2v-4l-74 -11q-6 8 0 49v246q0 35 4 84v78l-2 78v233q4 84 2 123v31l-2 31v100q0 2 2 6v16q-2 16 -2 60v65
q2 18 2 54t4 82q-8 65 14 88q18 8 37 -9.5t11 -132.5q0 -69 -5 -104v-29zM18 1610v14l-2 4q-12 12 -12 22t13 16q13 7 26.5 1t15.5 -6q29 -37 40 -48t16.5 -19.5t7.5 -10.5l37 -43q6 -12 20 -27l10 -18l-22 -37q-23 -2 -41 27h2l-14 14v6l-15 15l-10 18q-20 20 -23 27
t-22 26q-8 2 -18 19h-9z" />
    <glyph glyph-name="iacute" unicode="&#xed;" horiz-adv-x="346" 
d="M197 1161q0 -10 6 -28q-4 -27 -2 -39v-62q0 -43 4 -133v-31q0 -63 -2 -98v-33l2 -14v-23q-8 -16 -6 -56t6 -130l-8 -295q0 -61 5 -92q5 -30 5 -61v-37l-2 -2v-4l-76 -11q-6 8 0 49v246q0 35 4 84v78l-2 78v233q4 84 2 123v31l-2 31v106l2 4v12q-2 16 -2 60v65q2 18 2 54
t4 82q-8 65 15 88q18 8 37.5 -9t11.5 -133q0 -76 -4 -104v-29zM278 1681q22 0 23 -14q2 0 2 -1l4 -11q-8 -33 -43 -80l-16 -23q-5 0 -27 -41l-16 -24l2 2q-16 -29 -40 -30t-28 17t3 26q7 7 8 11l14 23l2 -6q-4 5 2 14l12 19q1 1 25 29t24 34l27 43q0 12 22 12z" />
    <glyph glyph-name="icircumflex" unicode="&#xee;" horiz-adv-x="378" 
d="M147 1212l7 136q-8 65 14 88q18 8 37.5 -9t11.5 -133q0 -76 -4 -104v-29q0 -10 6 -28q-4 -27 -2 -39v-62q0 -43 4 -133v-31q0 -63 -2 -98v-33l2 -14v-23q-8 -16 -6 -56t6 -130l-8 -295q0 -61 5 -92q5 -30 5 -61v-37l-2 -2v-4l-76 -11q-6 8 0 49v246q0 35 5 84v78l-3 78
v233q4 84 3 123v31l-3 31v106l3 4v12q-2 16 -3 60v65zM262 1456q-25 0 -36 10t-15 9l-18 57q-2 -31 -13 -70q-31 -6 -53 17q-6 6 1 16t7 59v15q0 8 4 24l4 23q2 14 2 43l-2 16v15l19 16q26 6 51 -14l20 -93q4 -27 27 -53l8 -22l6 -29q0 -18 -12 -31v-8z" />
    <glyph glyph-name="idieresis" unicode="&#xef;" horiz-adv-x="403" 
d="M219 1161q0 -10 6 -28q-4 -27 -2 -39v-62l2 -71v-267q-4 -33 -2 -53v-59l2 -68l-6 -295l8 -153v-37l-2 -2v-4l-73 -11q-6 8 0 49v246q0 35 4 84v78l-2 78v233q4 84 2 123v31l-2 31v100q0 2 2 6v16q-2 16 -2 60v65q2 18 2 54t4 82q-8 65 14 88q18 8 37.5 -9t11.5 -133
q0 -76 -4 -104v-29zM313 1634h9q29 -4 36 -8l21 -27l8 -8q6 -10 6 -28q6 -20 -6 -54l-20 -32q-5 -13 -17 -17t-12 -6q-39 -2 -62 8q-10 0 -12 11l-8 4h2q-4 4 -6 4q-25 6 -31 53v18l6 15l9 28q8 0 10 9q8 0 15 4t20 10l-5 12q10 4 37 4zM61 1634h7q29 -4 36 -8l21 -27l8 -8
q6 -10 6 -28q6 -20 -6 -54l-20 -32q-5 -13 -17 -17t-12 -6q-39 -2 -61 8q-10 0 -13 11l-8 4h2q-4 4 -6 4q-25 6 -31 53v18l6 15l9 28q8 0 10 9q8 0 15 4t20 10l-4 12q10 4 38 4z" />
    <glyph glyph-name="eth" unicode="&#xf0;" horiz-adv-x="722" 
d="M125 676q-31 0 -43 4q-37 -6 -41 20v-2q-4 8 4 21l-2 -2q4 18 47 14q12 -6 39 -2q-2 20 -2 68v2l-2 4v12l6 12v4q0 29 -4 82v107q0 41 -4 73t4 64q-2 10 -2 41v59q0 58 -10 78v19q2 4 2 14t-4 17t2 20l-2 -2q2 4 26 29q23 8 58 -7l30 -6q15 -4 23 -7t33.5 -7t62.5 -25
q76 -25 135 -96h-2q-1 -2 17 -20t22 -25q4 -8 10 -14q0 -4 9 -13q3 -8 21 -32t46 -115q28 -90 35 -145t11 -76q4 -20 5 -58v-10q0 -25 2 -37v-4q2 -1 0 -73t-24 -183q-9 -85 -76 -211q-12 -18 -45 -43l8 -8q-22 -29 -26 -31l-39 -39q-4 -6 -27 -22l-12 -4q-2 0 -4 -2
l-25 -23h-4l-21 -18l-2 -2l-45 -29q-18 -14 -33 -21t-42 -34q-6 0 -11 -4h-16q-6 -6 -12 -6h-29q-31 5 -45 28v64l-4 108q2 41 0 82v53l2 25q4 102 4 162v41l2 43q2 43 0 88h-6zM193 473q2 -2 2 -7v-300l4 -31v-31q0 -23 4 -38q6 -8 37 8l26 14l21 14l10 9q102 57 145 106
l34 41q34 42 34 55q37 71 43 100t8 33v3q2 3 2 17t12 44v14q0 16 3 27v-2v2q2 2 2 4l4 45q6 55 6 129t-20 190q-20 117 -58 205l-8 21v-2q-2 4 -11.5 17.5t-29.5 54.5t-78 81l2 -2l-41 21l-14 6q0 6 -10 6q-4 2 -33.5 18t-104.5 23l9 -129v-31q0 -20 2 -32t-1 -26t-4 -40
q10 -78 11 -170l-2 -39v-47l-2 -18v-45q-2 -29 0 -62l22 2h111q37 4 45 -22q4 -12 -8 -29q-8 -8 -25 -10l-6 -2q-37 6 -76 6h-61q2 -39 2 -103l-4 -53q-4 -29 -4 -43v-2z" />
    <glyph glyph-name="ntilde" unicode="&#xf1;" horiz-adv-x="825" 
d="M172 -4h-10q-10 0 -20 10t-11 25v12q2 2 2 6l-2 2v3l2 14v235l-2 41v373l2 37v34q4 57 0 113v303q-2 18 -2 64v100l-2 12v19q0 20 2 28q37 10 47 7q35 -35 35 -54q2 -2 8 -24v2q4 -14 6 -17l-6 -4q14 -10 21 -22l4 -15v3q10 -29 20 -54l8 -22q2 -6 9 -23.5t10 -28.5
l26 -73l9 -17v-8l4 -12q0 -2 6 -23t11 -34l7 -18t5.5 -12t6.5 -11t3 -13l4 -18l8 -27q0 -6 10 -20q39 -111 59 -183l42 -144q7 -26 36 -116q17 -68 39 -118l11 -49q14 -57 24 -82l8 -23q4 -18 6 -20q2 27 3 79l-3 60v143l-2 4v47l2 13v233l3 41v205l-3 61q0 44 4 144t3 157
q-10 47 -2 80q6 8 36.5 13.5t30.5 -35.5v-51q2 -18 2 -64v-94l-2 -29v-24q-2 -27 0 -56v-116q0 -76 2 -115v-109l-2 -57v-182l2 -4v-324l2 -149q0 -20 -24 -21q-4 0 -18 -7t-44 5q-16 14 -22 36t-14.5 47.5t-10.5 32.5q-2 8 -14 38t-17 59q-10 27 -14 49t-14 47l-25 76
q-4 8 -4 16l-27 76l-18 64q0 6 -4 12l-14 51l-19 56l-8 40q-4 11 -7 15t-4 9t-2 8l-10 32q-4 8 -7 22q-15 67 -44 138l-49 147q0 2 -4 13l-47 122l-6 17l2 -178l2 -48v-98l-2 -49q-2 -55 -1 -144t1 -247l-2 -367q6 -3 6 -24q6 -53 -14 -68q-6 -6 -23 -6zM380 1552
q30 0 46 -10q18 -6 30 -12t23 -6q9 0 31 12t49 14q4 -4 8 -4q13 -4 21 -22v-2q2 -27 -23 -35t-36 -17.5t-33 -10.5t-115 34h-29q-6 -6 -16 -6q-20 -10 -33 -23l-20 -8q-54 28 -4 68q4 2 6 4l24 14l6 -8q16 16 29 16l4 2h32z" />
    <glyph glyph-name="ograve" unicode="&#xf2;" horiz-adv-x="729" 
d="M90 842q-6 60 -6 159t2 134v28l2 13l6 20v18q0 9 8 17v8q2 4 2 10t5 11q0 4 5 18t9 18q4 18 6 20t6 10.5t7 16.5t14 21q0 8 12 14l2 -8q0 4 6 10h-2l25 17l8 6l6 2q20 20 37 25l22 4q76 18 134 6t79 -27l43 -41q0 -2 11 -12l6 -12l-2 2l12 -19q6 -6 6 -10q18 -24 27 -64
v-2q15 -30 34 -111t19 -151v-90l2 -14q-2 -10 -2 -33v-135l2 -53q0 -55 -2 -58l-4 -78l-6 -81q0 -66 -4 -86t-4 -25l-2 -4l-7 -62q0 -6 -10 -36v2q-6 -18 -6 -43q-4 -8 -17 -49t-29 -60q-15 -18 -29 -38t-57 -41q-42 -21 -105 -21q-64 0 -97 22v-2q-10 0 -18 4h-2
q-2 0 -39 23l-23 20q-18 18 -32 47l-29 64l-10 51q-1 9 -7 24t-10 83v18q-10 139 -10 297v33l6 149v21zM152 922q0 -16 4 -62q-2 -2 -2 -4v-37q2 -2 2 -10v-53q4 -45 0 -78t-3 -44t-1 -16v-8q0 -37 2 -59l2 -21v-43q0 -157 26 -263t58 -136l8 -4l14 -10l31 -11l6 -6h10
q15 -6 31 -6h31q53 -8 76 14q24 21 24 25t2 7t5 8.5t18 21.5q12 18 18 37q10 16 10 18t6 13l-2 -2q10 29 19 104l4 31q6 47 14 174l4 73q10 139 4 181v35q2 4 -3 170t-35 258q-3 4 -5 18t-16 39l-12 27q-2 6 -2 8l-39 53q-8 8 -42 15t-36 10l-31 4q-41 0 -78 -13
q-45 -23 -61 -45q-65 -97 -68 -260q0 -31 5 -92l2 -31v-30zM215 1614v14l-2 4q-12 12 -12 22t16 19q12 5 37 -10l94 -121q4 -8 19 -22l14 -23l-25 -35q-23 -2 -41 27h2l-14 14v8l-12 13l-10 18l-21 22l-20 29q-8 8 -9 13q-2 0 -8 8h-8z" />
    <glyph glyph-name="oacute" unicode="&#xf3;" horiz-adv-x="729" 
d="M90 842q-6 60 -6 159t2 134v28l2 13l6 20v18q0 9 8 17v8q2 4 2 10t5 11q0 4 5 18t9 18q4 18 6 20t6 10.5t7 16.5t14 21q0 8 12 14l2 -8q0 4 6 10h-2l25 17l8 6l6 2q20 20 37 25l22 4q76 18 134 6t79 -27l43 -41q0 -2 11 -12l6 -12l-2 2l12 -19q6 -6 6 -10q18 -24 27 -64
v-2q15 -30 34 -111t19 -151v-90l2 -14q-2 -10 -2 -33v-135l2 -53q0 -55 -2 -58l-4 -78l-6 -81q0 -66 -4 -86t-4 -25l-2 -4l-7 -62q0 -6 -10 -36v2q-6 -18 -6 -43q-4 -8 -17 -49t-29 -60q-15 -18 -29 -38t-57 -41q-42 -21 -105 -21q-64 0 -97 22v-2q-10 0 -18 4h-2
q-2 0 -39 23l-23 20q-18 18 -32 47l-29 64l-10 51q-1 9 -7 24t-10 83v18q-10 139 -10 297v33l6 149v21zM152 922q0 -16 4 -62q-2 -2 -2 -4v-37q2 -2 2 -10v-53q4 -45 0 -78t-3 -44t-1 -16v-8q0 -37 2 -59l2 -21v-43q0 -157 26 -263t58 -136l8 -4l14 -10l31 -11l6 -6h10
q15 -6 31 -6h31q53 -8 76 14q24 21 24 25t2 7t5 8.5t18 21.5q12 18 18 37q10 16 10 18t6 13l-2 -2q10 29 19 104l4 31q6 47 14 174l4 73q10 139 4 181v35q2 4 -3 170t-35 258q-3 4 -5 18t-16 39l-12 27q-2 6 -2 8l-39 53q-8 8 -42 15t-36 10l-31 4q-41 0 -78 -13
q-45 -23 -61 -45q-65 -97 -68 -260q0 -31 5 -92l2 -31v-30zM460 1679q22 0 21 -14l2 -2q0 -4 2 -4l2 -6q-8 -39 -41 -80l-18 -23q-2 -2 -27 -41l-16 -24l2 2q-16 -29 -40 -30t-28 17q-5 18 3 26q8 7 8 11l14 23l2 -6q-4 5 2 14l12 19q12 16 16 20l16 18q13 14 18 25l12 21
q8 10 10 14l-2 -2q2 4 8 10q0 12 22 12z" />
    <glyph glyph-name="ocircumflex" unicode="&#xf4;" horiz-adv-x="729" 
d="M90 842q-6 60 -6 159t2 134v28l2 13l6 20v18q0 9 8 17v8q2 4 2 10t5 11q0 4 5 18t9 18q4 18 6 20t6 10.5t7 16.5t14 21q0 8 12 14l2 -8q0 4 6 10h-2l25 17l8 6l6 2q20 20 37 25l22 4q76 18 134 6t79 -27l43 -41q0 -2 11 -12l6 -12l-2 2l12 -19q6 -6 6 -10q18 -24 27 -64
v-2q15 -30 34 -111t19 -151v-90l2 -14q-2 -10 -2 -33v-135l2 -53q0 -55 -2 -58l-4 -78l-6 -81q0 -66 -4 -86t-4 -25l-2 -4l-7 -62q0 -6 -10 -36v2q-6 -18 -6 -43q-4 -8 -17 -49t-29 -60q-15 -18 -29 -38t-57 -41q-42 -21 -105 -21q-64 0 -97 22v-2q-10 0 -18 4h-2
q-2 0 -39 23l-23 20q-18 18 -32 47l-29 64l-10 51q-1 9 -7 24t-10 83v18q-10 139 -10 297v33l6 149v21zM152 922q0 -16 4 -62q-2 -2 -2 -4v-37q2 -2 2 -10v-53q4 -45 0 -78t-3 -44t-1 -16v-8q0 -37 2 -59l2 -21v-43q0 -157 26 -263t58 -136l8 -4l14 -10l31 -11l6 -6h10
q15 -6 31 -6h31q53 -8 76 14q24 21 24 25t2 7t5 8.5t18 21.5q12 18 18 37q10 16 10 18t6 13l-2 -2q10 29 19 104l4 31q6 47 14 174l4 73q10 139 4 181v35q2 4 -3 170t-35 258q-3 4 -5 18t-16 39l-12 27q-2 6 -2 8l-39 53q-8 8 -42 15t-36 10l-31 4q-41 0 -78 -13
q-45 -23 -61 -45q-65 -97 -68 -260q0 -31 5 -92l2 -31v-30zM309 1559v14l4 31q6 18 6 41l3 10v8q-2 10 -3 41q9 0 9 1t16 9t41 -18l25 -94q6 -31 26 -52l6 -18l-2 2q6 -10 11 -33l-2 -8q0 -20 -11 -23l-8 -10q-22 0 -47 25l-16 45q-4 -36 -15 -60q-29 -12 -51 11q-4 6 2 22
v4q6 6 6 52z" />
    <glyph glyph-name="otilde" unicode="&#xf5;" horiz-adv-x="729" 
d="M90 842q-6 60 -6 159t2 134v28l2 13l6 20v18q0 9 8 17v8q2 4 2 10t5 11q0 4 5 18t9 18q4 18 6 20t6 10.5t7 16.5t14 21q0 8 12 14l2 -8q0 4 6 10h-2l25 17l8 6l6 2q20 20 37 25l22 4q76 18 134 6t79 -27l43 -41q0 -2 11 -12l6 -12l-2 2l12 -19q6 -6 6 -10q18 -24 27 -64
v-2q15 -30 34 -111t19 -151v-90l2 -14q-2 -10 -2 -33v-135l2 -53q0 -55 -2 -58l-4 -78l-6 -81q0 -66 -4 -86t-4 -25l-2 -4l-7 -62q0 -6 -10 -36v2q-6 -18 -6 -43q-4 -8 -17 -49t-29 -60q-15 -18 -29 -38t-57 -41q-42 -21 -105 -21q-64 0 -97 22v-2q-10 0 -18 4h-2
q-2 0 -39 23l-23 20q-18 18 -32 47l-29 64l-10 51q-1 9 -7 24t-10 83v18q-10 139 -10 297v33l6 149v21zM152 922q0 -16 4 -62q-2 -2 -2 -4v-37q2 -2 2 -10v-53q4 -45 0 -78t-3 -44t-1 -16v-8q0 -37 2 -59l2 -21v-43q0 -157 26 -263t58 -136l8 -4l14 -10l31 -11l6 -6h10
q15 -6 31 -6h31q53 -8 76 14q24 21 24 25t2 7t5 8.5t18 21.5q12 18 18 37q10 16 10 18t6 13l-2 -2q10 29 19 104l4 31q6 47 14 174l4 73q10 139 4 181v35q2 4 -3 170t-35 258q-3 4 -5 18t-16 39l-12 27q-2 6 -2 8l-39 53q-8 8 -42 15t-36 10l-31 4q-41 0 -78 -13
q-45 -23 -61 -45q-65 -97 -68 -260q0 -31 5 -92l2 -31v-30zM293 1491q-13 0 -16 -4t-10 -4t-23 -21l-23 -8q-52 27 -8 64q0 2 4 4t6 4l25 14l6 -8q16 16 31 16h2q3 2 33 2t45 -10q18 -6 30 -12q13 -6 23 -6t30 11t50 15q4 -4 8 -4q12 -4 20 -22v-2q2 -27 -30 -39l-15 -4
q-2 0 -7 -4.5t-13 -9.5t-26 -7t-116 35h-26z" />
    <glyph glyph-name="odieresis" unicode="&#xf6;" horiz-adv-x="729" 
d="M90 842q-6 60 -6 159t2 134v28l2 13l6 20v18q0 9 8 17v8q2 4 2 10t5 11q0 4 5 18t9 18q3 15 6 19l6 12t7 16t14 21q0 8 12 14l2 -8q0 4 6 10h-2l25 17l8 6l6 2q20 20 37 25l22 4q76 18 134 6t79 -27l43 -41q0 -2 11 -12l6 -12l-2 2l12 -19q6 -6 6 -10q18 -24 27 -64v-2
q15 -30 34 -111t19 -151v-90l2 -14q-2 -10 -2 -33v-135l2 -53q0 -55 -2 -58l-4 -78l-6 -81q0 -66 -4 -86t-4 -25l-2 -4l-7 -62q0 -6 -10 -36v2q-6 -18 -6 -43q-4 -8 -17 -49t-29 -60q-15 -18 -29 -38t-57 -41q-42 -21 -105 -21q-64 0 -97 22v-2q-10 0 -18 4h-2q-2 0 -39 23
l-23 20q-18 18 -32 47l-29 64l-10 51q-1 9 -7 24t-10 83v18q-10 139 -10 297v33l6 149v21zM152 922q0 -16 4 -62q-2 -2 -2 -4v-37q2 -2 2 -10v-53q4 -45 0 -78t-3 -44t-1 -16v-8q0 -37 2 -59l2 -21v-43q0 -157 26 -263t58 -136l8 -4l14 -10l31 -11l6 -6h10q15 -6 31 -6h31
q53 -8 76 14q24 21 24 25t2 7t5 8.5t18 21.5q12 18 18 37q10 16 10 18t6 13l-2 -2q10 29 19 104l4 31q6 47 14 174l4 73q10 139 4 181v35q2 4 -3 170t-35 258q-3 4 -5 18t-16 39l-12 27q-2 6 -2 8l-39 53q-4 4 -10 4q-20 10 -42 14t-26 7l-31 4q-41 0 -78 -13
q-45 -23 -61 -45q-65 -97 -68 -260q0 -31 5 -92l2 -31v-30zM203 1636h8q31 -4 35 -8l20 -26q14 -16 15 -37q6 -20 -7 -54l-20 -32q-6 -13 -16 -17t-11 -6q-41 -2 -63 8q-10 0 -12 11l-9 4h2q-2 0 -2 2l-4 2q-25 6 -30 53v16q4 12 6 17l8 28q8 0 10 9q8 0 15 4t20 10l-4 12
q10 4 39 4zM457 1636h8q29 -4 35 -8l20 -26q14 -16 15 -37q6 -20 -7 -54l-20 -32q-6 -14 -27 -21v-2q-41 -2 -63 8q-10 0 -12 11l-9 4h2q-2 0 -2 2l-4 2q-25 6 -31 53v16q4 12 7 17l8 28q8 0 10 9q8 0 15 4t20 10l-4 12q10 4 39 4z" />
    <glyph glyph-name="divide" unicode="&#xf7;" horiz-adv-x="1073" 
d="M944 641h14q41 0 50 -25q-4 -36 -12 -36h-76q-28 2 -82 2t-170 7t-236 4q-119 -3 -203 -3h-61l-29 2h-16q-39 0 -49.5 11t-10.5 30q10 20 46 16h86q88 0 247 4l2 -2h68q74 0 213 -4h31l35 -2q98 -4 153 -4zM498 813l-2 23l-2 2q-6 31 4 43l-2 -2q12 20 36.5 7.5
t24.5 -28.5l2 -12v-12q4 -51 -14 -78q-15 0 -35 10zM532 485q26 0 31 -24q10 -68 -14 -92q-14 -4 -35 6q-21 27 -14 82v10q6 18 32 18z" />
    <glyph glyph-name="oslash" unicode="&#xf8;" horiz-adv-x="743" 
d="M643 1237l-31 -66q-20 -41 -30 -73q-20 -37 -35 -78q-12 -20 -31 -64l-8 -22l-2 -16v-17q-18 -332 -19 -553v-8q4 -4 5 -16q-9 -23 0 -54v-12q0 -10 -5 -27v-47q0 -33 -4 -41v-4q-2 -3 -11 -35q-10 -32 -22 -44t-15 -24q-3 -11 -17 -18l-19 -10q-59 -16 -118 -10l-11 8
h-2q-10 0 -14 2l-27 27q-22 27 -22 41q-31 31 -31 63v11q-2 8 -2 34l-4 -8q-4 -16 -14 -26l-29 -31q-12 -4 -27.5 3t-14.5 20q2 25 36 85q0 6 8 21t12 26l27 58q2 35 2 117v57l2 65q2 23 2 64v29l2 32v33l-2 31v92q0 19 4 29v8q2 17 2 41t4 65v15q4 16 4 24v29l2 10v8
q2 2 2 13q-6 18 0 32l5 76q4 45 4 70q0 85 67 141h4q2 2 4 2l19 10q4 0 7 2t41 6q38 5 56 -1t49 -21l-2 2q32 -15 39 -37q2 -4 7.5 -13t8.5 -16.5t5 -11.5l8 -178q0 -12 -4 -33.5t-4 -27.5q2 2 2 4l14 30l21 37v-2v2q2 2 2 4l18 52l6 20q13 17 15 35t16 20q16 6 37.5 -4
t21.5 -26t-14 -31zM344 737l4 11q4 10 5 10l12 28q0 6 6 13h-2q8 16 12 30q15 18 23 39l7 18q7 17 11 23t4 13l10 28q-4 6 6 23q4 76 4 207v45q-4 4 -4 12v57q-4 12 -4 31v2l-2 4l-4 6v-2l-12 25q-37 26 -79 14t-56 -37q-25 -35 -25 -109t-2 -91l4 -27q-6 -29 -10 -86v-8
l-4 -60q-4 -53 -4 -82l-2 -38v-21l-2 -20v-172l2 -5q-4 -79 -4 -126q2 2 2 4l10 12v2q0 12 22 57q0 8 2 11l25 57q2 4 5 13t9 24t13 35q6 6 6 9t12 15v6zM336 55h16v2h5q3 0 5 2q20 8 27 21l10 12q0 20 11 31v4l8 25q4 16 4 51v22q2 4 2 11l2 14l-2 -4q-2 47 -2 155
q4 94 4 140l4 133q0 47 2 92q-4 -4 -4 -6l-88 -195q-4 -10 -22.5 -50t-24.5 -60q-35 -76 -55 -133q8 -167 12 -177q0 -27 14 -41l2 -12q2 -2 6 -7t7 -7l8 -12q6 -4 22 -13h23q2 2 4 2z" />
    <glyph glyph-name="ugrave" unicode="&#xf9;" horiz-adv-x="829" 
d="M705 1235l2 -29v-18l-2 -2v-2l2 -10v-7q4 -16 4 -30v-52q0 -12 6 -36v-9q0 -92 2 -127v-59l-6 -145v-9q2 -2 2 -10l-4 -26q-4 -25 -4 -91q-4 -49 -11 -104l-4 -70q-4 -128 -43 -206l-28 -74l-23 -29l-8 -12l-31 -37q-32 -30 -59 -41h2q-36 -16 -92 -20t-99 18t-59 45
l-21 25q-2 2 -3 4l-21 24l-17 25l3 -2q-54 77 -54 157q-2 8 -2 35v15q-5 46 -18 534v27q0 68 -4 102q0 45 -4 123l-2 33q-7 96 0 117v12q2 8 2 25t-5 63v12q2 2 3 4v11l-3 2v6l-2 4q-8 31 21 31q37 0 45 -31q6 -33 6 -69t-4 -93l2 -22v-76l12 -373v-25q0 -35 4 -100l3 -49
q0 -96 6 -174v-35q-4 -33 8 -112t43 -132h-2q27 -37 43 -53q8 -12 55 -39q31 -8 82 -14q12 6 25 6v2q10 2 26 10h-2l21 10l30 31l25 33q8 8 8 9v7l14 33q0 6 13 35t33 117v12q0 31 6 55v11l6 49l2 12q18 225 18 397v39q0 31 1 65t-3 81l-2 51q-4 61 -4 84l-2 4l2 12
q-4 57 -2 84v80q0 2 -2 12q-12 53 23 54q25 0 31.5 -6.5t9.5 -28.5q1 -49 -1 -74t2 -45t1 -39zM258 1612v14l-2 4q-25 25 2 39q14 7 39 -8q23 -23 47 -59q7 -6 31 -38t41 -48l14 -23l-24 -35q-23 -2 -41 27h2l-15 14v6q-12 12 -14 15l-10 18q-2 4 -10 11t-10 13t-17 25
q-8 8 -10 8l-13 15h-4q-4 2 -6 2z" />
    <glyph glyph-name="uacute" unicode="&#xfa;" horiz-adv-x="829" 
d="M705 1235l2 -29v-18l-2 -2v-2l2 -10v-7q4 -16 4 -30v-52q0 -12 6 -36v-9q0 -92 2 -127v-59l-6 -145v-9q2 -2 2 -10l-4 -26q-4 -25 -4 -91q-4 -49 -11 -104l-4 -70q-4 -128 -43 -206l-28 -74l-23 -29l-8 -12l-31 -37q-32 -30 -59 -41h2q-36 -16 -92 -20t-99 18t-59 45
l-21 25q-2 2 -3 4l-21 24l-17 25l3 -2q-54 77 -54 157q-2 8 -2 35v15q-5 46 -18 534v27q0 68 -4 102q0 45 -4 123l-2 33q-7 96 0 117v12q2 8 2 25t-5 63v12q2 2 3 4v11l-3 2v6l-2 4q-8 31 21 31q37 0 45 -31q6 -33 6 -69t-4 -93l2 -22v-76l12 -373v-25q0 -35 4 -100l3 -49
q0 -96 6 -174v-35q-4 -33 8 -112t43 -132h-2q27 -37 43 -53q8 -12 55 -39q31 -8 82 -14q12 6 25 6v2q10 2 26 10h-2l21 10l30 31l25 33q4 4 8 12v4l14 33q0 6 15 41t31 111v12q0 31 6 55v11l6 49l2 12q18 225 18 397v39q0 31 1 65t-3 81l-2 51q-4 61 -4 84l-2 4l2 12
q-4 57 -2 84v80q0 2 -2 12q-12 53 23 54q25 0 31.5 -6.5t9.5 -28.5q1 -49 -1 -74t2 -45t1 -39zM499 1679q22 0 23 -14l2 -2q0 -4 2 -4l2 -6q-10 -43 -32 -72q-18 -18 -20 -23t-6 -9q-5 -4 -28 -40l-16 -24l2 2q-16 -29 -40 -30t-28 15t4 27q8 10 7 12q16 34 49 70l31 43
l12 18q8 12 14 25q0 12 22 12z" />
    <glyph glyph-name="ucircumflex" unicode="&#xfb;" horiz-adv-x="829" 
d="M705 1235l2 -29v-18l-2 -2v-2l2 -10v-7q4 -16 4 -30v-52q0 -12 6 -36v-9q0 -92 2 -127v-59l-6 -145v-9q2 -2 2 -10l-4 -26q-4 -25 -4 -91q-4 -49 -11 -104l-4 -70q-4 -128 -43 -206l-28 -74l-23 -29l-8 -12l-31 -37q-32 -30 -59 -41h2q-36 -16 -92 -20t-99 18t-59 45
l-21 25q-2 2 -3 4l-21 24l-17 25l3 -2q-54 77 -54 157q-2 8 -2 35v15q-5 46 -18 534v27q0 68 -4 102q0 45 -4 123l-2 33q-7 96 0 117v12q2 8 2 25t-5 63v12q2 2 3 4v11l-3 2v6l-2 4q-8 31 21 31q37 0 45 -31q6 -33 6 -69t-4 -93l2 -22v-76l12 -373v-25q0 -35 4 -100l3 -49
q0 -96 6 -174v-35q-4 -33 8 -112t43 -132h-2q27 -37 43 -53q8 -12 55 -39q31 -8 82 -14q12 6 25 6v2q10 2 26 10h-2l21 10l30 31l25 33q4 4 8 12v4l14 33q0 6 13 35t33 117v12q0 31 6 55v11l6 49l2 12q18 225 18 397v39q0 31 1 65t-3 81l-2 51q-4 61 -4 84l-2 4l2 12
q-4 57 -2 84v80q0 2 -2 12q-12 53 23 54q25 0 31.5 -6.5t9.5 -28.5q1 -49 -1 -74t2 -45t1 -39zM334 1571q0 8 4 24l4 25q2 8 2 20l2 13v6q-6 27 -2 41l16 8q38 7 54 -20l20 -89q6 -33 25 -51l6 -20l-2 2q6 -10 8 -32t-18 -42q-22 0 -45 23l-11 26q0 11 -10 21
q-4 -41 -12 -62q-39 -8 -49 15q-4 10 1 20t5 49l2 11v12z" />
    <glyph glyph-name="udieresis" unicode="&#xfc;" horiz-adv-x="829" 
d="M705 1235l2 -29v-18l-2 -2v-2l2 -10v-7q4 -16 4 -30v-52q0 -12 6 -36v-9q0 -92 2 -127v-59l-6 -145v-9q2 -2 2 -10l-4 -26q-4 -25 -4 -91q-4 -49 -11 -104l-4 -70q-4 -128 -43 -206l-28 -74l-23 -29l-8 -12l-31 -37q-32 -30 -59 -41h2q-36 -16 -92 -20t-99 18t-59 45
l-21 25q-2 2 -3 4l-21 24l-17 25l3 -2q-54 77 -54 157q-2 8 -2 35v15q-5 46 -18 534v27q0 68 -4 102q0 45 -4 123l-2 33q-7 96 0 117v12q2 8 2 25t-5 63v12q2 2 3 4v11l-3 2v6l-2 4q-8 31 21 31q37 0 45 -31q6 -33 6 -69t-4 -93l2 -22v-76l12 -373v-25q0 -35 4 -100l3 -49
q0 -96 6 -174v-35q-4 -33 8 -112t43 -132h-2q27 -37 43 -53q8 -12 55 -39q31 -8 82 -14q12 6 25 6v2q10 2 26 10h-2l21 10l30 31l25 33q4 4 8 12v4l14 33q0 6 13 35t33 117v12q0 31 6 55v11l6 49l2 12q18 225 18 397v39q0 31 1 65t-3 81l-2 51q-4 61 -4 84l-2 4l2 12
q-4 57 -2 84v80q0 2 -2 12q-12 53 23 54q25 0 31.5 -6.5t9.5 -28.5q1 -49 -1 -74t2 -45t1 -39zM537 1634h8q29 -4 37 -8l18 -27l8 -8q6 -10 6 -28q6 -20 -6 -54l-10 -16q-15 -30 -26 -34q-11 -3 -11 -5q-39 -2 -61 8q-10 0 -13 11l-8 4h2q-2 0 -2 2l-4 2q-25 6 -31 53v18
q4 10 7 15l8 28q8 0 10 9q8 0 15 4t20 10l-4 12q10 4 37 4zM285 1634h8q29 -4 35 -8l18 -27l8 -8q6 -10 6 -28q6 -20 -6 -54l-10 -16q-15 -30 -26 -34q-11 -3 -11 -5q-39 -2 -61 8q-10 0 -13 11l-8 4h2q-2 0 -2 2l-4 2q-25 6 -31 53v18q4 10 7 15l8 28q8 0 10 9q8 0 15 4
t20 10l-4 12q10 4 39 4z" />
    <glyph glyph-name="yacute" unicode="&#xfd;" horiz-adv-x="579" 
d="M266 100q0 119 2 183l2 22v23q2 14 2 45v86q0 76 2 206t-10 173q-2 27 -20 57q-6 16 -17 33l-20 45q0 10 -6 16l-6 17l-17 32q-25 62 -108 199h2q-4 6 -12.5 21.5t-12.5 21.5l-10 29q-6 11 -13 31t-16 38v-2q-16 33 -2 47q27 27 55 -12l13 -29l4 -8q20 -53 55 -114l6 -13
l4 -14v2q2 -4 7.5 -13.5t7.5 -13.5l12 -24l12 -27q4 -8 15 -24l20 -37q6 -10 59 -117q8 -29 19 -51l2 2q0 5 6 12q11 36 15 42l34 60q8 20 35 68v-2q2 8 7 15t9 22l11 27q12 35 16 43l12 30l13 25q4 18 10 26l12 -2q0 34 45 115q0 14 17 21q23 0 35.5 -15t-1.5 -41l2 2
q-14 -28 -14 -30l-14 -33q-5 -14 -5 -20q-2 -5 -8 -13t-8 -16q-12 -12 -8 -11l2 2l-12 -24q0 -12 -2 -16v2q0 2 -4 -11t-14 -27q-9 -15 -9 -27t-15 -31q-15 -18 -22 -34q-6 -16 -9 -23t-6 -13t-5 -11l-23 -51l-32 -63q-3 -16 -16 -38t-13 -50l-2 -17v-14q-4 -29 1 -59t5 -86
l-4 -234l-4 -133v-10l-2 -11q0 -39 -2 -53v-24l-2 -27v-152q-2 -18 -23.5 -22t-36.5 12q-6 10 -2 41v49zM287 1556l12 21l15 20q2 3 18 19t16 24q14 18 29 43q1 13 21 13t22 -15l2 -2q0 -4 2 -4l2 -6q-12 -45 -41 -80l-18 -24q-9 -9 -27 -39l-16 -25l2 2q-16 -29 -39 -29
t-27 15q-4 16 8 35v4l15 22l2 -6q-3 5 2 12z" />
    <glyph glyph-name="thorn" unicode="&#xfe;" horiz-adv-x="849" 
d="M721 536l-10 -18v-2l-15 -14l-6 -8l-6 -11h2q-8 -7 -22 -29t-37 -34q-35 -33 -97 -43l-18 -6q-1 0 -23 -4h3q-6 -2 -27 -2h-68l-14 2h-74l-16 -2h-88q-6 -2 -8 -3h-13l-6 -6h-4q-2 -35 -2 -100v-360q0 -2 1 -25t-1 -37l-2 -37q-4 -72 -2 -100v-12l6 -37v-6
q-2 -25 -22 -45q-25 -10 -52 8q-4 8 -4 35v24q0 45 4 62v301q0 139 2 174v125q0 78 2 118l-4 252v609q0 39 2 55q33 16 60 4q6 -10 6 -31v-18q2 -12 2 -51v-80l-2 -21q0 -84 2 -147q55 -2 174 -2l64 -2h57q67 0 149 -41q6 -6 29 -17l37 -18l4 -8q2 -2 8 -8.5t10 -8.5l15 -12
l41 -43q12 -20 20 -82l6 -31v-38q-4 -53 -12 -72l-12 -29q0 -4 -4 -6v-6l-17 -31l-16 -24q-2 0 -2 -1zM457 424q67 0 114 33q25 10 66 71l-2 -2l4 9l23 30h-3q27 39 54 144q-6 17 0 33t3 21t-3 23v2q-1 1 -7 23q-5 22 -36 53l-8 13q-15 13 -48 22l-26 14q-18 7 -31 17l-25 6
q-24 14 -49 14l-14 2q-20 0 -41 4q-27 -2 -96 -2l-35 -2h-49q-76 0 -78 -6q-4 -37 -4 -65l6 -211v-23l-2 -22v-64q4 -102 4 -135q33 -4 98 -4h31l31 2h123z" />
    <glyph glyph-name="ydieresis" unicode="&#xff;" horiz-adv-x="620" 
d="M285 100q0 55 4 183l2 22v23q2 14 2 45v86q0 76 2 193q3 153 -10 177q-13 58 -37 99l-21 45q0 10 -6 16l-6 17l-16 32q-14 34 -43 86l-66 113h2q-4 6 -12 21.5t-12 21.5l-43 102q-10 27 0 41q16 10 32.5 5t24.5 -17l12 -29l4 -8q20 -53 56 -114l6 -13l4 -12l8 -16
q6 -6 6 -11l25 -51q4 -8 14 -24l21 -37q41 -70 58 -117t19 -51l2 2q0 6 7 12q13 40 16 46l33 56q8 20 35 68v-2q2 8 7 15t9 22l10 27q12 35 17 43l12 30l12 25q4 18 10 26l13 -2q0 34 45 115q0 14 16 21q23 0 35 -14.5t0 -41.5l2 2q-14 -28 -14 -30l-15 -33q-5 -14 -6 -21
l-14 -24q0 -2 -2 -4l-15 -27q0 -14 -4 -22v2q0 1 -4 -11t-13 -27t-9 -27t-15 -30q-15 -17 -21 -34l-10 -24t-6.5 -13t-5.5 -11l-22 -51l-33 -63q-4 -18 -12 -29l2 2q-15 -28 -21 -78v-14q-4 -29 1 -59t5 -86l-4 -234l-4 -133v-10l-2 -11q0 -39 -2 -53v-24l-2 -27v-152
q-2 -18 -23.5 -23t-32.5 9t-8 43q3 30 3 33l-2 4v14zM221 1634h8q29 -4 37 -8l27 -35q6 -10 6 -28q10 -35 -25 -86q-6 -13 -17 -17t-11 -6q-43 -2 -62 8q-10 0 -12 11l-8 4h2q-2 0 -2 2l-4 2q-25 6 -31 53v18l6 15l8 28q8 0 11 9q8 0 15 4t19 10l-4 12q8 4 37 4zM475 1634h8
q29 -4 37 -8l27 -35q6 -10 6 -28q10 -35 -25 -86q-6 -13 -17 -17t-11 -6q-41 -2 -64 8q-8 0 -10 11l-8 4h2q-2 0 -2 2l-4 2q-25 6 -31 53v18l6 15l8 28q8 0 11 9q8 0 12 4l20 10l-4 12q10 4 39 4z" />
    <glyph glyph-name="dotlessi" unicode="&#x131;" horiz-adv-x="337" 
d="M197 915q0 -10 6 -28q-4 -27 -2 -39v-62l2 -24v-25l2 -14v-23q-8 -16 -6 -56t6 -130l-8 -295q0 -61 5 -92q5 -30 5 -61v-39q0 -2 -2 -11q-8 -14 -35 -15t-41 11q-6 8 0 49v246q0 35 4 84v78l-2 78v272l2 12v11q-2 16 -2 59v66q2 18 2 54t4 81q-8 65 15 88
q18 8 37.5 -10.5t11.5 -130.5q0 -77 -4 -105v-29z" />
    <glyph glyph-name="Lslash" unicode="&#x141;" horiz-adv-x="512" 
d="M127 1088q0 124 2 172v67q0 72 2 103q11 6 21 6t14 2l16 -4q2 -8 2 -60v-63q6 -70 6 -157t-2 -132t-2 -197l4 9l35 45h-2q31 45 72 20q10 -20 -14 -49q-2 -2 -2 -6l-21 -29v2l-18 -24l-11 -13q0 -2 -4 -10q-29 -28 -33 -38t-6 -11q0 -76 2 -88l2 -45v-51l-2 -13v-47
q2 -4 2 -6v-10q0 -90 -6 -109v-28l2 -15v-12l-2 -8v-8q2 -2 2 -11v-88q0 -63 2 -94v-8q0 -20 2 -25q14 -4 74 -4h55q27 -4 61 -1t71 3h18q47 0 47 -24q0 -29 -45 -29h-289q-35 0 -44 11t-5 23t4 25v154l-2 225v185q-6 -6 -10 -15l-14 -20q-1 -2 -9 -12t-18 -17q-27 0 -45 19
q-2 14 5 20t14.5 15.5t12.5 20.5t8 15t7 10.5t6 8.5l35 67q0 8 2 13v159q-2 57 -2 181z" />
    <glyph glyph-name="lslash" unicode="&#x142;" horiz-adv-x="352" 
d="M205 201l2 -37q0 -12 -4 -37v-64q10 -2 45 -2t43 -2h24q41 5 41 -21t-10 -32t-33 -4h-43q-80 -4 -94 -2h-33v123q6 12 2 100v29l-2 31v149l2 53v131l-26 -34q-2 -4 -7 -10t-9.5 -12.5t-6.5 -8.5q-16 -31 -30 -31q-29 0 -29 33q0 13 6 21t6 12l45 61q6 6 51 76v149
q-4 109 -2 166v262l2 11q-2 4 -2 18v64q-2 4 -2 14t17 18q4 5 12 5t20 -5q14 -20 15 -57v-12q2 -14 -2 -39v-27q2 -20 2 -90t-3 -116t1 -134l2 -32q4 -66 4 -103l22 37q8 14 29 19.5t31 -5.5q20 -27 0 -39q-2 -2 -13 -21t-19 -27q-9 -9 -10 -11t-17.5 -28.5t-22.5 -39.5
q-2 -37 -2 -102v-266l-2 -4v-56l2 -24v-43z" />
    <glyph glyph-name="OE" unicode="&#x152;" horiz-adv-x="788" 
d="M86 1051q12 20 12 100q12 181 62 240q-2 0 4 8t31 26l-2 -2q31 23 57 23h51q20 0 43 -19l23 -20q2 -4 16 -18l8 -19q2 -2 6 -10l11 -14h-2q0 -3 6 -9q0 31 -2 47v2q-4 4 -7 29q18 18 50 19h196q33 0 44 -14q27 -33 -7 -46l2 2q-10 -8 -41 -8h-18l-13 2h-55q-31 0 -43 2
h-4q-2 2 -4 2h-12q-10 2 -21 0v-49l-2 -2q0 -6 4 -20t-2 -35v-11q-4 -32 -4 -47v-65q4 -33 4 -58l6 -100q4 -46 4 -270v-58l31 5h14l15 -2q90 0 96 -29q2 -23 -16 -35q-27 -8 -56 0l-84 -4v-6l-2 -2l-2 -17l-4 -102v-31l-2 -30l2 -17v-203l2 -6v-33l2 -16v-41q0 -14 2 -20
q29 -8 74 -8t70 4h12q28 0 35.5 -11.5t5.5 -27.5q-2 -33 -70 -27q-25 2 -45 0h-75q-48 0 -53 4t-7 6l-16 17q-2 10 1 23t3 18v22q-2 -4 -6 -14t-47 -56q-18 -16 -68 -28q-39 -2 -78 10q-6 6 -16 6q-4 4 -14 10t-11 15q-7 0 -17 7q-27 18 -34 62l-6 19l-6 63q-6 18 -6 35
q-4 16 -9 88v10q-4 16 -4 35v33q-6 24 -6 131q-8 72 -8 399l-2 3l2 22l2 25v86zM393 969q-8 40 -8 88l-4 33q-6 30 -6 66t-4 69v10q0 2 -2 6l-9 31v4q-2 4 -6 15t-8 20l-12 32v9q-34 45 -60 37q-24 -3 -57 -19q-10 -5 -10 -27l-14 -32q0 -13 -13 -39l-8 -41l-6 -43v-12
l-2 -13q0 -66 -10 -86v-6l-2 -10v-19q-11 -187 -5 -291q7 -104 7 -139v-77q2 -33 7.5 -138.5t14.5 -163.5q0 -54 12 -77v-9q0 -15 7 -26v-2q4 -5 4 -15t24 -34q6 0 32 -14q27 -14 55 1q28 14 44 43l2 2q2 4 6 16t9 19q4 16 4 23l2 4v10l6 12q0 21 6 33v-2v2q8 8 8 72v4
q8 23 4 49v301l-4 184v76q0 18 -4 51v13z" />
    <glyph glyph-name="oe" unicode="&#x153;" horiz-adv-x="661" 
d="M98 1266l6 47q0 35 21 80q0 10 4 18l14 16q9 9 45 19h29l14 2q29 0 68 -39q2 -14 10 -51v-33l2 31q10 35 21 45l22 16q37 18 86 6l25 -16q35 -38 35 -115l2 -12v-12q2 -41 2 -146l2 -28v-105q-2 -18 -2 -55v-51q0 -31 3 -63t-3 -54v-55q0 -4 4 -17v-4q2 -4 2 -6v-16
q-4 -4 -4 -9v-8q6 -45 0 -55q-14 -14 -28 -14t-19 -2l-47 -5q-31 4 -45 0q-2 -4 -2 -16v-92l-3 -45v-137l11 -80v-17l4 -6q0 -47 29 -96q2 -2 8 -6t16 -14q35 -16 66 -7q8 6 8 2l16 25l-2 -2q2 14 29 18q12 -4 26 -18q2 -27 -20 -45v-6q-4 -14 -18 -21q-10 0 -13 -2
q0 -6 -14 -6l-14 -2h-13q-35 0 -55 -1t-53 24q-31 31 -41 49l2 -2q-23 34 -23 57q0 22 -6 37l-2 -27v-4q-2 -4 -2 -8v-8q-2 -30 -16 -62l-4 -16q-8 -8 -15 -23h2q-6 -14 -23 -16t-27 -7t-34 -3l-26 10q-58 46 -58 104v9l-2 4v4q-5 5 -10 76v8l2 22v64q-2 2 -2 4v133l-2 47
v25l-2 24v45q-4 47 0 93v94q2 22 2 133q0 178 4 186l2 21v22q2 23 2 68v35l2 37zM283 336q0 46 4 84l2 41v67l-2 31v96l-2 29v57q0 33 2 45v62l4 121l-21 297q0 14 -12 51l-6 35l-4 8q-8 27 -17 31l-4 -2q-23 0 -39 -13q-6 -10 -16 -33q-18 -72 -18 -184l-4 -135v-18l2 -2
v-68q-2 -4 -2 -6v-119l-3 -2v-23l3 -4l-3 -4v-65q0 -100 3 -152v-88q-2 -14 -3 -41v-12l-2 -14q1 -12 7 -36t3 -37t-3 -20v-12q-6 -53 4 -127q4 -84 23 -110t32 -17q21 9 26 37t13 49l6 38q6 38 14 58l11 45q2 16 2 62zM354 1120v-53q4 -82 4 -246v-61l4 -117q47 -12 78 0
q2 29 -2 72t0 76v8q-2 4 -2 16t8 21v4l-2 14v61l2 29q2 18 2 60v61q-4 16 -4 27v16q2 4 2 8v14l-2 3v10q0 8 4 28v35q-4 98 -16 148l2 -2q-12 20 -31 22q-20 -12 -41 -47v-2q-8 -8 -8 -61q-4 -35 -1 -75t3 -69z" />
    <glyph glyph-name="Scaron" unicode="&#x160;" 
d="M123 260q0 39 14 45v-2q10 6 31 0q8 8 25 -6q3 -25 -3 -68t3 -61v-10l2 -13q0 -5 5 -35q10 -57 49.5 -64.5t56 4.5t16.5 5q14 14 14 19l24 35q10 10 15 45v34l2 13l4 55q2 82 -16 164q-16 94 -84 237l-15 29q-20 47 -33 68q-8 20 -10 24l-12 25l-10 18q-11 18 -19 38
t-20 32q-10 17 -10 19q0 3 -8 12t-9 14l2 -2l-25 48q-18 36 -33 72t-18 42l-4 20l-6 17q0 8 -4 16l-4 25v16q0 10 -4 22q-2 29 6 58t8 39q4 10 6 14l13 6l2 2l-8 8q16 18 16 23l10 12l4 12q12 20 36 34t28 14q37 18 94 10q26 0 38 -12t13 -11q37 -27 58 -79q22 -52 24 -86
t0 -70t-6 -43q-4 -8 -4 -13q-7 -12 -23 -17t-22 -1q-16 16 -17 27v8q0 12 4 16v1l3 18v10q4 25 4 33t-4 24l-7 33q-18 72 -57 98l2 -2q-39 18 -67 0l-9 -6l-32 -20q-9 -9 -9 -15l-20 -24q-8 -41 -8 -71t8 -91v-23l4 -12v2q18 -59 33 -90l18 -37l6 -16q4 -4 6 -10t11 -15
q0 -4 10 -14t-4 -14v-4h12q0 -8 10 -17l11 -24l4 -3q37 -47 63 -124q29 -70 39 -89t14 -29q4 -9 17 -34q18 -47 43 -135l8 -31l6 -33l4 -26q8 -39 8 -95q0 -148 -12 -163q-8 -18 -11 -30t-16 -26q-14 -14 -18 -30l-18 -9l-19 -20l-8 -4h2q-53 -14 -104 -7t-74 36l-39 104
l-6 57v74zM254 1511l-12 -20q-9 -10 -17 -16l-24 2q-12 0 -23 6l-8 18q-10 10 -10 17q-18 36 -51 69q-4 11 -22 23t-21 32q2 18 26 22.5t34 -9.5l16 -21l15 -18q15 -17 23 -22t8 -13q13 -13 19 -27l31 29q8 20 18 21l6 6l6 8l13 12l10 15l4 2l16 16q2 0 8 2q37 0 41 -25
q4 -16 -14 -41l-6 -2q-6 -10 -16 -12q-14 -14 -16 -17t-7 -9l-25 -23z" />
    <glyph glyph-name="scaron" unicode="&#x161;" horiz-adv-x="407" 
d="M272 1284q0 -14 -7 -26.5t-21 -8.5q-20 0 -21 37v43q0 39 -4 55q-14 21 -43 21q-28 -8 -49 -33q-18 -53 -18 -108t8 -88l10 -13q0 -14 4 -20l21 -53q22 -44 22 -66l4 -10v2q6 -14 12 -32l6 -16q7 -16 12 -25t5 -23q10 -12 16 -29l9 -33q0 -6 8 -14l2 -8q28 -78 48 -174
q19 -97 21 -99l7 -33q8 -23 10 -35t4 -22t2 -14l12 -70q8 -45 17 -145v-68l-2 -12q0 -33 -5 -45q-4 -51 -22 -80v2q-14 -31 -26 -39l-19 -14l-6 -4l-13 -7q-54 -11 -84 5t-42 89t20 132q6 12 28.5 13t24.5 -17q3 -11 -3 -51t-7 -48q0 -8 16 -63v2q2 -8 11 -8q27 0 49 41l2 2
l4 8l-2 -2q16 33 16 64t-4 67v76q0 41 -6 47v2q-4 8 -4 22q-4 12 -4 31v2q-2 1 -4 15t-19 88l-16 69q-8 27 -14 63t-28 120.5t-56 164.5q-33 80 -37 92.5t-8 19.5t-9 21q-4 15 -8 23v-2q-4 6 -12 45l-10 35l-9 24q-12 39 -12 101t17 108v-2v2q2 2 2 4q5 26 55 62h6q4 4 8 6
q106 22 131 -51q10 -23 4 -86v-29zM143 1617q0 -1 8 -6t9 -14q10 -10 18 -26q12 9 31 28q8 20 18 21l2 2q0 4 2 4l19 23l8 12l6 2q22 16 27 18q33 0 40 -18t-14 -47l-6 -2q-6 -10 -12 -12t-12 -9.5t-11 -11.5l-30 -29q-4 -4 -10.5 -12t-10.5 -12l-12 -21q-8 -10 -16 -16
l-25 2q-12 0 -22 6l-9 19q-10 10 -16 26t-33 41l-12 19q-4 12 -20 23t-23 32q2 18 25.5 22.5t31.5 -6.5q33 -41 41 -49t8 -9z" />
    <glyph glyph-name="Ydieresis" unicode="&#x178;" horiz-adv-x="489" 
d="M369 1040q-4 0 -6 -18t-15 -39q-6 -15 -10 -39t-11 -34l-9.5 -13.5t-4.5 -5.5l-6 -25q-4 -4 -4 -14q-10 -12 -18 -35q0 -113 4 -194l2 -66q4 -78 4 -125v-53l-2 -57q-2 -39 -2 -113v-47l2 -47v-49l-2 -52q-27 -27 -47 -14q-22 22 -15 37q2 106 2 350v148q2 23 -2 63
q0 47 -2 70v28l-2 27v78q-8 0 -14 41q-4 2 -4 8q-6 6 -6 16l-8 15v8l-3 6l-6 6l-10 21q-8 11 -10 26l-27 70q-8 16 -8 24q-4 6 -7 18l-11 48q-4 18 -11 33l-18 61q0 17 -6 23q-27 82 -39 108q-2 14 -12 38t-9 52q33 25 56 -4l24 -67q2 -2 2 -6t9 -24t16 -52l12 -51l10 -29
q2 -4 4.5 -12.5t6.5 -18.5t14 -43l2 -2v-6l16 -55q6 -20 17 -37q8 -32 20 -56l17 -36q6 -12 6 -19l4 -8q2 4 2 8t6 15l-2 -2q4 16 6 16l6 12l-2 -2l25 68q6 47 14 67l10 45l5 15l2 4v6q0 7 8 27q0 16 6 28l8 21q0 4 5 24t11 35l-2 -2q0 4 3.5 11t5.5 12l26 75q0 13 8 21v4
q2 2 3 10l16 21q18 4 27 0l20 -21l-4 -35l-6 -16q0 -4 -4 -8v-6q-4 -12 -9 -19q-6 -39 -20 -80l-8 -32v-2q-6 -12 -6 -23l-2 -8l-7 -21q-14 -43 -22 -61l-8 -25q0 -39 -4 -39zM62 1608q1 0 26 12l-4 12q10 4 39 4h6q29 -4 35 -8l20 -20l11 -13q6 -8 6 -28q6 -23 -6 -54
l-21 -32q-6 -13 -18 -17t-11 -6q-39 -2 -61 8q-10 0 -12 11l-9 4h3q-6 4 -7 4q-25 6 -30 53v16q4 12 6 17l8 28q8 0 10 9h9zM297 1599q8 0 10 9h9q1 0 26 12l-4 12q10 4 37 4h8q29 -4 35 -8l20 -20l11 -13q6 -8 6 -28q6 -23 -6 -54l-21 -32q-6 -13 -18 -17t-11 -6
q-39 -2 -61 8q-10 0 -12 11l-9 4h2q-4 4 -6 4q-23 6 -28 53v16q12 36 12 45z" />
    <glyph glyph-name="Zcaron" unicode="&#x17d;" horiz-adv-x="415" 
d="M301 1430q17 0 29 3t26 1q14 -14 19 -27q-8 -74 -25 -143l-2 -2v-7q0 -27 -10 -47q-12 -76 -31 -145q0 -23 -4 -31l-10 -45l-2 -4v-4l-6 -29q-2 -6 -4 -28q-3 -22 -13 -39q-10 -16 -10 -35l-8 -39l-14 -59q0 -6 -5 -15l-12 -43l-12 -78q-2 -4 -2 -14t-6 -20h2
q-6 -10 -6 -19l-11 -29q0 -12 -6 -20l2 -4v-4q-4 -8 -4 -22.5t-14 -28.5v-29q-31 -93 -31 -105l-4 -30v-15q-9 -18 -14 -45l2 -4l-4 -14v-45q-11 -60 -13 -74t-8 -26v-11l232 4q30 -46 21 -50.5t-19 -4.5l-7 -2h-61q-36 -6 -61 -6h-15l-22 -2q-98 -6 -119 4q-20 6 -25 31
q3 23 9 34l6 25l4 31l6 26q7 63 27 149t24 107l29 125l26 138q0 16 2 20v2q7 7 7 23l8 30q4 25 10 33l-2 -2l12 49q2 9 6 23t5 18l6 33l10 29q-2 0 4 22v2l2 4l6 35l3 9l8 34q8 32 14 47q0 31 8 48t11 46t16 80q5 43 28 125h-86q-68 -4 -100 4q-33 4 -35 33q4 25 57 21
q2 0 7 -2h22l12 2h13q14 2 73 -2h29zM260 1456l-24 2q-14 0 -21 6l-14 33q-35 51 -39 55q-4 12 -21 24t-22 34q2 16 29.5 20.5t50.5 -29.5l30 -38q15 -15 21 -27q8 4 20 16t13 19q2 8 14 12l25 29l8 12q8 4 22 18q2 0 10 2t23.5 -6t17.5 -16q8 -14 -16 -43l-6 -2
q-6 -10 -16 -12l-52 -52q-4 -6 -28 -30z" />
    <glyph glyph-name="zcaron" unicode="&#x17e;" horiz-adv-x="352" 
d="M244 948h2l-2 -6v-2l-13 -43q0 -6 -4 -10q-12 -129 -22 -155t-10 -40q0 -16 -2 -20v-4q-7 -9 -6 -17t-5 -18l-6 -43q-6 -58 -14 -66v-6q-16 -43 -16 -78q-1 -35 -4 -43t-5 -17t-4 -11l-6 -29q-2 -6 -2 -10v-15l-4 -22q-8 -24 -8 -41l-2 -16v-15l-9 -57v-4q-2 -4 -2 -16
t-4 -13v-2q4 -19 -3 -35t-7 -33l133 5q2 -2 4 -3q51 0 47 -36q0 -40 -151 -29h-27l-37 2q-31 0 -39 23q-2 29 11 55q4 41 8 56q4 14 6 38q3 24 15 106t20 107l4 35l6 35q0 18 8 26v6l2 5v8q0 14 6 39l9 47l12 55q9 37 13 64q3 27 11 73l7 31l6 31q10 40 10 53l6 31
q6 29 19 102l18 129q14 98 20 137q11 31 15 78q-25 4 -117 4h-29q-43 0 -43 31q2 31 52 27l4 -2h110q61 0 68 -3q16 0 16 -16q6 -6 6 -8q-4 -68 -16 -103q2 -10 -2 -18v-6q-2 -4 -2 -8v-15l-6 -26q-4 -12 -4 -17v-12l-2 -14q0 -29 -3 -43t-8 -47q-6 -6 -6 -9l-14 -86v-12
q-4 -10 -8 -16v-23zM197 1452l-25 2q-14 0 -20 6l-9 19q-14 33 -45 71q-4 10 -22 22t-19 34q2 18 28 22.5t50 -31.5l31 -38q13 -13 20 -27q22 16 29 27q8 20 18 20l7 6l18 23l10 14q7 4 16 11t13 9q31 0 41 -19t-14 -48l-7 -2q-6 -10 -16 -12q-8 -11 -27 -29l-24 -23
q-2 -3 -29 -30z" />
    <glyph glyph-name="circumflex" unicode="&#x2c6;" horiz-adv-x="313" 
d="M231 1186q0 -10 -14 -17q-6 0 -10 -4q-17 1 -25 11t-16 14q-4 28 -10 47l-2 2q-10 -37 -21 -55q-35 -4 -51 18q-2 6 2 19q12 12 15 35q3 22 5 30v10l7 21l8 20l10 43q0 23 4 39q6 0 6 1t8 5q38 3 54 -24l8 -96q4 -31 16 -52l8 -53v-2q-2 -2 -2 -12z" />
    <glyph glyph-name="caron" unicode="&#x2c7;" horiz-adv-x="475" 
d="M336 1436q23 0 35 -25q10 -31 -17 -43q-14 -14 -16 -14q-2 -2 -6 -7.5t-6 -7.5l-25 -24q-11 -11 -16 -21l-21 -20l-4 -8q-17 -21 -27 -25q-41 -7 -55 29l-4 10v-2q-2 4 -4 6l-18 28q-8 12 -21 36q-29 29 -41 59q2 18 19.5 26.5t25.5 2.5q18 -18 28 -35t23 -35l15 -23
q8 -8 12 -14t10 -12q7 4 19 18q12 15 16 23l31 39l4 12q2 0 8 6q12 21 35 21z" />
    <glyph glyph-name="breve" unicode="&#x2d8;" horiz-adv-x="487" 
d="M203 1174q-8 0 -19 8l2 -2l-32 12q-2 0 -3 2t-5 4q-8 4 -11 8l-24 37l-2 12q-14 14 -13 31q16 16 23 19l28 4q25 -25 29 -37t6 -12q49 -34 70 -27q6 0 14 4l21 8q13 0 28 17l11 6l6 6q6 10 22 16q21 1 37 -26l-26 -50v3q-8 -8 -13 -11q-46 -46 -87 -42q-41 5 -48 10h-14z
" />
    <glyph glyph-name="dotaccent" unicode="&#x2d9;" horiz-adv-x="7897" 
d="M915 1315l35 -8l6 -2l5 -7l18 -36q0 -41 -29 -70t-63 -23q-53 14 -62 76q-6 -4 -4 2q0 10 13 27q27 27 36 34t23 7h22z" />
    <glyph glyph-name="ring" unicode="&#x2da;" horiz-adv-x="471" 
d="M375 1260q0 -34 -13 -56v2q-10 -10 -11 -19q-1 -13 -34 -39.5t-55 -27.5h-8q-24 4 -45 4l-27 13q-10 10 -17 11t-40 32l-2 4q-14 14 -14 18q-19 48 -13 74t39 59l25 19q2 3 26 22q12 4 35 4l74 -6q41 -12 57 -43q23 -37 23 -71zM231 1202q2 0 7 -2h6q27 -9 43 17v-3l6 21
l4 8l8 12v11q4 16 -4 28q-14 23 -72 17q-25 -8 -30 -15q-25 -20 -27 -39q4 -29 51 -55h8z" />
    <glyph glyph-name="ogonek" unicode="&#x2db;" horiz-adv-x="323" 
d="M180 -156q0 -14 -6 -23t-6 -14q4 4 12 7l-2 -2q14 10 27.5 6t19.5 -13q18 -41 -18 -69l-6 -6q0 -4 -13 -20t-30 -15h-17l-2 2h-6q-41 0 -41 70q0 41 6 57l17 43q37 43 51 57q35 0 43 -18l-10 -29q-19 -19 -19 -33zM158 -213v2q-4 -4 -4 -14q4 4 4 12z" />
    <glyph glyph-name="tilde" unicode="&#x2dc;" horiz-adv-x="528" 
d="M188 1200l-63 -31q-56 29 2 72l25 14l6 -8q17 17 30 17l5 2h33q30 0 44 -11q18 -6 30 -12t22 -6t31 12t48 15q5 -4 13 -6t16 -21v-2q2 -27 -31 -39l-14 -4q-2 0 -13.5 -9t-33.5 -10t-113 33h-28q-6 -6 -9 -6z" />
    <glyph glyph-name="hungarumlaut" unicode="&#x2dd;" horiz-adv-x="466" 
d="M256 1382l-8 -20q-28 -23 -49 -66l-37 -55l-27 -33v-2q-2 -6 -14 -14q-18 -37 -44 -37t-36 33q4 10 10 16t10 19l11 8l12 14l10 15q16 43 32 64q28 36 41 57t30 36q7 37 34 53l60 -36q-14 -35 -35 -52zM193 1116q-27 0 -37 33q4 10 10 16t12 23l6 2l25 31q16 37 49 84
l23 24q17 17 30 49q8 36 33 54l59 -37q-10 -31 -36 -52v-4l-7 -16l-28 -31l-27 -43q-6 -12 -12 -18h2l-19 -31q-10 -10 -18 -31l-10 -4q-18 -18 -12 -14l2 2q-18 -37 -45 -37z" />
    <glyph glyph-name="endash" unicode="&#x2013;" horiz-adv-x="1030" 
d="M913 580q-84 0 -161 -3t-196 1t-200 -5q-29 0 -90 5l-22 2h-88l-33 2h-37q-24 24 -19 40t23 16q18 1 78 1t94 -2h25l22 -2h58l28 2h56l26 -2h53q12 4 29 4h59l21 -2h115q76 -4 161 6q47 0 50 -35q0 -29 -29 -33q-16 -4 -23 7v-2z" />
    <glyph glyph-name="emdash" unicode="&#x2014;" horiz-adv-x="1648" 
d="M1032 567q-66 6 -110 2h-189v2h-26q-23 -4 -113 -4t-156 4l-47 2l-61 2q-137 7 -191 3l-12 4q-9 6 -27 4t-28 12h4l-8 33l2 14q27 2 63 -2h10l4 -2q6 0 35 -4t41 -3t21 1q16 -8 84 -8h82l6 -2h10l2 2l107 -4h34q6 2 11 2l6 -2q23 2 86 2h303l49 -2q33 -2 100 -2h189
q23 2 84 2l39 2q80 0 104 8q25 4 33 -9t0 -31t-27 -20h-73l-27 -2q-16 -2 -53 -2l-41 -2h-209l-19 -2h-14q-37 0 -53 2l-21 2z" />
    <glyph glyph-name="quoteleft" unicode="&#x2018;" horiz-adv-x="241" 
d="M182 1192q0 -6 4 -14q-4 -8 -4 -20t-10 -15q-27 -12 -53 14l-19 96l-16 72q0 2 -2 10l-23 101q-4 23 2 34q40 10 58 -8q34 -144 39 -158q6 -15 6 -29t6 -20q8 -20 8 -53q4 -4 4 -10z" />
    <glyph glyph-name="quoteright" unicode="&#x2019;" horiz-adv-x="301" 
d="M127 1171q1 -7 -15 -23q-28 -28 -51 17q-2 12 0 19q6 6 7 12l6 23l14 26q0 4 4 8v4l8 23q31 100 50 135q8 53 26 64q37 0 45 -19q0 -19 -10 -54t-16 -40q-27 -102 -47 -145t-21 -50z" />
    <glyph glyph-name="quotesinglbase" unicode="&#x201a;" horiz-adv-x="296" 
d="M104 -166l-8 2q-2 0 -18 5t-19 12q-2 27 11 38v7l8 12l-2 -2q4 18 22 45l-2 -2q22 57 40 93t24 67q4 4 4 8l8 10q5 19 25 27h2q29 2 41 -31l-7 -19l-6 -12l-24 -69q-4 -8 -4 -13l-37 -73q-4 -8 -21 -25l6 -4l-6 -6q0 -18 -8 -29q-8 -31 -29 -41zM150 -92l-3 2q3 2 3 -2z
" />
    <glyph glyph-name="quotedblleft" unicode="&#x201c;" horiz-adv-x="421" 
d="M94 1348q-5 7 -8 19q-4 11 -9 22t-18 63q17 30 50 18q8 -4 12 -18l8 -25q8 -16 8 -20l4 -8v2q4 -14 15 -31q25 -82 41 -121q-20 -35 -41 -39q-20 8 -25 33l-12 25q-4 23 -10 37l-11 28q-4 4 -4 15zM209 1450l37 29q57 -61 45 -60q-4 2 -15 8l3 -4q0 -10 4 -15t7.5 -16.5
t16.5 -31.5q10 -27 29 -64l24 -51q-4 -16 -18 -24q-6 -14 -23 -9q-18 18 -23 32t-15 28l-7 20q-29 55 -47 102q-18 46 -18 56z" />
    <glyph glyph-name="quotedblright" unicode="&#x201d;" horiz-adv-x="407" 
d="M305 1479h2q27 -6 39 -33q-4 -23 -11 -33q-7 -11 -12 -31t-10 -28l-12 -33l-13 -31q-12 -30 -14 -39q-4 -4 -4 -8q-8 -27 -32 -28t-29 13q-4 14 -6 17q10 37 30 84l23 51l27 74l8 16q0 9 14 9zM143 1458q0 12 15 19h-2q22 12 53 -25l-45 -123q-2 -4 -8 -15t-9 -18
l-18 -43q-20 -30 -39 -39q-23 16 -31 37q7 25 19 49t18 41l29 66q0 6 4 10q2 4 6 13.5t6 13.5v-2l2 2v14z" />
    <glyph glyph-name="quotedblbase" unicode="&#x201e;" horiz-adv-x="458" 
d="M217 82q-4 -12 -4 -24t-6 -13l-14 -27q-6 -32 -19 -58q-12 -26 -14 -52l-15 -29l-8 -12q-12 -47 -28 -51q-33 -6 -50 18q0 15 9 33q0 8 10 22q13 30 18 50q4 20 19 73q25 68 37 92q4 30 20 50l66 -15q-2 -37 -21 -57zM350 133l47 -29l-4 -18q-16 -28 -35 -84l-12 -31
q0 -4 -4 -12l2 2q-12 -24 -17 -39t-20 -39q-12 -41 -28 -61q-4 -27 -21 -31q-41 4 -51 23q0 23 6 32t10 17l21 39t28 58l7 18q7 18 9 22l11 33q16 43 18 51l7 12q8 8 12 20t14 17z" />
    <glyph glyph-name="dagger" unicode="&#x2020;" horiz-adv-x="397" 
d="M147 1038q16 0 25 2v316q-4 54 12 74l43 -3q14 -18 11 -55v-12l-2 -12q0 -223 4 -306q6 -2 18 -2h39q47 4 57 -16q10 -33 -8 -43l-39 -8h-41l-14 2h-10q-2 -10 -2 -49v-99l-2 -36v-601l-2 -61v-268q0 -8 2 -17v-2q2 -2 2 -4q14 -76 0 -102q-10 -10 -28.5 -14.5t-29.5 4.5
q-10 10 -10 59v22q-2 16 -2 60v51l-2 16v52l2 30q4 98 1 129t-3 80t2 70l2 45v55l-2 39v156q2 49 2 198l2 113v78q-10 2 -37 2h-39l-4 2h-6q-36 4 -44.5 14.5t-2.5 28.5t49 14h16l5 -2h36z" />
    <glyph glyph-name="daggerdbl" unicode="&#x2021;" horiz-adv-x="546" 
d="M254 1065l4 53q0 6 -2 14t0 41t2 60v137q-4 49 6 66q23 4 39 -6l16 -101v-55l-2 -57q0 -53 5 -152q4 -2 32 -2h17q45 0 63 -4t25 -21q4 -4 4 -10q-6 -33 -57 -29h-27l-25 2h-35q-4 -20 3 -77v-105l2 -16l-5 -420v-115q6 -2 31 -2t35 -2h12q47 0 56 -37q-14 -35 -72 -24v2
q-23 2 -64 -2q-2 -6 -2 -35v-184q-14 -104 0 -146q4 -27 -2 -49q-10 -18 -38.5 -13t-34.5 23q0 20 4 28.5t4 10.5l4 367h-2q-8 0 -10 2h-15l-20 -2h-44q-44 0 -44 27.5t27.5 32.5t45.5 -1h27q29 0 35 2q2 23 2 64v69q0 82 2 123v49l2 95q0 193 4 215l-2 16v10q-2 8 -2 35v59
q-2 0 -8 3h-4q-37 6 -86 2h-43q-16 2 -26.5 12t-6.5 24v-2q4 23 47 23h27q25 2 96 2z" />
    <glyph glyph-name="bullet" unicode="&#x2022;" 
d="M381 696l6 -49q4 -36 -6 -61l-14 -21q-18 -30 -43 -51q0 -2 -33 -11t-72 -7q-47 8 -62.5 23.5t-26.5 21.5t-11 20l-17 25q-10 20 -6 57q12 115 109 129q75 13 106 -10h-2q14 -6 23 -6l26 -25q15 -15 15 -16z" />
    <glyph glyph-name="ellipsis" unicode="&#x2026;" horiz-adv-x="991" 
d="M522 123v-14q4 -63 -2 -99q-14 -14 -41 -20q-2 2 -9 3t-17 11q-4 20 0 43v10q6 61 2 101q14 14 34.5 15t26.5 -8t6 -42zM877 84q0 -12 2 -37v-12q3 -29 -13 -39l-2 -2q-31 -8 -53 18v25q-4 14 -2 33v86q10 12 27.5 14t29.5 -8q8 -29 11 -53v-25zM174 47q0 -35 -18 -47
l-29 2q-6 6 -16 6q-2 16 -2 66v45q-6 37 16 59q6 6 45 -12q2 -10 2 -43l2 -10v-66z" />
    <glyph glyph-name="perthousand" unicode="&#x2030;" horiz-adv-x="1306" 
d="M809 276v9q0 51 39 100q0 2 9 12.5t11 10.5l23 22q60 48 121 51q4 2 28 -2h4q4 -2 9 -2l4 -2h22q4 -4 8 -4l25 -10l39 -41q37 -43 37 -62l8 -20l6 -49l2 -8v-97q-6 -74 -45 -127q-33 -41 -57.5 -54t-84.5 -14t-99 27q-6 0 -11 7l-22 14q-4 4 -6 4q-33 25 -57 105t-15 120
v4q2 4 2 6zM782 285v-2q2 -4 2 -7v-10q6 -117 -39 -180l3 2q-27 -44 -39 -51v2q0 -2 -1 -2l-18 -10q-9 0 -16 -8.5t-12 -8.5l2 2l-19 -12q-25 -12 -78 -12q-92 2 -151 108q-23 39 -29 113v49l2 14v7l2 2v8l6 49l9 20q11 31 36 62l43 41q13 0 20 7t23 7l17 2q0 4 35 4
q12 -6 32 -6q4 -4 15 -4q43 -12 63 -33l10 -8l29 -29q13 -14 19 -28t10 -15l8 -6l14 -30q2 -12 2 -37zM346 1012h-55l-4 2h-11q-6 2 -22 4t-24 6l-19 10l-8 8l-17 7q-4 0 -30 26q-8 12 -22 53t-7 105q0 61 16 80q5 18 9 30q5 16 28 39v7l8 14q2 13 19 20q15 11 35 19t72 8
t114 -45q68 -57 68 -139v-11q0 -104 -35 -172v2q-12 -23 -37 -38v2q-6 -6 -10 -7l-31 -18zM604 1036q0 -4 -4 -8v-4q-2 -2 -2 -6l-20 -57l-4 -17q-5 -16 -7 -18l-12 -31l-35 -115l-4 -4l-2 -14q-14 -25 -17 -36t-8 -17q0 -6 -4 -11v-4q-4 -4 -4 -10l-4 -4
q-34 -114 -52.5 -151l-20.5 -41l-20 -50q-7 -16 -7 -24l-6 -23q0 -4 -4 -8v-6q-17 -20 -17 -39q-4 -18 -14 -31v-8q-2 -6 -2 -10l-51 -150q-43 -110 -43 -124q0 -15 -9 -23v-6q-2 -23 -22 -45q-18 -8 -41 -2t-29 22q0 29 17 55q0 13 10 23l6 10l-2 -2q6 23 14 31l11 26
q5 22 14 42t21 58l18 57.5t8 23.5l29 82q4 4 4 8l2 6v8l14 41q7 23 15 43.5t12 32.5q32 60 43 101q11 42 22 69l13 31q18 49 32 81t25 62l29 82q23 76 43 123l39 114l26 88q20 63 36 100t17 54q0 17 14.5 23t34 0.5t23.5 -19.5l-14 -59l-27 -76q-10 -42 -16 -53l-39 -127
q-3 -16 -11 -30t-14 -28v2q-4 -4 -4 -8zM899 132q0 -7 19 -26q0 -4 6 -8q4 -10 44.5 -42.5t104.5 22.5q2 2 13 14q54 59 47 150v8q0 2 -3 8v8q-8 70 -18 85t-22 28l-21 22q-8 0 -12 2t-13 3q-33 10 -66 -6t-38 -21q-29 -29 -41 -51l-10 2l2 -17q-8 -18 -12 -34v-56l2 -8v-8
l16 -64v-2q2 -2 2 -9zM711 202q0 6 2 11v66q-2 10 -15 34q4 12 4 17l-10 -2l-41 51q-5 5 -43 22q-37 16 -63 11l-19 -9q-2 -4 -10 -11t-10 -10t-19 -20t-26 -102q-7 -114 47 -168l6 -8q0 -2 8 -10q37 -33 82 -22t80 65q0 2 4 11t5 17t5 13v2l2 4q-4 -4 0 2l7 14q4 16 4 22z
M281 1386q-2 0 -5.5 -2t-15.5 -8q-29 -16 -45 -72t-16 -120l14 -58q8 -8 8 -16q8 -4 8 -6l19 -14q55 -23 98 -11l4 -10q2 0 16 5t17 7l-16 4h-5l-4 -2q2 2 9 7l16 16l25 59q0 4 4 17q0 16 6 28q8 54 1 72t-22 43h2q-42 61 -118 61zM893 315l-2 -2z" />
    <glyph glyph-name="guilsinglleft" unicode="&#x2039;" horiz-adv-x="268" 
d="M55 578q-20 20 -20 32l18 31l25 29q8 8 23 27t15 21t5 7v4l16 21l13 20l4 -4q-2 8 2 18l18 17q8 8 23 6l16 -12q2 -25 -3 -32l-20 -26h3q-4 -6 -7.5 -9t-7.5 -9l-47 -66q-10 -14 -22 -39q31 -51 41 -65l14 -19q4 -4 10 -16l16 -16q21 -38 32 -48q11 -9 9 -18
q-4 -37 -43 -37q-20 10 -22 29l-2 4l-4 6l-6 6q-8 0 -11 15q-12 12 -24 30l2 -2l-12 19q-6 6 -17.5 22.5t-15.5 20.5l-23 33h2z" />
    <glyph glyph-name="guilsinglright" unicode="&#x203a;" horiz-adv-x="325" 
d="M82 397q0 11 11 23t16 21t11 13t17 20q12 17 29 34q17 16 34 48t19 36t4 6l-16 16l-70 64l-10 10l-12 14q-15 11 -29 15l-6 12l-8 4q-8 0 -9 10q-4 2 -13 6t-11 15q-11 33 12 47l47 -27l27 -24l22 -25l3 -2q2 -4 5 -6t7 -5l22 -16q23 -17 28 -20q5 -2 10 -7l32 -32
q4 -2 12 -10q33 -23 15 -59q-4 -8 -5 -11l-14 -22q-4 -4 -4 -6l-10 -13h2l-23 -34v2q-2 -2 -4 -4.5t-4 -4.5l-20 -28q-38 -47 -49 -58q0 -4 -3 -6l-12 -20q-4 -6 -24 -13q-29 0 -29 37z" />
    <glyph glyph-name="fraction" unicode="&#x2044;" horiz-adv-x="1044" 
d="M57 86l27 55q2 2 2 10t29 37l28 29l-6 4q7 7 10 12l30 49q9 14 29 42l38 55q12 18 18 24l170 261l-2 -2l27 47q38 53 46 66l26 41q26 40 32 48l43 62q2 2 19 28v-2l8 17l10 -2q0 10 2 14l19 31q20 27 51 88l43 59v-2q6 13 24 35t25 35h-2q6 10 21.5 30.5t21.5 30.5l41 62
l-2 -2l22 36q25 37 43 54q12 5 37 -13t-4 -57q-4 -4 -25 -45v-2q-2 -1 -11 -21t-29 -38t-52 -71q-32 -52 -63 -95v2q-6 -6 -6 -11l-2 -4q-16 -16 -23 -36l-108 -160q-23 -31 -114 -171l-101 -155v2q-12 -22 -15.5 -26.5t-5.5 -8.5l-27 -43v2q-6 -18 -32 -55h2q-3 -8 -20 -32
l-85 -113l-12 -19q-10 -12 -14 -18l-62 -90l2 2l-12 -25q-4 -4 -4 -8l-6 -10h2l-10 -19q-8 -15 -13 -20l-12 -27q-6 -20 -31 -45q-14 -6 -29.5 7.5t-23.5 29.5q0 25 16 41zM801 1096h2q-4 -9 -6 -9q4 4 4 9z" />
    </font>
</defs>
</svg>
